SplineFontDB: 3.0
FontName: PochaevskUnicode
FullName: Pochaevsk Unicode
FamilyName: Pochaevsk Unicode
Weight: Normal
Copyright: Copyright 2019 Aleksandr Andreev (Slavonic Computing Initiative). Licensed under the SIL OFL. Based on Pochaevsk Copyright 1996 by Starina/Russian Antiquities; developed by Nikita Simmons.
Version: 1.1
ItalicAngle: 0
UnderlinePosition: -100
UnderlineWidth: 50
Ascent: 800
Descent: 200
InvalidEm: 0
LayerCount: 2
Layer: 0 0 "Back" 1
Layer: 1 0 "Fore" 0
UniqueID: 4777017
FSType: 0
OS2Version: 0
OS2_WeightWidthSlopeOnly: 0
OS2_UseTypoMetrics: 0
CreationTime: 1291789194
ModificationTime: 1562697956
PfmFamily: 17
TTFWeight: 400
TTFWidth: 5
LineGap: 90
VLineGap: 0
OS2TypoAscent: 0
OS2TypoAOffset: 1
OS2TypoDescent: 0
OS2TypoDOffset: 1
OS2TypoLinegap: 90
OS2WinAscent: 0
OS2WinAOffset: 1
OS2WinDescent: 0
OS2WinDOffset: 1
HheadAscent: 0
HheadAOffset: 1
HheadDescent: 0
HheadDOffset: 1
OS2Vendor: 'PfEd'
Lookup: 4 0 0 "'ccmp' Canonical Composition and Precomposed Glyphs" { "'ccmp' Canonical Composition and Precomposed Glyphs-1"  } ['ccmp' ('DFLT' <'dflt' > 'cyrl' <'dflt' > ) ]
Lookup: 4 0 0 "'ccmp' Second Round of Precomposed Glyphs" { "'ccmp' Second Round of Precomposed Glyphs-1"  } ['ccmp' ('DFLT' <'dflt' > 'cyrl' <'dflt' > ) ]
Lookup: 3 0 0 "'salt' Stylistic Alternatives in Cyrillic" { "'salt' Stylistic Alternatives in Cyrillic-1"  } ['salt' ('DFLT' <'dflt' > 'cyrl' <'dflt' > ) ]
Lookup: 1 0 0 "'ss01' Church Slavonic Hyphenation" { "'ss01' Church Slavonic Hyphenation-1"  } ['ss01' ('DFLT' <'dflt' > 'cyrl' <'dflt' > ) ]
Lookup: 5 0 0 "Contextual Titlo Replacement" { "Contextual Titlo Replacement-1"  } ['ccmp' ('DFLT' <'dflt' > 'cyrl' <'dflt' > ) ]
Lookup: 1 0 0 "Tiny Titlo" { "Tiny Titlo-1"  } []
Lookup: 1 0 0 "Short Titlo" { "Short Titlo-1"  } []
Lookup: 1 0 0 "Long Titlo" { "Long Titlo-1"  } []
Lookup: 260 0 0 "'mark' Diacritical Marks" { "'mark' Diacritical Marks-1"  } ['mark' ('DFLT' <'dflt' > 'cyrl' <'dflt' > ) ]

StartChar: .notdef
Encoding: 1114112 -1 0
Width: 751
HStem: 0 46<92 659> 705 46<92 659>
VStem: 46 46<46 705> 659 46<46 705>
LayerCount: 2
Fore
SplineSet
46 0 m 1
 46 751 l 1
 705 751 l 1
 705 0 l 1
 46 0 l 1
659 46 m 1
 659 705 l 1
 92 705 l 1
 92 46 l 1
 659 46 l 1
EndSplineSet
Validated: 1
EndChar

StartChar: .null
Encoding: 0 0 1
Width: 751
Flags: W
HStem: 0 46<92 659> 705 46<92 659>
VStem: 46 46<46 705> 659 46<46 705>
LayerCount: 2
Fore
SplineSet
46 0 m 1
 46 751 l 1
 705 751 l 1
 705 0 l 1
 46 0 l 1
659 46 m 1
 659 705 l 1
 92 705 l 1
 92 46 l 1
 659 46 l 1
EndSplineSet
Validated: 1
EndChar

StartChar: uniE004
Encoding: 57348 57348 3
Width: 1
GlyphClass: 4
Flags: W
HStem: 773 67<-413.147 -331.521>
VStem: -323 55<700.011 786.5>
DStem2: -152 806 -241 824 0.641723 -0.766937<-71.7292 131.936>
AnchorPoint: "Stack" -235 934 basemark 0
AnchorPoint: "Stack" -213 655 mark 0
AnchorPoint: "Above" -213 656 mark 0
LayerCount: 2
Fore
SplineSet
-347 840 m 0
 -307 840 -268 808 -268 765 c 0
 -268 744 -276 721 -291 698 c 0
 -307 675 -320 664 -330 664 c 0
 -337 664 -340 667 -340 674 c 0
 -340 675 -340 676 -340 677 c 0
 -340 691 -324 698 -323 727 c 0
 -323 751 -345 773 -376 773 c 0
 -395 773 -412 766 -428 751 c 0
 -445 737 -455 730 -460 730 c 0
 -466 730 -469 733 -469 740 c 0
 -469 754 -457 774 -433 800 c 0
 -409 827 -380 840 -347 840 c 0
-175 836 m 2
 -152 806 l 1
 -99 737 l 2
 -83 714 -66 690 -66 687 c 0
 -66 679 -86 676 -101 676 c 0
 -117 676 -134 697 -159 726 c 2
 -226 806 l 1
 -241 824 l 2
 -245 828 -250 835 -250 840 c 0
 -250 847 -248 847 -224 847 c 2
 -213 847 l 2
 -184 847 -183 847 -175 836 c 2
EndSplineSet
Validated: 1
EndChar

StartChar: afii10103
Encoding: 1110 1110 4
Width: 278
Flags: W
HStem: 0 21G<84 198> 431 20G<90 203> 431 20G<90 203>
VStem: 80 112<0 448.939>
AnchorPoint: "Yerik" 147 623 basechar 0
AnchorPoint: "Above" 147 623 basechar 0
LayerCount: 2
Fore
SplineSet
198 0 m 1xd0
 84 0 l 1
 84 9 83 34 82 73 c 0
 81 112 80 148 80 179 c 0
 80 238 81 287 83 326 c 0
 85 365 88 407 92 451 c 1
 203 451 l 1
 199 415 196 381 194 349 c 0
 193 318 192 269 192 202 c 0
 192 162 193 121 195 79 c 0
 197 37 198 11 198 0 c 1xd0
EndSplineSet
Validated: 1
EndChar

StartChar: uni2DF1
Encoding: 11761 11761 5
Width: 1
Flags: HW
HStem: 616 12<-172.118 -147.775>
VStem: -245 47<636.829 693> -147 41<513 616 631.278 693>
AnchorPoint: "Stack" -186 780 basemark 0
AnchorPoint: "Stack" -164 501 mark 0
AnchorPoint: "Above" -163 499 mark 0
LayerCount: 2
Fore
SplineSet
-100 501 m 5
 -147 501 l 5
 -147 567 l 5
 -147 604 l 5
 -203 604 -245 620 -245 681 c 5
 -198 681 l 5
 -198 680 -198 679 -198 679 c 4
 -198 627 -167 616 -156 616 c 4
 -155 616 -154 616 -153 616 c 4
 -149 616 -147 621 -147 630 c 6
 -147 665 l 6
 -146 672 -145 677 -144 681 c 5
 -101 681 l 5
 -103 666 -104 647 -105 623 c 4
 -106 600 -106 587 -106 585 c 4
 -106 579 -106 573 -106 567 c 4
 -106 546 -105 525 -100 501 c 5
EndSplineSet
Validated: 1
EndChar

StartChar: comma
Encoding: 44 44 6
Width: 352
Flags: W
HStem: -14 21G<56 85> 54 86<126.948 201.495>
VStem: 56 13<-14 -4.83179> 215 79<-35.0617 41.27>
LayerCount: 2
Fore
SplineSet
139 -159 m 1
 118 -159 l 1
 183 -99 215 -55 215 -10 c 0
 215 30 192 54 155 54 c 0
 123 54 101 37 69 -14 c 1
 56 -14 l 1
 60 27 75 63 101 94 c 0
 127 125 157 140 192 140 c 0
 253 140 294 97 294 38 c 0
 294 5 282 -25 259 -54 c 0
 236 -83 196 -118 139 -159 c 1
EndSplineSet
Validated: 1
EndChar

StartChar: hyphen
Encoding: 45 45 7
Width: 352
Flags: W
HStem: 229 54<25 325>
VStem: 25 300<229 283>
LayerCount: 2
Fore
SplineSet
325 229 m 1
 25 229 l 1
 25 283 l 1
 325 283 l 1
 325 229 l 1
EndSplineSet
Validated: 1
Substitution2: "'ss01' Church Slavonic Hyphenation-1" underscore
EndChar

StartChar: period
Encoding: 46 46 8
Width: 259
Flags: W
HStem: -14 116<82.3386 172.745>
VStem: 69 117<-0.745117 88.7451>
LayerCount: 2
Fore
SplineSet
186 44 m 0
 186 12 160 -14 128 -14 c 0
 95 -14 69 12 69 44 c 0
 69 76 95 102 128 102 c 0
 160 102 186 76 186 44 c 0
EndSplineSet
Validated: 1
EndChar

StartChar: bracketright
Encoding: 93 93 9
Width: 352
Flags: W
HStem: -144 41<19 211.255> 669 44<20 210.827>
VStem: 212 82<-103.459 667.738>
LayerCount: 2
Fore
SplineSet
19 -144 m 1
 19 -103 l 1
 173 -104 l 2
 209 -104 212 -102 212 -63 c 2
 212 620 l 2
 212 664 210 669 166 669 c 2
 20 667 l 1
 20 709 l 1
 294 713 l 1
 294 -148 l 1
 19 -144 l 1
EndSplineSet
Validated: 1
EndChar

StartChar: acutecomb
Encoding: 769 769 10
Width: 1
Flags: W
HStem: 623 194
VStem: -232 161
AnchorPoint: "Stack" -179 902 basemark 0
AnchorPoint: "Stack" -209 623 mark 0
AnchorPoint: "Above" -213 622 mark 0
LayerCount: 2
Fore
SplineSet
-232 637 m 1
 -190 720 l 1
 -183 734 l 1
 -166 767 l 1
 -151 795 l 2
 -140 816 -113 813 -81 817 c 0
 -74 815 -71 813 -71 810 c 0
 -71 807 -75 799 -83 786 c 0
 -91 773 -96 764 -98 761 c 2
 -144 687 l 2
 -163 658 -176 640 -183 633 c 0
 -190 626 -202 623 -218 623 c 0
 -229 623 -234 625 -234 630 c 2
 -232 637 l 1
EndSplineSet
Validated: 1
EndChar

StartChar: gravecomb
Encoding: 768 768 11
Width: 1
Flags: W
HStem: 623 194
VStem: -321 161
AnchorPoint: "Stack" -174 623 mark 0
AnchorPoint: "Stack" -196 902 basemark 0
AnchorPoint: "Above" -177 622 mark 0
LayerCount: 2
Fore
SplineSet
-247 687 m 2
 -294 761 l 2
 -311 789 -321 806 -321 809 c 0
 -321 816 -317 817 -310 817 c 2
 -285 815 l 2
 -252 811 -249 810 -241 795 c 2
 -202 720 l 1
 -193 703 l 1
 -179 673 l 1
 -160 637 l 1
 -158 630 l 2
 -158 625 -163 623 -174 623 c 0
 -190 623 -201 626 -208 632 c 0
 -215 638 -228 656 -247 687 c 2
EndSplineSet
Validated: 1
EndChar

StartChar: uniE001
Encoding: 57345 57345 12
Width: 0
GlyphClass: 4
Flags: W
HStem: 647 21G<-373.5 -366.5> 695 64<-333.086 -244.636>
VStem: -236 56<603.046 685.611>
DStem2: -97 769 -57 709 0.377297 0.926092<-211.023 36.7185>
AnchorPoint: "Stack" -226 823 basemark 0
AnchorPoint: "Stack" -204 544 mark 0
AnchorPoint: "Above" -203 546 mark 0
LayerCount: 2
Fore
SplineSet
-274 759 m 0
 -219 759 -180 730 -180 678 c 0
 -180 651 -188 625 -205 598 c 0
 -222 571 -237 558 -250 558 c 0
 -258 558 -262 561 -262 568 c 0
 -262 573 -251 596 -244 608 c 0
 -237 621 -237 634 -236 645 c 0
 -236 676 -260 695 -288 695 c 0
 -317 695 -331 680 -354 657 c 0
 -359 650 -364 647 -369 647 c 0
 -378 647 -382 651 -382 660 c 0
 -382 681 -370 702 -347 725 c 0
 -324 748 -299 759 -274 759 c 0
-25 794 m 0
 -25 791 -36 763 -57 709 c 0
 -79 656 -93 621 -100 606 c 0
 -103 597 -107 587 -112 574 c 0
 -118 561 -122 554 -124 552 c 0
 -126 551 -133 549 -145 547 c 2
 -168 544 l 2
 -173 547 -175 549 -175 550 c 2
 -169 570 l 1
 -97 769 l 1
 -92 783 l 2
 -88 792 -46 800 -31 800 c 0
 -27 800 -25 798 -25 794 c 0
EndSplineSet
Validated: 1
LCarets2: 1 0
Ligature2: "'ccmp' Canonical Composition and Precomposed Glyphs-1" uni0486 acutecomb
EndChar

StartChar: uniE003
Encoding: 57347 57347 13
Width: 0
GlyphClass: 4
Flags: W
HStem: 717 67<-374.951 -293.253>
VStem: -285 54<645.117 730.5>
DStem2: -113 748 -187 749 0.641723 -0.766937<-71.8027 132.206>
AnchorPoint: "Stack" -196 892 basemark 0
AnchorPoint: "Stack" -174 613 mark 0
AnchorPoint: "Above" -177 610 mark 0
LayerCount: 2
Fore
SplineSet
-310 784 m 0
 -270 784 -231 752 -231 709 c 0
 -231 688 -239 666 -254 643 c 0
 -270 620 -283 608 -292 608 c 0
 -299 608 -302 612 -302 619 c 0
 -302 620 -302 621 -302 621 c 0
 -302 632 -286 651 -285 671 c 0
 -285 696 -308 717 -339 717 c 0
 -357 717 -381 705 -410 680 c 0
 -416 676 -420 674 -423 674 c 0
 -428 674 -431 677 -431 684 c 0
 -431 698 -419 718 -395 744 c 0
 -371 771 -343 784 -310 784 c 0
-136 778 m 2
 -113 748 l 1
 -60 679 l 2
 -44 656 -27 633 -27 629 c 0
 -27 621 -45 619 -61 618 c 1
 -84 623 -89 632 -120 668 c 2
 -187 749 l 1
 -202 766 l 2
 -209 773 -212 778 -212 782 c 0
 -212 789 -201 789 -185 789 c 2
 -174 789 l 2
 -145 789 -144 789 -136 778 c 2
EndSplineSet
Validated: 1
LCarets2: 1 0
Ligature2: "'ccmp' Canonical Composition and Precomposed Glyphs-1" uni0486 gravecomb
EndChar

StartChar: asterisk
Encoding: 42 42 14
Width: 444
Flags: W
HStem: 332 72<73 94.3333 350.667 372> 494 72<71 93.0244 350.976 373> 620 20G<196 249>
LayerCount: 2
Fore
SplineSet
198 260 m 1
 185 297 l 1
 214 427 l 1
 207 430 l 1
 110 342 l 1
 72 332 l 1
 61 347 53 361 46 376 c 1
 73 404 l 1
 201 446 l 1
 200 453 l 1
 71 494 l 1
 47 521 l 1
 55 544 57 547 72 566 c 1
 107 557 l 1
 209 468 l 2
 212 469 214 470 215 472 c 2
 185 600 l 1
 196 637 l 1
 222 640 l 1
 249 637 l 1
 260 600 l 1
 230 472 l 1
 235 468 l 1
 337 557 l 1
 373 566 l 1
 381 556 386 549 388 545 c 0
 390 542 393 534 398 521 c 1
 373 494 l 1
 244 453 l 1
 244 446 l 1
 372 404 l 1
 398 376 l 1
 394 365 391 357 389 353 c 0
 387 350 382 343 373 332 c 1
 335 342 l 1
 237 430 l 1
 230 427 l 1
 259 297 l 1
 247 260 l 1
 222 258 l 1
 198 260 l 1
EndSplineSet
Validated: 1
EndChar

StartChar: bracketleft
Encoding: 91 91 15
Width: 352
Flags: W
HStem: -148 44<140.631 334> 667 42<146.24 333>
VStem: 59 81<-103.459 660.759>
LayerCount: 2
Fore
SplineSet
334 -103 m 1
 334 -144 l 1
 59 -148 l 1
 59 713 l 1
 333 709 l 1
 333 667 l 1
 187 669 l 2
 164 669 151 666 146 661 c 0
 142 656 140 642 140 620 c 2
 140 -63 l 2
 140 -102 143 -104 180 -104 c 2
 334 -103 l 1
EndSplineSet
Validated: 1
EndChar

StartChar: colon
Encoding: 58 58 16
Width: 296
Flags: W
HStem: -16 21G<127.222 163.333> 438 20G<127.703 162.568>
VStem: 81 129
LayerCount: 2
Fore
SplineSet
210 384 m 1
 145 312 l 1
 81 384 l 1
 145 458 l 1
 210 384 l 1
211 56 m 1
 145 -16 l 1
 81 56 l 1
 145 128 l 1
 211 56 l 1
EndSplineSet
Validated: 1
EndChar

StartChar: semicolon
Encoding: 59 59 17
Width: 352
Flags: W
HStem: -15 21G<56 81.5> 51 87<126.676 197.691> 438 20G<177.703 212.838>
VStem: 213 80<-41.6381 65>
LayerCount: 2
Fore
SplineSet
140 -160 m 1
 120 -160 l 1
 191 -88 213 -48 213 -15 c 0
 213 21 189 51 148 51 c 0
 111 51 94 30 69 -15 c 1
 56 -15 l 1
 77 84 124 138 192 138 c 0
 251 138 293 93 293 37 c 0
 293 -8 276 -45 242 -76 c 0
 209 -107 175 -135 140 -160 c 1
261 384 m 1
 195 312 l 1
 131 384 l 1
 195 458 l 1
 261 384 l 1
EndSplineSet
Validated: 1
EndChar

StartChar: afii10017
Encoding: 1040 1040 18
Width: 463
Flags: W
HStem: 0 21<14 57.584 143.656 189 225 275 387 437> 503 73<172.5 251.5> 607 21<224 273 387 437>
VStem: 29 56<262.168 321.708> 33 137<112.809 206.684> 88 27<50.0017 101.561 217.912 230> 267 120<357.653 432.997 439.468 502.995> 275 112<21 388 509.593 607>
AnchorPoint: "Yerik" 408 680 basechar 0
AnchorPoint: "Above" 327 680 basechar 0
LayerCount: 2
Fore
SplineSet
189 0 m 1xe8
 14 0 l 1
 14 21 l 1
 43 21 63 30 73 47 c 0
 84 64 89 81 89 98 c 1
 61 105 33 117 33 157 c 0xe8
 33 184 47 214 88 221 c 1
 88 230 l 1
 48 241 29 268 29 297 c 0
 29 341 62 364 137 387 c 0
 213 410 261 429 261 482 c 0
 261 496 256 503 247 503 c 0
 243 503 239 500 234 493 c 0
 221 478 207 465 184 465 c 0
 151 465 132 489 132 518 c 0
 132 550 155 576 190 576 c 0
 229 576 256 552 272 507 c 1
 280 508 l 1
 275 542 273 575 273 607 c 1
 224 607 l 1
 224 628 l 1
 438 628 l 1
 437 607 l 1
 387 607 l 1
 387 21 l 1
 437 21 l 1
 437 0 l 1
 225 0 l 1
 225 21 l 1
 275 21 l 1
 275 388 l 1
 256 337 239 304 208 272 c 0
 179 241 150 233 115 228 c 1
 115 221 l 1xf5
 156 214 170 184 170 157 c 0
 170 126 151 106 114 98 c 1
 114 81 119 63 129 46 c 0
 139 29 159 21 189 21 c 1
 189 0 l 1xe8
85 287 m 0xf2
 85 275 102 258 125 258 c 0
 163 258 196 279 224 322 c 0
 253 365 267 398 267 421 c 0
 267 429 264 433 258 433 c 0
 254 433 251 431 248 427 c 2
 240 416 l 2
 223 395 197 375 162 357 c 0
 127 339 105 326 97 319 c 0
 89 312 85 301 85 287 c 0xf2
EndSplineSet
Validated: 1
EndChar

StartChar: afii10018
Encoding: 1041 1041 19
Width: 481
Flags: W
HStem: 0 21<31 81 195 339> 468 21G<343.5 349> 607 21<31 81 195.188 254.733>
VStem: 81 114<21 377 389.988 607> 324 31<473.537 541.237> 339 107<22.3579 319.25>
AnchorPoint: "Yerik" 388 680 basechar 0
AnchorPoint: "Above" 256 680 basechar 0
LayerCount: 2
Fore
SplineSet
195 21 m 1xf8
 339 21 l 1
 339 244 l 1
 339 264 l 2
 339 268 339 272 339 275 c 0xf4
 339 302 338 313 324 317 c 2
 306 323 l 2
 265 338 231 357 199 382 c 1
 195 377 l 1
 195 21 l 1xf8
454 0 m 1
 31 0 l 1
 31 21 l 1
 81 21 l 1
 81 607 l 1
 31 607 l 1
 31 628 l 1
 411 628 l 2
 420 628 424 625 424 620 c 0
 415 607 369 595 355 486 c 0
 355 474 352 468 346 468 c 0
 341 468 333 481 324 508 c 0xf8
 307 561 268 607 211 607 c 0
 204 607 199 607 195 606 c 1
 195 455 l 1
 195 422 l 2
 196 411 207 397 229 380 c 0
 252 363 285 350 328 340 c 0
 371 330 412 325 450 325 c 1
 450 317 446 255 446 191 c 0
 446 107 447 45 454 0 c 1
EndSplineSet
Validated: 1
EndChar

StartChar: afii10040
Encoding: 1062 1062 20
Width: 556
Flags: W
HStem: -222 62<293 361> -124 78<121.5 196.5> 0 21<28 83 197 352> 607 21<28 83 197 252 297 352 466 522>
VStem: 83 114<21 607> 352 114<21 607> 423 99<-64.75 -0.0138855>
AnchorPoint: "Yerik" 408 680 basechar 0
AnchorPoint: "Above" 268 680 basechar 0
LayerCount: 2
Fore
SplineSet
522 628 m 1xfa
 522 607 l 1xfa
 466 607 l 1
 466 21 l 1xfc
 471 21 476 21 480 21 c 0
 496 21 507 20 512 15 c 0
 519 8 522 -25 522 -49 c 0
 522 -71 519 -86 514 -95 c 0
 509 -104 493 -117 468 -134 c 0
 443 -151 411 -170 371 -191 c 0
 332 -212 306 -222 293 -222 c 2
 278 -219 l 1
 258 -210 176 -125 135 -124 c 0
 108 -124 92 -141 68 -172 c 1
 50 -154 l 1
 73 -131 100 -107 129 -82 c 0
 159 -58 181 -46 194 -46 c 0
 199 -46 203 -47 206 -48 c 0
 209 -50 215 -53 222 -57 c 0
 229 -62 248 -76 277 -99 c 0
 306 -122 324 -137 330 -142 c 0
 343 -154 353 -160 361 -160 c 0
 372 -160 387 -155 406 -145 c 0
 425 -135 435 -124 435 -111 c 2
 423 0 l 1xfa
 28 0 l 1
 28 21 l 1
 83 21 l 1
 83 607 l 1
 28 607 l 1
 28 628 l 1
 252 628 l 1
 252 607 l 1
 197 607 l 1
 197 21 l 1
 352 21 l 1
 352 607 l 1xfc
 297 607 l 1
 297 628 l 1
 522 628 l 1xfa
EndSplineSet
Validated: 1
EndChar

StartChar: afii10021
Encoding: 1044 1044 21
Width: 574
Flags: W
HStem: 0 20<194.82 370> 421 131<237.108 314.096> 471 21<336 360> 607 21<322 370 483 535>
VStem: 88 89<34.1606 199.762> 350 133<400.292 470.996> 370 113<21 415.997 492.001 607>
AnchorPoint: "Yerik" 508 680 basechar 0
AnchorPoint: "Above" 419 680 basechar 0
LayerCount: 2
Fore
SplineSet
370 607 m 1xba
 322 607 l 1
 322 628 l 1
 535 628 l 1
 535 607 l 1
 483 607 l 1
 483 21 l 1xba
 513 21 l 2
 544 21 545 21 545 12 c 0
 545 12 545 12 545 11 c 0
 545 7 535 4 504 -46 c 0
 495 -63 488 -80 484 -97 c 0
 478 -128 478 -130 475 -130 c 0
 475 -130 475 -130 474 -130 c 0
 467 -130 457 -115 446 -86 c 0
 435 -57 428 -38 426 -30 c 0
 422 -15 419 -2 412 -1 c 2
 375 0 l 1
 142 0 l 1
 134 -29 127 -52 116 -87 c 0
 105 -123 101 -130 94 -130 c 0
 83 -130 79 -90 60 -47 c 0
 51 -26 41 -11 31 -3 c 0
 12 13 16 11 15 14 c 0
 15 19 26 21 47 21 c 2
 116 21 l 1
 100 52 88 88 88 121 c 0
 88 188 121 235 202 296 c 0
 243 327 278 354 307 378 c 0
 336 403 350 428 350 454 c 0
 350 465 345 471 336 471 c 0xbc
 329 471 323 467 322 460 c 2
 317 448 l 2
 309 430 295 421 275 421 c 0
 246 421 219 446 219 482 c 0
 219 517 245 552 284 552 c 1
 286 552 288 552 289 552 c 0xdc
 333 552 349 492 360 492 c 0
 367 492 370 493 370 520 c 2
 370 607 l 1xba
252 20 m 2
 370 20 l 1
 370 403 l 2
 370 412 368 416 363 416 c 0
 358 416 350 398 327 369 c 0
 316 355 297 332 270 300 c 0
 215 236 177 184 177 104 c 0
 177 65 189 30 200 25 c 0
 212 20 232 20 252 20 c 2
EndSplineSet
Validated: 1
EndChar

StartChar: afii10022
Encoding: 1045 1045 22
Width: 536
Flags: W
HStem: -15 28<128.906 231.523> 223 22<335 374 476 510> 380 52<260.756 353.69> 497 22<326.455 352.25 468.989 500> 620 19<223.227 314.704>
VStem: 31 105<323.751 501.554> 121 54<61.7885 181> 374 102<245 361.469>
AnchorPoint: "Yerik" 408 680 basechar 0
AnchorPoint: "Above" 266 680 basechar 0
LayerCount: 2
Fore
SplineSet
457 100 m 1xfb
 451 79 l 1
 439 83 422 89 419 89 c 0
 414 89 413 88 380 48 c 0
 348 9 269 -15 193 -15 c 0
 140 -15 113 -7 82 5 c 1
 110 26 121 53 121 78 c 0xfb
 121 102 112 145 80 217 c 0
 65 254 53 284 44 307 c 0
 35 331 31 361 31 397 c 0
 31 452 49 506 84 559 c 0
 119 612 184 639 279 639 c 0
 392 639 449 596 470 524 c 1
 501 518 l 1
 500 496 l 1
 484 499 l 2
 449 504 423 506 406 506 c 0
 378 506 354 502 327 497 c 1
 323 519 l 1
 362 527 l 1
 354 594 325 620 268 620 c 0
 239 620 210 609 180 587 c 0
 151 566 136 525 136 465 c 0xfd
 136 439 138 416 142 395 c 0
 148 372 153 352 156 336 c 2
 160 311 l 1
 213 383 263 432 344 432 c 0
 435 432 476 376 476 245 c 1
 510 245 l 1
 510 223 l 1
 334 223 l 1
 335 245 l 1
 374 245 l 1
 377 286 l 1
 377 347 348 380 307 380 c 0
 266 380 231 350 206 325 c 2
 170 284 l 2
 167 279 166 274 166 268 c 2
 169 245 l 2
 172 226 175 189 175 173 c 0
 175 100 157 61 128 17 c 1
 140 14 150 13 166 13 c 0
 210 13 246 28 273 57 c 0
 301 86 315 107 315 120 c 0
 315 124 301 133 288 140 c 2
 281 144 l 1
 290 165 l 1
 307 156 331 146 362 133 c 0
 394 120 426 109 457 100 c 1xfb
EndSplineSet
Validated: 1
EndChar

StartChar: afii10038
Encoding: 1060 1060 23
Width: 657
Flags: W
HStem: 0 21G<225 430> 106 31<180.604 257.061 398.561 475.776> 490 31<181.296 258.04 397.936 475.792> 608 20G<226.5 430>
VStem: 21 114<199.971 427.173> 245 167<265.905 361.48> 298 61<63.5393 148 155.141 258.185 368.736 471.596 479 564.439> 521 115<199.605 427.415>
AnchorPoint: "Yerik" 538 680 basechar 0
AnchorPoint: "Above" 329 680 basechar 0
LayerCount: 2
Fore
SplineSet
292 477 m 1xfb
 298 479 l 1
 298 548 273 579 242 594 c 0
 213 610 213 612 213 620 c 0
 213 627 220 628 233 628 c 2
 423 628 l 2
 437 628 444 625 444 619 c 0
 444 614 434 606 414 595 c 0
 375 574 359 531 359 479 c 1
 365 477 l 1
 378 490 390 500 401 508 c 0
 412 517 432 521 459 521 c 0
 502 521 543 505 580 473 c 0
 617 441 636 390 636 320 c 0
 636 256 628 211 595 170 c 0
 562 129 510 106 459 106 c 0
 415 106 397 118 365 150 c 1
 359 148 l 1
 359 79 385 48 413 32 c 0
 442 17 444 14 444 7 c 0
 444 2 437 0 423 0 c 2
 233 0 l 2
 217 0 213 1 213 8 c 0
 213 13 223 21 242 32 c 0
 282 53 298 96 298 148 c 1
 292 150 l 1
 256 114 232 106 197 106 c 0
 154 106 114 122 77 154 c 0
 40 186 21 237 21 307 c 0
 21 371 29 416 62 457 c 0
 95 498 147 521 198 521 c 0
 242 521 260 509 292 477 c 1xfb
297 376 m 1
 297 443 289 490 229 490 c 0
 192 490 167 471 154 434 c 0
 141 397 135 357 135 314 c 0
 135 269 141 228 154 191 c 0
 167 155 192 137 229 137 c 0
 258 137 277 148 285 170 c 0
 293 192 297 219 297 251 c 1
 265 258 245 282 245 314 c 0xfd
 245 335 256 367 297 376 c 1
360 376 m 1
 392 369 412 345 412 314 c 0
 412 291 401 260 360 251 c 1
 360 218 364 190 371 169 c 0
 379 148 398 137 427 137 c 0
 464 137 489 155 502 191 c 0
 515 227 521 268 521 314 c 0
 521 358 515 398 502 435 c 0
 490 472 465 490 427 490 c 0
 398 490 380 479 372 457 c 0
 364 435 360 408 360 376 c 1
EndSplineSet
Validated: 1
EndChar

StartChar: afii10020
Encoding: 1043 1043 24
Width: 407
Flags: W
HStem: 0 21<42 95 209 260> 466 21G<353 357.5> 607 21<42 95 209 274.153>
VStem: 95 114<21 607>
AnchorPoint: "Yerik" 338 680 basechar 0
AnchorPoint: "Above" 227 680 basechar 0
LayerCount: 2
Fore
SplineSet
270 607 m 1
 209 607 l 1
 209 21 l 1
 260 21 l 1
 260 0 l 1
 42 0 l 1
 42 21 l 1
 95 21 l 1
 95 607 l 1
 42 607 l 1
 42 628 l 1
 397 628 l 1
 384 605 377 587 373 568 c 0
 371 559 368 543 365 520 c 0
 362 497 361 483 361 478 c 0
 361 470 359 466 356 466 c 0
 350 466 336 483 315 518 c 0
 294 553 279 583 270 607 c 1
EndSplineSet
Validated: 1
EndChar

StartChar: afii10039
Encoding: 1061 1061 25
Width: 556
Flags: W
HStem: 0 20<58 114 142 198 335 394 513 548> 548 93<426.64 496.5> 606 21<27 79 198 257>
VStem: 134 104<113.228 187.303>
DStem2: 198 606 79 606 0.473472 -0.880809<0 213.413 244.704 291.307 323.072 608.954> 114 20 142 20 0.421513 0.906822<11.8024 105.321 191.926 289.639>
AnchorPoint: "Yerik" 448 680 basechar 0
AnchorPoint: "Above" 290 680 basechar 0
LayerCount: 2
Fore
SplineSet
198 0 m 1xd0
 58 0 l 1
 58 20 l 1
 114 20 l 1
 157 112 l 1
 144 123 134 134 134 153 c 0
 134 182 156 199 184 199 c 0
 189 199 193 199 196 198 c 2
 244 300 l 1
 79 606 l 1
 27 606 l 1
 27 627 l 1
 257 627 l 1
 257 606 l 1
 198 606 l 1xb0
 299 418 l 1
 363 567 424 641 481 641 c 0
 512 641 524 632 524 625 c 0
 515 612 497 596 497 569 c 0
 497 546 510 527 518 511 c 1
 519 505 l 2
 519 499 516 496 511 496 c 0
 503 496 493 506 482 517 c 0
 473 528 448 548 429 548 c 0
 406 548 388 531 363 484 c 2
 313 390 l 1
 513 20 l 1
 548 20 l 1
 548 0 l 1
 335 0 l 1
 335 20 l 1
 394 20 l 1
 259 272 l 1
 220 188 l 1
 233 173 238 167 238 148 c 0
 238 123 219 103 190 103 c 0
 186 104 183 104 180 104 c 2
 142 20 l 1
 198 20 l 1
 198 0 l 1xd0
EndSplineSet
Validated: 1
EndChar

StartChar: afii10026
Encoding: 1048 1048 26
Width: 556
Flags: W
HStem: 0 21<31 86 200 255 300 355 469 525> 607 21<31 86 200 255 300 355 469 525>
VStem: 86 114<21 305 329 607> 355 114<21 391 415 607>
DStem2: 200 329 200 305 0.874423 0.485164<0 165.616>
AnchorPoint: "Yerik" 412 680 basechar 0
AnchorPoint: "Above" 275 680 basechar 0
LayerCount: 2
Fore
SplineSet
31 0 m 1
 31 21 l 1
 86 21 l 1
 86 607 l 1
 31 607 l 1
 31 628 l 1
 255 628 l 1
 255 607 l 1
 200 607 l 1
 200 329 l 1
 355 415 l 1
 355 607 l 1
 300 607 l 1
 300 628 l 1
 525 628 l 1
 525 607 l 1
 469 607 l 1
 469 21 l 1
 525 21 l 1
 525 0 l 1
 300 0 l 1
 300 21 l 1
 355 21 l 1
 355 391 l 1
 200 305 l 1
 200 21 l 1
 255 21 l 1
 255 0 l 1
 31 0 l 1
EndSplineSet
Validated: 1
EndChar

StartChar: afii10024
Encoding: 1046 1046 27
Width: 741
Flags: W
HStem: 0 21<13 43.8081 182.603 221 270 315 423 468 517 556.346 690.146 725> 537 100<83.5 172.562 563.055 655.5> 607 21<270 315 423 468>
VStem: 315 108<21 336 376 607>
AnchorPoint: "Yerik" 618 680 basechar 0
AnchorPoint: "Above" 369 680 basechar 0
LayerCount: 2
Fore
SplineSet
270 0 m 1xd0
 270 21 l 1
 315 21 l 1
 315 336 l 1
 309 340 l 1
 256 311 222 272 205 222 c 0
 188 173 180 115 180 50 c 0
 180 26 187 21 204 21 c 2
 221 21 l 1
 221 0 l 1
 13 0 l 1
 13 21 l 1
 30 21 40 22 44 25 c 0
 52 32 57 58 62 109 c 0
 65 134 76 163 93 196 c 0
 110 229 131 258 156 282 c 0
 205 330 243 344 299 360 c 1
 271 384 251 414 220 473 c 0
 205 503 194 521 185 527 c 0
 176 534 166 537 154 537 c 0
 125 537 116 529 97 517 c 1
 98 526 98 534 98 537 c 0
 98 589 78 607 49 626 c 1
 65 635 70 637 97 637 c 0xd0
 177 637 217 587 246 499 c 0
 261 456 271 427 278 412 c 0
 285 397 295 384 308 373 c 1
 315 376 l 1
 315 607 l 1
 270 607 l 1
 270 628 l 1
 468 628 l 1
 468 607 l 1
 423 607 l 1xb0
 423 376 l 1
 430 373 l 1
 443 384 453 397 459 411 c 0
 466 425 476 454 491 499 c 0
 522 588 558 637 642 637 c 0
 669 637 676 634 689 626 c 1
 661 607 640 588 640 536 c 0
 640 528 640 522 641 517 c 1
 616 533 603 537 584 537 c 0
 572 537 562 534 553 527 c 0
 544 520 533 503 518 474 c 0
 490 418 464 381 439 360 c 1
 466 353 491 344 512 334 c 0
 556 314 610 264 645 196 c 0
 663 163 674 128 678 92 c 0
 683 56 687 35 690 29 c 0
 693 24 703 21 718 21 c 2
 725 21 l 1
 725 0 l 1
 517 0 l 1
 517 21 l 1
 556 21 558 22 558 51 c 0
 558 118 550 176 533 224 c 0
 517 273 482 311 429 340 c 1
 423 336 l 1
 423 21 l 1
 468 21 l 1
 468 0 l 1
 270 0 l 1xd0
EndSplineSet
Validated: 1
EndChar

StartChar: afii10028
Encoding: 1050 1050 28
Width: 556
Flags: W
HStem: 0 21<34 84 198 248 306 366.246 486.994 534> 328 23<198 277.63> 607 21<34 84 198 248 303 356.081 463.626 520>
VStem: 84 114<21 328 351 607> 357 106<416.992 606.93> 371 115<34.629 255.799>
AnchorPoint: "Yerik" 408 680 basechar 0
AnchorPoint: "Above" 280 680 basechar 0
LayerCount: 2
Fore
SplineSet
198 21 m 1xf4
 248 21 l 1
 248 0 l 1
 34 0 l 1
 34 21 l 1
 84 21 l 1
 84 607 l 1
 34 607 l 1
 34 628 l 1
 248 628 l 1
 248 607 l 1
 198 607 l 1
 198 351 l 1
 234 351 260 354 276 361 c 0
 293 368 308 380 323 397 c 0
 352 432 357 488 357 580 c 0
 357 605 356 607 329 607 c 2
 303 607 l 1
 303 628 l 1
 520 628 l 1
 520 607 l 1
 480 607 l 2
 469 606 463 601 463 592 c 0xf8
 463 498 454 436 436 406 c 0
 419 376 377 356 311 345 c 1
 311 336 l 1
 388 321 436 300 456 272 c 0
 476 244 486 174 486 62 c 0
 486 59 486 56 486 53 c 0
 486 22 487 21 508 21 c 2
 534 21 l 1
 534 0 l 1
 306 0 l 1
 306 21 l 1
 354 22 l 2
 361 24 366 28 367 34 c 0
 370 47 371 87 371 114 c 0
 371 197 359 254 336 283 c 0
 313 313 267 328 198 328 c 1
 198 21 l 1xf4
EndSplineSet
Validated: 1
EndChar

StartChar: afii10029
Encoding: 1051 1051 29
Width: 500
Flags: W
HStem: 0 21<19 72 172.561 199 248 303 417 468> 607 21<248 303 417 468>
VStem: 37 104<42.2552 179.828> 303 114<21 469 475.096 607>
AnchorPoint: "Yerik" 408 680 basechar 0
AnchorPoint: "Above" 353 680 basechar 0
LayerCount: 2
Fore
SplineSet
19 0 m 1
 19 21 l 1
 72 21 l 1
 52 48 37 70 37 107 c 0
 37 131 46 158 63 188 c 0
 81 219 115 262 165 318 c 0
 215 375 250 420 271 455 c 0
 292 490 303 529 303 570 c 2
 303 607 l 1
 248 607 l 1
 248 628 l 1
 468 628 l 1
 468 607 l 1
 417 607 l 1
 417 21 l 1
 468 21 l 1
 468 0 l 1
 248 0 l 1
 248 21 l 1
 303 21 l 1
 303 469 l 1
 298 469 l 1
 287 444 280 427 275 418 c 0
 266 401 245 361 196 264 c 0
 171 216 157 186 153 175 c 0
 146 154 141 135 141 114 c 0
 141 67 164 24 199 17 c 1
 199 0 l 1
 19 0 l 1
EndSplineSet
Validated: 1
EndChar

StartChar: afii10030
Encoding: 1052 1052 30
Width: 759
Flags: W
HStem: 0 21<22 67 188.174 213 246 289 408 450 513 563 677 725> 607 21<242 289 408 454 508 563 677 725>
VStem: 45 106<44.7133 198.995> 289 119<21 172.75 195 399.998 417.426 607> 563 114<21 430 500 607>
DStem2: 415 191 423 160 0.431972 0.901887<0 277.831>
AnchorPoint: "Yerik" 628 680 basechar 0
AnchorPoint: "Above" 475 680 basechar 0
LayerCount: 2
Fore
SplineSet
22 0 m 1
 22 21 l 1
 67 21 l 1
 52 56 45 74 45 118 c 0
 45 157 57 191 80 218 c 0
 104 245 139 282 186 327 c 0
 233 373 262 406 273 427 c 0
 284 448 289 473 289 503 c 2
 289 607 l 1
 242 607 l 1
 242 628 l 1
 454 628 l 1
 454 607 l 1
 408 607 l 1
 408 195 l 1
 415 191 l 1
 563 500 l 1
 563 607 l 1
 508 607 l 1
 508 628 l 1
 725 628 l 1
 725 607 l 1
 677 607 l 1
 677 21 l 1
 725 21 l 1
 725 0 l 1
 513 0 l 1
 513 21 l 1
 563 21 l 1
 563 430 l 1
 555 432 l 1
 423 160 l 1
 420 153 l 1
 412 136 l 2
 409 129 407 124 407 119 c 2
 408 90 l 1
 408 21 l 1
 450 21 l 1
 450 0 l 1
 246 0 l 1
 246 21 l 1
 289 21 l 1
 289 334 l 1
 289 354 l 1
 289 368 l 2
 289 397 288 400 281 400 c 0
 272 400 251 366 208 290 c 0
 167 214 151 159 151 115 c 0
 151 67 170 30 213 21 c 1
 213 0 l 1
 22 0 l 1
EndSplineSet
Validated: 1
EndChar

StartChar: afii10031
Encoding: 1053 1053 31
Width: 556
Flags: W
HStem: 0 21<31 86 200 255 300 355 469 525> 607 21<31 86 200 255 300 355 469 525>
VStem: 86 114<21 315 339 607> 355 114<21 272 297 607>
DStem2: 200 339 200 315 0.963607 -0.267323<6.41576 160.587>
AnchorPoint: "Yerik" 408 680 basechar 0
AnchorPoint: "Above" 277 680 basechar 0
LayerCount: 2
Fore
SplineSet
31 0 m 1
 31 21 l 1
 86 21 l 1
 86 607 l 1
 31 607 l 1
 31 628 l 1
 255 628 l 1
 255 607 l 1
 200 607 l 1
 200 339 l 1
 355 297 l 1
 355 607 l 1
 300 607 l 1
 300 628 l 1
 525 628 l 1
 525 607 l 1
 469 607 l 1
 469 21 l 1
 525 21 l 1
 525 0 l 1
 300 0 l 1
 300 21 l 1
 355 21 l 1
 355 272 l 1
 200 315 l 1
 200 21 l 1
 255 21 l 1
 255 0 l 1
 31 0 l 1
EndSplineSet
Validated: 1
EndChar

StartChar: afii10032
Encoding: 1054 1054 32
Width: 481
Flags: W
HStem: -12 21<181 232.473> 619 21<225.828 275>
VStem: 30 98<300.75 475.382> 168 40<21.6719 102.5> 266 25<555.801 617.519> 350 111<162.651 342.05>
AnchorPoint: "Yerik" 377 680 basechar 0
AnchorPoint: "Above" 279 680 basechar 0
LayerCount: 2
Fore
SplineSet
277 640 m 0
 292 640 294 636 294 628 c 2
 291 597 l 2
 291 574 301 551 352 487 c 0
 378 455 398 430 413 411 c 0
 442 374 461 325 461 265 c 0
 461 213 445 163 413 114 c 0
 381 66 345 35 305 21 c 0
 226 -7 188 -12 173 -12 c 0
 162 -12 157 -9 157 -3 c 2
 164 14 l 2
 167 20 168 26 168 32 c 0
 168 47 164 60 157 73 c 0
 150 86 131 114 100 159 c 0
 69 204 50 240 42 266 c 0
 34 293 30 321 30 352 c 0
 30 445 58 517 115 566 c 0
 172 615 226 640 277 640 c 0
152 293 m 2
 196 161 l 2
 201 144 208 115 208 90 c 0
 208 57 202 46 181 9 c 1
 224 9 263 28 298 67 c 0
 333 106 350 156 350 216 c 0
 350 254 346 287 337 315 c 0
 328 343 316 379 300 424 c 0
 285 469 275 499 271 516 c 0
 268 533 266 548 266 562 c 0
 266 581 267 587 275 619 c 1
 237 619 203 602 173 569 c 0
 143 536 128 490 128 431 c 0
 128 396 131 358 152 293 c 2
EndSplineSet
Validated: 1
EndChar

StartChar: afii10033
Encoding: 1055 1055 33
Width: 556
Flags: W
HStem: 0 21<31 86 200 255 300 355 469 525> 607 21<31 86 200 355 469 525>
VStem: 86 114<21 607> 355 114<21 607>
AnchorPoint: "Yerik" 418 680 basechar 0
AnchorPoint: "Above" 287 680 basechar 0
LayerCount: 2
Fore
SplineSet
31 0 m 1
 31 21 l 1
 86 21 l 1
 86 607 l 1
 31 607 l 1
 31 628 l 1
 525 628 l 1
 525 607 l 1
 469 607 l 1
 469 21 l 1
 525 21 l 1
 525 0 l 1
 300 0 l 1
 300 21 l 1
 355 21 l 1
 355 607 l 1
 200 607 l 1
 200 21 l 1
 255 21 l 1
 255 0 l 1
 31 0 l 1
EndSplineSet
Validated: 1
EndChar

StartChar: afii10044
Encoding: 1066 1066 34
Width: 515
Flags: W
HStem: 0 20<183 346 457.659 495> 244 22<379 427> 462 21G<77 82.5> 606 22<145.545 254 374 420>
DStem2: 57 0 183 20 0.309157 0.951011<57.974 637.217> 379 244 271 247 0.313717 -0.949517<0 202.339>
AnchorPoint: "Yerik" 408 680 basechar 0
AnchorPoint: "Above" 300 680 basechar 0
LayerCount: 2
Fore
SplineSet
495 0 m 1
 57 0 l 1
 254 606 l 1
 205 606 l 2
 174 606 153 602 143 593 c 0
 133 585 123 567 113 538 c 0
 93 481 86 462 79 462 c 0
 75 462 72 468 69 481 c 0
 63 530 51 579 34 628 c 1
 420 628 l 1
 420 607 l 1
 374 607 l 1
 183 20 l 1
 346 20 l 1
 271 247 l 1
 278 266 l 1
 427 266 l 1
 427 244 l 1
 379 244 l 1
 437 70 l 2
 453 23 463 21 495 21 c 1
 495 0 l 1
EndSplineSet
Validated: 1
EndChar

StartChar: afii10034
Encoding: 1056 1056 35
Width: 519
Flags: W
HStem: 0 21<27 78 193 241> 351 51<304.542 406.5> 611 26<245.01 354.753>
VStem: 78 115<21 299.156 320.002 545.253> 401 100<417.478 569.801>
DStem2: 214 332 233 322 0.620964 0.783839<-19.254 55.1843> 284 415 283 379 0.975133 -0.221621<-5.14299 62.0011>
AnchorPoint: "Yerik" 438 680 basechar 0
AnchorPoint: "Above" 319 680 basechar 0
LayerCount: 2
Fore
SplineSet
27 0 m 1
 27 21 l 1
 78 21 l 1
 78 436 l 2
 78 477 78 502 79 510 c 0
 80 518 85 530 95 546 c 0
 105 562 135 581 186 603 c 0
 237 626 286 637 334 637 c 0
 379 637 418 625 451 600 c 0
 484 575 501 537 501 486 c 0
 501 451 491 420 471 392 c 0
 451 365 424 351 389 351 c 0
 357 351 323 366 299 375 c 2
 283 379 l 2
 279 377 277 375 276 374 c 2
 265 362 l 1
 233 322 l 1
 206 288 l 2
 200 281 196 272 195 263 c 0
 194 254 193 234 193 203 c 2
 193 21 l 1
 241 21 l 1
 241 0 l 1
 27 0 l 1
193 483 m 2
 193 329 l 2
 194 323 196 320 198 320 c 0
 201 320 203 321 214 332 c 2
 241 366 l 1
 275 409 l 2
 278 413 281 415 284 415 c 2
 306 410 l 2
 333 403 337 402 345 402 c 0
 367 402 382 413 389 436 c 0
 397 459 401 481 401 502 c 0
 401 543 391 572 371 587 c 0
 351 603 330 611 308 611 c 0
 261 611 217 588 205 572 c 0
 199 565 195 556 194 547 c 0
 193 538 193 516 193 483 c 2
EndSplineSet
Validated: 1
EndChar

StartChar: afii10035
Encoding: 1057 1057 36
Width: 499
Flags: W
HStem: -12 19<195 252.453> 248 22<307 349 453 493> 411 21<293 336 441.954 482> 611 25<211.591 271.768>
VStem: 26 110<251.873 465.039> 175 20<8.33333 64.3877> 349 104<134.033 248>
AnchorPoint: "Yerik" 408 680 basechar 0
AnchorPoint: "Above" 239 680 basechar 0
LayerCount: 2
Fore
SplineSet
482 411 m 1
 293 411 l 1
 293 432 l 1
 336 432 l 1
 334 554 276 611 241 611 c 0
 218 611 194 588 171 541 c 0
 148 494 136 436 136 367 c 0
 136 299 149 247 170 176 c 0
 191 105 197 74 197 45 c 2
 195 9 l 1
 216 7 l 2
 256 7 302 44 325 100 c 0
 337 129 344 153 346 172 c 0
 348 192 349 217 349 248 c 1
 307 248 l 1
 307 270 l 1
 493 270 l 1
 493 248 l 1
 453 248 l 1
 453 168 425 84 350 36 c 0
 313 13 284 -1 262 -5 c 0
 240 -10 217 -12 194 -12 c 2
 170 -12 l 1
 173 -3 175 4 175 17 c 0
 175 38 170 58 159 77 c 0
 148 96 128 126 99 167 c 0
 70 208 50 243 40 270 c 0
 31 297 26 324 26 351 c 0
 26 422 49 487 95 546 c 0
 142 606 191 636 243 636 c 0
 298 636 353 598 388 554 c 0
 424 510 433 480 444 432 c 1
 482 432 l 1
 482 411 l 1
EndSplineSet
Validated: 1
EndChar

StartChar: afii10036
Encoding: 1058 1058 37
Width: 611
Flags: W
HStem: 0 21<187 246 360 419> 607 21<177 246 360 436> 617 20G<28.5 54>
VStem: 246 114<21 607>
AnchorPoint: "Yerik" 498 680 basechar 0
AnchorPoint: "Above" 308 680 basechar 0
LayerCount: 2
Fore
SplineSet
177 607 m 1xd0
 129 482 l 1
 121 458 l 2
 116 443 114 440 105 440 c 0
 102 440 99 442 97 445 c 0
 96 449 93 463 90 486 c 0
 87 510 81 531 73 548 c 0
 65 566 56 581 45 594 c 0
 24 619 22 621 22 628 c 0xd0
 22 634 25 637 32 637 c 2xb0
 54 634 l 2
 83 631 120 628 140 628 c 2
 481 628 l 1
 510 628 l 2
 530 628 557 630 564 630 c 2
 582 632 l 2
 585 632 587 631 588 629 c 0
 588 628 588 627 589 626 c 0
 589 621 586 616 566 585 c 0
 556 570 545 549 532 524 c 0
 520 499 514 475 514 451 c 0
 514 442 511 437 505 437 c 0
 497 437 492 449 481 481 c 2
 436 607 l 1
 360 607 l 1
 360 21 l 1
 419 21 l 1
 419 0 l 1
 187 0 l 1
 187 21 l 1
 246 21 l 1
 246 607 l 1
 177 607 l 1xd0
EndSplineSet
Validated: 1
EndChar

StartChar: uniA64A
Encoding: 42570 42570 38
Width: 528
Flags: W
HStem: -14 18<230.662 373.951> 56 21<222 272.711 337.001 385> 145 20<222.482 288 316 378.859> 224 24<234 292> 498 144<421.205 484.275> 608 20G<50 197.5>
VStem: 125 107<248 475.364> 147 19<43.5565 102.307> 288 28<93.8368 145 165 224> 436 20<45.0808 105.576>
AnchorPoint: "Yerik" 408 680 basechar 0
AnchorPoint: "Above" 289 680 basechar 0
LayerCount: 2
Fore
SplineSet
292 224 m 1xf9c0
 125 224 l 1
 125 338 119 417 108 460 c 0
 97 504 78 560 50 628 c 1
 182 628 l 1
 213 513 232 393 232 282 c 1xf6c0
 234 248 l 1
 294 248 l 1
 302 335 311 403 320 451 c 0
 330 499 346 537 367 566 c 0
 410 625 450 642 499 642 c 0
 505 642 508 640 508 636 c 0
 508 633 506 628 503 623 c 0
 498 618 485 584 485 559 c 0
 485 543 490 518 499 501 c 2
 502 491 l 2
 502 488 499 486 493 483 c 0
 479 485 456 498 439 498 c 0
 437 498 436 498 434 498 c 0
 387 498 356 463 343 406 c 0
 337 377 331 338 324 287 c 0
 318 236 315 196 315 165 c 1
 408 165 456 130 456 73 c 0
 456 21 400 -14 301 -14 c 0
 201 -14 147 16 147 73 c 0
 147 96 157 117 177 136 c 0
 197 155 234 165 288 165 c 1
 292 224 l 1xf9c0
385 56 m 1
 222 56 l 1
 222 77 l 1
 250 77 267 80 273 87 c 0
 280 94 285 114 288 145 c 1
 204 145 166 109 166 73 c 0xf1c0
 166 49 180 31 208 20 c 0
 237 9 268 4 301 4 c 0
 382 4 436 30 436 74 c 0
 436 99 423 117 398 128 c 0
 373 139 346 145 316 145 c 1
 316 90 337 78 385 78 c 1
 385 56 l 1
EndSplineSet
Validated: 1
EndChar

StartChar: afii10019
Encoding: 1042 1042 39
Width: 519
Flags: W
HStem: 0 21<29 79 206.384 342 446 489> 435 37<298.191 381.5> 614 23<235.259 333.063>
VStem: 79 115<27.1934 309 351 546.573> 342 104<21 211.49> 374 84<482.174 587.605>
DStem2: 200 350 207 328 0.525908 0.850542<0 139.18>
AnchorPoint: "Yerik" 408 680 basechar 0
AnchorPoint: "Above" 289 680 basechar 0
LayerCount: 2
Fore
SplineSet
29 0 m 1xf8
 29 21 l 1
 79 21 l 1
 79 411 l 2
 79 451 81 482 84 503 c 0
 88 525 99 548 117 571 c 0
 153 619 225 637 293 637 c 0
 394 637 458 602 458 530 c 0xf4
 458 509 450 487 435 466 c 0
 420 445 397 435 366 435 c 0
 335 435 323 438 288 459 c 1
 207 328 l 1
 283 268 347 225 446 208 c 1
 446 21 l 1
 489 21 l 1
 489 0 l 1
 29 0 l 1xf8
194 351 m 1
 200 350 l 1
 277 482 l 1
 289 477 303 472 318 472 c 0
 357 472 374 499 374 535 c 0
 374 576 342 614 285 614 c 0
 245 614 220 600 209 573 c 0
 199 546 194 510 194 465 c 2
 194 351 l 1
342 21 m 1xf8
 342 219 l 1
 297 240 245 269 198 312 c 1
 194 309 l 1
 194 63 l 2
 194 43 198 31 206 27 c 0
 214 23 234 21 265 21 c 2
 342 21 l 1xf8
EndSplineSet
Validated: 1
EndChar

StartChar: afii10042
Encoding: 1064 1064 40
Width: 796
Flags: W
HStem: 0 21<36 85 199 343 457 601 714 763> 607 21<36 85 199 250 292 343 457 508 550 601 714 763>
VStem: 85 114<21 607> 343 114<21 607> 601 113<21 607>
AnchorPoint: "Yerik" 658 680 basechar 0
AnchorPoint: "Above" 397 680 basechar 0
LayerCount: 2
Fore
SplineSet
36 0 m 1
 36 21 l 1
 85 21 l 1
 85 607 l 1
 36 607 l 1
 36 628 l 1
 250 628 l 1
 250 607 l 1
 199 607 l 1
 199 21 l 1
 343 21 l 1
 343 607 l 1
 292 607 l 1
 292 628 l 1
 508 628 l 1
 508 607 l 1
 457 607 l 1
 457 21 l 1
 601 21 l 1
 601 607 l 1
 550 607 l 1
 550 628 l 1
 763 628 l 1
 763 607 l 1
 714 607 l 1
 714 21 l 1
 763 21 l 1
 763 0 l 1
 36 0 l 1
EndSplineSet
Validated: 1
EndChar

StartChar: afii10045
Encoding: 1067 1067 41
Width: 741
Flags: W
HStem: 0 21<20 75 189 333 497 552 666 721> 607 21<20 75 189 244 497 552 666 721>
VStem: 75 114<21 377 394.664 607> 333 108<21.7969 319.25> 552 114<21 607>
AnchorPoint: "Yerik" 608 680 basechar 0
AnchorPoint: "Above" 379 680 basechar 0
LayerCount: 2
Fore
SplineSet
189 21 m 1
 333 21 l 1
 333 244 l 1
 333 264 l 2
 333 268 333 272 333 275 c 0
 333 302 332 313 318 317 c 2
 300 323 l 2
 259 338 225 357 193 382 c 1
 189 377 l 1
 189 21 l 1
666 21 m 1
 721 21 l 1
 721 0 l 1
 497 0 l 1
 497 21 l 1
 552 21 l 1
 552 607 l 1
 497 607 l 1
 497 628 l 1
 721 628 l 1
 721 607 l 1
 666 607 l 1
 666 21 l 1
189 607 m 1
 189 409 l 1
 268 344 351 329 443 329 c 1
 443 311 442 287 441 256 c 0
 440 225 440 209 440 208 c 0
 440 131 440 81 441 60 c 0
 442 39 446 19 451 0 c 1
 20 0 l 1
 20 21 l 1
 75 21 l 1
 75 607 l 1
 20 607 l 1
 20 628 l 1
 244 628 l 1
 244 607 l 1
 189 607 l 1
EndSplineSet
Validated: 1
EndChar

StartChar: afii10025
Encoding: 1047 1047 42
Width: 601
Flags: W
HStem: -14 34<261.193 387.995> 51 46<68.5 152.992> 319 29<315.619 385.03> 603 34<229.33 355.31>
VStem: 19 118<-21.6535 28> 90 27<448.434 504.3> 425 105<404.016 537.847> 457 114<86.7632 256.832>
AnchorPoint: "Yerik" 468 680 basechar 0
AnchorPoint: "Above" 333 680 basechar 0
LayerCount: 2
Fore
SplineSet
255 251 m 1xf9
 166 328 l 1
 252 407 l 1
 291 368 315 348 346 348 c 0
 386 348 425 391 425 455 c 0
 425 495 413 530 388 559 c 0
 364 588 329 603 284 603 c 0
 233 603 194 588 169 558 c 0
 144 528 126 501 117 478 c 0
 108 455 102 443 98 443 c 0
 91 443 90 449 90 474 c 2
 89 591 l 2
 89 635 89 637 100 637 c 0
 104 635 107 633 108 630 c 2
 123 609 l 2
 134 592 140 586 152 586 c 0
 161 589 175 596 192 605 c 0
 227 624 287 637 335 637 c 0
 400 637 448 620 481 587 c 0
 514 554 530 517 530 477 c 0xf6
 530 438 518 409 494 390 c 0
 471 371 442 355 408 342 c 1
 408 334 l 1
 513 315 571 266 571 174 c 0
 571 117 551 72 511 37 c 0
 471 3 423 -14 368 -14 c 0
 331 -14 299 -10 272 -1 c 0
 245 8 219 18 194 31 c 0
 169 44 154 51 147 51 c 0
 135 51 133 45 132 38 c 2
 134 28 l 1
 137 12 l 1
 137 -13 117 -37 84 -37 c 0
 49 -37 19 -12 19 27 c 0
 19 63 48 97 89 97 c 0
 99 97 109 95 119 92 c 0
 130 89 150 80 179 65 c 0
 239 36 286 20 322 20 c 0
 413 20 457 93 457 189 c 0
 457 237 447 271 427 290 c 0
 407 309 386 319 363 319 c 0
 331 319 307 306 255 251 c 1xf9
EndSplineSet
Validated: 1
EndChar

StartChar: afii10094
Encoding: 1100 1100 43
Width: 463
Flags: W
HStem: 0 21<172 310.978> 431 20G<90.5 202> 431 20G<90.5 202>
VStem: 63 109<21 72.4641> 94 108<343 451>
DStem2: 73 230 187 328 0.114197 0.993458<-1.8523 221.952>
AnchorPoint: "Yerik" 367 623 basechar 0
AnchorPoint: "Above" 257 623 basechar 0
LayerCount: 2
Fore
SplineSet
94 451 m 1xc8
 202 451 l 1xc8
 198 425 193 384 187 328 c 0
 182 273 179 235 179 215 c 1
 250 246 l 2
 258 249 271 255 288 262 c 0
 305 269 316 273 319 273 c 0
 325 273 332 266 339 253 c 0
 347 240 363 204 388 146 c 0
 413 88 432 42 445 7 c 1
 441 0 l 1
 63 0 l 1xd0
 63 58 66 135 73 230 c 0
 80 326 87 400 94 451 c 1xc8
210 204 m 2
 194 196 l 2
 183 191 177 183 177 173 c 0
 177 140 176 107 174 74 c 0
 173 41 172 23 172 21 c 2x90
 264 21 l 2
 311 21 311 22 311 34 c 2
 307 51 l 1
 289 97 l 2
 284 112 277 129 268 148 c 0
 260 168 255 181 252 187 c 0
 247 199 241 211 230 211 c 0
 223 211 217 207 210 204 c 2
EndSplineSet
Validated: 1
EndChar

StartChar: uni0486
Encoding: 1158 1158 44
Width: 1
Flags: W
HStem: 715 67<-256.851 -176.11>
VStem: -166 56<625.3 705.395>
AnchorPoint: "Stack" -226 852 basemark 0
AnchorPoint: "Stack" -204 573 mark 0
AnchorPoint: "Above" -203 570 mark 0
LayerCount: 2
Fore
SplineSet
-196 782 m 0
 -147 782 -110 748 -110 703 c 0
 -110 672 -120 642 -139 613 c 0
 -158 584 -174 570 -187 570 c 0
 -194 570 -197 573 -197 580 c 0
 -197 584 -195 589 -187 601 c 0
 -179 613 -166 641 -166 665 c 0
 -166 697 -194 715 -218 715 c 0
 -220 715 -221 715 -223 715 c 0
 -265 715 -287 669 -300 669 c 0
 -308 669 -312 673 -312 681 c 0
 -312 700 -299 722 -274 746 c 0
 -249 770 -223 782 -196 782 c 0
EndSplineSet
Validated: 1
EndChar

StartChar: afii10065
Encoding: 1072 1072 45
Width: 370
Flags: W
HStem: -6 82<65.524 130.653> 431 20G<182 282> 431 20G<182 282>
VStem: 26 56<32 121.79> 184 98<315.856 451>
DStem2: 43 113 86 133 0.506135 0.862454<15.7912 241.924> 300 225 202 197 0.141421 -0.989949<-98.1464 51.6807 72.0436 213.263>
AnchorPoint: "Yerik" 232 625 basechar 0
AnchorPoint: "Above" 233 623 basechar 0
LayerCount: 2
Fore
SplineSet
340 -1 m 1xd8
 226 -1 l 1
 216 71 l 1
 209 118 l 2
 208 127 208 138 200 138 c 0
 195 138 189 130 184 114 c 0
 179 98 158 55 141 30 c 0
 129 7 105 -6 81 -6 c 0
 48 -6 26 12 26 52 c 0
 26 72 32 92 43 113 c 0
 54 134 75 169 106 220 c 0
 137 271 158 307 168 326 c 0
 179 345 184 371 184 402 c 2
 182 451 l 1
 282 451 l 1
 282 401 288 326 300 225 c 0
 313 124 326 49 340 -1 c 1xd8
194 309 m 1
 187 309 l 1
 135 216 l 1
 110 175 l 2
 97 154 89 140 86 133 c 0
 83 126 82 117 82 108 c 0
 82 87 92 76 111 76 c 0
 127 76 143 83 160 114 c 2
 181 150 l 1
 186 157 l 2
 201 180 202 182 202 197 c 2
 194 309 l 1
EndSplineSet
Validated: 1
EndChar

StartChar: afii10066
Encoding: 1073 1073 46
Width: 481
Flags: W
HStem: 0 20<166 322> 429 22<185.076 315.67>
VStem: 61 105<20 150.333> 82 100<300.667 428.505>
DStem2: 173 187 172 159 0.950687 0.310153<0 60.5087>
AnchorPoint: "Yerik" 367 623 basechar 0
AnchorPoint: "Above" 257 623 basechar 0
LayerCount: 2
Fore
SplineSet
61 0 m 1xe0
 82 451 l 1
 417 451 l 2
 424 451 427 449 427 444 c 2
 423 431 l 1
 409 405 399 382 392 361 c 0
 381 322 380 321 374 321 c 0
 374 321 373 321 373 321 c 0
 372 321 372 321 372 321 c 0
 368 321 367 323 355 352 c 0
 343 385 325 420 316 427 c 0
 309 428 299 429 276 429 c 2
 265 429 l 1
 221 429 l 2
 204 429 194 428 191 426 c 0
 184 422 182 416 182 361 c 2xd0
 173 187 l 1
 314 233 l 1
 337 201 358 168 377 135 c 0
 396 102 416 57 437 0 c 1
 61 0 l 1xe0
172 159 m 1
 166 20 l 1xe0
 322 20 l 1
 301 72 276 121 235 180 c 1
 172 159 l 1
EndSplineSet
Validated: 1
EndChar

StartChar: afii10088
Encoding: 1094 1094 47
Width: 556
Flags: W
HStem: -249 21G<467 479> 0 18<188.959 315.865> 431 20G<74 187 328 443> 431 20G<74 187 328 443>
VStem: 67 107<22.6816 449.447> 320 105<19.6166 378.622> 446 91<-101.139 -8.24389>
AnchorPoint: "Yerik" 397 623 basechar 0
AnchorPoint: "Above" 257 623 basechar 0
LayerCount: 2
Fore
SplineSet
74 451 m 2xee
 187 451 l 1
 183 418 180 377 178 328 c 0
 177 279 175 234 174 193 c 0
 174 98 178 41 186 30 c 0
 194 21 200 18 231 18 c 2
 290 18 l 2
 318 18 320 24 320 64 c 2
 320 81 l 1
 320 98 l 1
 320 113 l 1
 320 127 l 1
 320 139 l 2
 320 167 319 194 319 219 c 0
 319 270 320 311 321 343 c 0
 323 375 326 411 330 451 c 1
 443 451 l 1
 428 343 426 223 426 112 c 0
 426 90 425 73 425 60 c 0
 425 22 431 18 475 18 c 2
 512 18 l 2
 523 18 537 16 537 1 c 0
 537 -3 532 -26 523 -68 c 0
 514 -110 507 -141 502 -162 c 2
 487 -241 l 2
 484 -246 481 -249 477 -249 c 0
 457 -249 446 -175 446 -60 c 0
 446 -31 444 -13 439 -8 c 0
 434 -3 418 0 390 0 c 2
 116 0 l 2
 76 0 67 2 67 33 c 0
 67 126 68 218 70 310 c 0
 73 402 74 449 74 451 c 2xee
EndSplineSet
Validated: 1
EndChar

StartChar: afii10069
Encoding: 1076 1076 48
Width: 500
Flags: W
HStem: 0 21<139 275> 431 20G<198 311> 431 20G<198 311>
VStem: 198 113<388 451>
DStem2: 122 61 136 21 0.366014 0.930609<-31.9772 214.149> 338 222 234 204 0.216481 -0.976287<-52.9912 182.135>
AnchorPoint: "Yerik" 387 623 basechar 0
AnchorPoint: "Above" 257 623 basechar 0
LayerCount: 2
Fore
SplineSet
355 0 m 1xd0
 139 0 l 1
 117 -124 l 1
 113 -149 l 2
 108 -177 108 -182 100 -182 c 0
 95 -182 92 -178 90 -169 c 2
 84 -149 l 2
 70 -102 59 -68 51 -46 c 0
 44 -24 34 -2 21 21 c 1
 102 23 l 2
 110 26 109 25 122 61 c 0
 129 79 136 98 143 118 c 0
 150 139 166 177 189 234 c 2
 216 300 l 1
 204 388 l 1
 198 451 l 1
 311 451 l 1
 311 396 320 320 338 222 c 0
 356 125 368 68 375 51 c 0
 382 34 389 25 396 23 c 0
 404 22 429 21 470 21 c 1
 456 -10 l 1
 407 -124 l 1
 391 -160 l 2
 385 -175 380 -182 376 -182 c 0
 368 -182 364 -168 364 -139 c 2
 355 0 l 1xd0
136 21 m 1
 275 21 l 1
 260 85 l 1
 253 115 l 1
 245 151 l 1
 234 204 l 1
 224 251 l 1
 187 158 l 1
 136 21 l 1
EndSplineSet
Validated: 1
EndChar

StartChar: afii10070
Encoding: 1077 1077 49
Width: 315
Flags: W
HStem: -3 21G<62 117> 442 20G<246.5 265>
VStem: 62 89<78 172 259 362.365>
AnchorPoint: "Yerik" 227 623 basechar 0
AnchorPoint: "Above" 167 623 basechar 0
LayerCount: 2
Fore
SplineSet
62 -1 m 1
 62 265 l 2
 62 374 74 418 121 438 c 0
 144 449 165 455 182 458 c 0
 200 461 228 462 265 462 c 1
 265 399 l 2
 264 393 251 388 224 385 c 0
 171 380 150 350 150 287 c 2
 150 259 l 1
 255 299 l 1
 255 237 l 2
 255 213 251 208 216 195 c 2
 151 172 l 1
 151 78 l 1
 199 102 l 1
 207 106 l 2
 218 111 224 114 227 114 c 0
 234 114 238 109 238 100 c 0
 238 83 225 61 199 35 c 0
 174 10 139 -3 95 -3 c 2
 62 -1 l 1
EndSplineSet
Validated: 1
EndChar

StartChar: afii10086
Encoding: 1092 1092 50
Width: 704
Flags: W
HStem: -233 31<235.073 283.388 421.493 469.842> -12 56<160.981 253.866 450.105 542.981> 554 36<236.203 296.408> 579 28<433 469.967>
VStem: 27 103<75.1799 201.542> 290 125<-183.665 -25.6364> 297 111<410.918 553.512> 313 78<67.519 410.813> 575 102<75.0189 202.854>
AnchorPoint: "Yerik" 587 623 basechar 0
AnchorPoint: "Above" 347 723 basechar 0
LayerCount: 2
Fore
SplineSet
292 590 m 2xea80
 417 604 l 1
 433 605 l 1
 455 607 l 2
 465 607 470 602 470 592 c 0
 470 585 468 581 464 579 c 0
 460 578 450 576 433 573 c 0
 416 570 408 564 408 553 c 0xda80
 408 482 415 436 428 413 c 0
 442 391 478 358 537 315 c 0
 596 272 634 238 651 212 c 0
 668 187 677 159 677 128 c 0
 677 90 664 57 638 29 c 0
 613 2 578 -12 535 -12 c 0
 509 -12 487 -8 470 0 c 0
 453 7 431 20 404 38 c 1
 415 -137 l 2
 415 -161 417 -177 420 -184 c 0
 424 -192 433 -198 448 -202 c 0
 463 -206 470 -212 470 -219 c 0
 470 -231 462 -233 422 -233 c 2
 278 -233 l 1
 251 -233 l 2
 240 -232 235 -227 235 -219 c 0
 235 -208 241 -207 262 -200 c 0
 285 -195 290 -185 290 -137 c 2xdc80
 301 38 l 1
 254 6 220 -12 169 -12 c 0
 82 -12 27 49 27 128 c 0
 27 185 63 239 135 292 c 2
 200 339 l 2
 244 372 271 399 281 422 c 0
 292 445 297 477 297 517 c 0
 297 548 295 554 282 554 c 2
 269 554 l 2
 241 554 236 556 236 568 c 0
 236 584 241 585 292 590 c 2xea80
313 159 m 2xc980
 317 334 l 1
 319 399 l 2
 319 406 313 410 312 411 c 0
 307 411 291 374 252 326 c 0
 233 302 213 278 191 253 c 0
 148 204 130 177 130 137 c 0
 130 104 141 80 162 65 c 0
 183 51 206 44 231 44 c 0
 298 44 313 87 313 159 c 2xc980
386 402 m 2
 391 159 l 2
 391 112 398 81 412 66 c 0
 426 51 447 44 474 44 c 0
 499 44 522 51 543 66 c 0
 564 81 575 104 575 136 c 0
 575 157 571 175 562 190 c 0
 553 205 537 226 513 253 c 0
 489 280 467 306 448 331 c 0
 393 408 402 405 392 411 c 1
 388 407 386 404 386 402 c 2
EndSplineSet
Validated: 1
EndChar

StartChar: afii10068
Encoding: 1075 1075 51
Width: 389
Flags: W
HStem: 0 21G<60.5 176> 427 24<167.547 250.859>
VStem: 52 105<3.70093 425.641> 65 111<0 111>
AnchorPoint: "Yerik" 303 623 basechar 0
AnchorPoint: "Above" 197 623 basechar 0
LayerCount: 2
Fore
SplineSet
176 0 m 1xd0
 65 0 l 1xd0
 56 71 52 159 52 239 c 0
 52 289 53 326 54 349 c 0
 55 372 58 406 62 451 c 1
 297 451 l 1
 353 451 l 2
 364 451 369 449 369 444 c 2
 357 417 l 2
 342 388 332 348 332 324 c 0
 332 313 330 308 325 308 c 0
 309 308 293 336 272 383 c 0
 261 406 254 419 251 422 c 0
 248 425 244 427 238 427 c 2
 169 427 l 1
 165 398 162 370 160 345 c 0
 158 320 157 281 157 229 c 0xe0
 157 155 163 79 176 0 c 1xd0
EndSplineSet
Validated: 1
EndChar

StartChar: afii10087
Encoding: 1093 1093 52
Width: 426
Flags: W
HStem: 373 93<270.769 339.469> 431 20G<69.5 149> 431 20G<69.5 149>
VStem: 21 78<-232.821 -163>
DStem2: 162 427 64 394 0.376844 -0.926277<-34.8019 23.3928 132.828 228.178 278.323 625.197>
AnchorPoint: "Yerik" 327 623 basechar 0
AnchorPoint: "Above" 207 623 basechar 0
LayerCount: 2
Fore
SplineSet
153 177 m 1x90
 75 368 l 1
 70 379 l 1
 64 394 l 2
 56 415 50 432 50 437 c 0
 50 448 52 451 87 451 c 2
 122 451 l 1
 139 451 l 2
 141 451 143 451 145 451 c 0x50
 153 451 155 449 162 427 c 2
 170 405 l 1
 202 309 l 1
 210 309 l 1
 216 356 229 393 248 422 c 0
 267 451 307 466 367 466 c 0
 380 466 386 462 386 455 c 0
 386 453 383 447 377 438 c 0
 365 421 353 412 353 405 c 2
 359 354 l 2
 358 347 356 343 353 343 c 0
 351 344 305 373 290 373 c 0
 289 373 289 373 288 373 c 0
 255 373 235 329 222 278 c 1
 392 -135 l 1
 394 -141 l 1
 401 -157 l 2
 406 -170 408 -177 408 -180 c 0
 408 -189 402 -191 362 -191 c 2
 302 -191 l 1
 173 131 l 1
 103 -163 l 1
 99 -183 l 2
 90 -220 90 -237 55 -237 c 0
 40 -237 21 -233 21 -213 c 0
 21 -198 30 -179 35 -162 c 2
 153 177 l 1x90
EndSplineSet
Validated: 1
EndChar

StartChar: afii10074
Encoding: 1080 1080 53
Width: 500
Flags: W
HStem: 0 21G<68 173 325 433> 431 20G<81 188 329 432> 431 20G<81 188 329 432>
VStem: 68 105<0 239 264 447.585> 317 106<1.77393 307>
DStem2: 173 264 173 239 0.909738 0.415183<0 152.494>
AnchorPoint: "Yerik" 367 623 basechar 0
AnchorPoint: "Above" 257 623 basechar 0
LayerCount: 2
Fore
SplineSet
173 0 m 1xd8
 68 0 l 1
 69 235 l 2
 69 315 73 378 89 451 c 1
 188 451 l 1
 182 402 178 368 176 349 c 0
 174 330 173 301 173 264 c 1
 322 332 l 1
 322 338 323 354 325 381 c 0xd4
 328 408 329 432 329 451 c 1
 432 451 l 1
 429 421 426 383 425 337 c 0
 424 292 423 249 423 208 c 0xd8
 423 143 423 102 424 84 c 0
 425 66 428 38 433 0 c 1
 325 0 l 1xd4
 325 21 324 50 321 88 c 0
 318 126 317 153 317 169 c 2
 321 307 l 1
 173 239 l 1
 173 225 173 196 172 153 c 0
 171 110 171 81 171 67 c 2
 173 0 l 1xd8
EndSplineSet
Validated: 1
EndChar

StartChar: afii10072
Encoding: 1078 1078 54
Width: 741
Flags: W
HStem: 0 21G<30 133 307 422 584 712> 386 73<98.5 198.826> 405 65<526.5 651.758> 431 20G<307 420> 431 20G<307 420>
VStem: 30 103<0 83.0965> 38 109<267.274 385.305> 311 106<2.15042 223.989 355 451> 589 123<0 123>
AnchorPoint: "Yerik" 557 623 basechar 0
AnchorPoint: "Above" 358 623 basechar 0
LayerCount: 2
Fore
SplineSet
133 0 m 1xa580
 30 0 l 1xa580
 33 27 39 52 47 75 c 0
 55 98 73 126 102 159 c 0
 161 227 224 260 308 296 c 1
 287 317 264 337 238 356 c 0
 213 376 192 386 176 386 c 0
 152 386 147 369 147 348 c 0
 147 321 151 303 159 271 c 1
 60 242 l 1
 49 278 38 333 38 370 c 0
 38 385 41 404 47 426 c 0
 54 448 78 459 119 459 c 0
 186 459 240 415 307 352 c 1
 312 355 l 1
 312 373 l 1
 312 386 l 2xc380
 312 406 310 428 307 451 c 1
 420 451 l 1x9380
 420 422 416 382 416 354 c 1
 425 352 l 1
 494 433 562 470 638 470 c 0
 669 470 674 470 674 458 c 2
 669 437 l 2
 666 429 662 415 657 395 c 0
 646 355 646 331 633 331 c 0
 624 331 610 349 591 372 c 0
 572 396 557 405 540 405 c 0
 513 405 470 370 425 315 c 1
 462 303 497 288 531 270 c 0
 565 252 600 221 635 176 c 0
 671 131 697 73 712 0 c 1
 589 0 l 1
 579 64 558 117 526 160 c 0
 494 203 463 224 434 224 c 0
 421 224 417 209 417 190 c 0
 417 166 417 144 417 122 c 0
 417 84 418 46 422 0 c 1
 307 0 l 1
 310 25 311 74 311 122 c 2
 311 142 l 1
 311 159 l 1
 311 174 l 1
 311 186 l 2
 311 213 310 238 310 262 c 1
 201 217 133 127 133 0 c 1xa580
EndSplineSet
Validated: 1
EndChar

StartChar: afii10076
Encoding: 1082 1082 55
Width: 537
Flags: W
HStem: 0 21G<66 172 391 504> 377 110<358.5 471.5> 431 20G<73.5628 181> 431 20G<73.5628 181>
VStem: 66 106<0 347.857> 74 105<274.143 451> 383 121<0 80.0466>
AnchorPoint: "Yerik" 397 623 basechar 0
AnchorPoint: "Above" 257 623 basechar 0
LayerCount: 2
Fore
SplineSet
172 0 m 1xaa
 66 0 l 1xaa
 66 18 66 52 67 103 c 0
 68 154 69 209 70 268 c 2
 74 451 l 1
 181 451 l 1
 179 397 l 1xa6
 172 225 l 2
 172 210 172 190 171 165 c 0
 170 140 170 123 170 113 c 2
 172 0 l 1xaa
504 0 m 1
 395 0 l 2
 387 1 383 4 383 9 c 2
 385 39 l 2
 385 93 373 131 349 154 c 0
 326 177 303 192 281 199 c 0
 237 215 229 216 229 227 c 0
 229 243 237 267 252 298 c 0
 268 330 286 360 306 389 c 0
 347 446 387 487 463 487 c 0
 480 487 489 483 489 476 c 0
 488 465 450 435 450 408 c 0
 450 406 451 404 451 402 c 0
 451 391 453 380 457 371 c 2
 459 361 l 2
 459 356 457 354 452 354 c 2
 435 361 l 2
 414 372 393 377 372 377 c 0xc2
 345 377 321 363 302 334 c 0
 283 305 266 276 252 247 c 1
 261 244 l 1
 318 244 368 228 409 197 c 0
 451 166 483 100 504 0 c 1
EndSplineSet
Validated: 1
EndChar

StartChar: afii10077
Encoding: 1083 1083 56
Width: 444
Flags: W
HStem: 0 20G<44.5 151 375.5 399.5> 431 20G<242 358> 431 20G<242 358>
VStem: 35 106<0.351927 62.1091> 253 105<317.017 399.745>
AnchorPoint: "Yerik" 327 623 basechar 0
AnchorPoint: "Above" 266 623 basechar 0
LayerCount: 2
Fore
SplineSet
242 451 m 1xd8
 358 451 l 1
 358 390 362 326 369 260 c 0
 376 195 385 140 394 96 c 0
 404 52 409 28 409 23 c 0
 410 19 410 16 411 13 c 0
 411 4 405 -1 394 -1 c 0
 357 -1 312 -1 305 3 c 0
 302 5 297 26 290 66 c 0
 283 106 279 137 276 160 c 2
 257 296 l 1
 251 298 l 1
 242 289 l 1
 230 272 l 2
 207 238 186 200 168 158 c 0
 150 117 141 80 141 47 c 0
 141 31 144 15 151 0 c 1
 49 0 l 2
 40 0 35 4 35 12 c 0
 35 27 60 72 109 148 c 0
 159 224 195 275 218 301 c 0
 241 328 253 343 253 348 c 0
 253 361 248 395 248 400 c 2
 244 434 l 1
 242 451 l 1xd8
EndSplineSet
Validated: 1
EndChar

StartChar: afii10078
Encoding: 1084 1084 57
Width: 722
Flags: W
HStem: 0 21G<28 162 277.78 410 561.5 683> 431 20G<193 322 484 611> 431 20G<193 322 484 611>
VStem: 28 112<0.89291 98.3792> 204 118<324.302 450.061> 483 126<354.823 451> 568 115<0 115>
DStem2: 629 223 536 144 0.147774 -0.989021<-147.044 209.222>
AnchorPoint: "Yerik" 537 623 basechar 0
AnchorPoint: "Above" 397 623 basechar 0
LayerCount: 2
Fore
SplineSet
193 451 m 1xda
 322 451 l 1
 322 406 327 354 336 297 c 0
 345 240 357 187 370 138 c 1
 378 139 l 1
 397 191 412 231 424 259 c 0
 437 287 449 314 462 341 c 0
 475 368 482 385 483 394 c 0
 484 403 484 422 484 451 c 1
 611 451 l 1
 609 404 l 2xdc
 609 359 616 299 629 223 c 0
 642 148 660 73 683 0 c 1
 568 0 l 1
 555 48 545 96 536 144 c 0
 527 193 519 263 510 354 c 1
 504 353 l 1
 483 320 459 269 432 199 c 0
 405 130 391 84 391 61 c 0
 391 37 397 23 410 0 c 1
 281 0 l 1
 229 323 l 1
 223 323 l 1
 189 261 167 214 156 182 c 0
 145 150 140 119 140 89 c 0
 140 41 149 19 162 0 c 1
 28 0 l 1
 28 31 34 62 46 91 c 0
 59 121 88 170 134 238 c 0
 181 307 204 356 204 386 c 0
 204 409 200 431 193 451 c 1xda
EndSplineSet
Validated: 1
EndChar

StartChar: afii10079
Encoding: 1085 1085 58
Width: 500
Flags: W
HStem: 0 21G<67 171 324 432> 431 20G<86.5 189 327.5 433> 431 20G<86.5 189 327.5 433>
VStem: 67 104<0 310> 90 99<334.444 451> 321 103<2.66015 242 266 448.901> 324 108<0 241.144 268.099 451>
DStem2: 178 333 176 310 0.903094 -0.429443<8.07101 157.012>
AnchorPoint: "Yerik" 367 623 basechar 0
AnchorPoint: "Above" 257 623 basechar 0
LayerCount: 2
Fore
SplineSet
171 0 m 1xd4
 67 0 l 1xd4
 67 115 69 204 73 266 c 0
 77 328 83 390 90 451 c 1
 189 451 l 1
 184 420 180 401 179 392 c 0
 178 383 178 364 178 333 c 1
 320 266 l 1
 320 311 320 342 321 358 c 0
 322 375 325 406 330 451 c 1
 433 451 l 1
 429 413 426 381 425 354 c 0
 424 327 424 278 424 207 c 2
 424 122 l 2xcc
 425 98 427 57 432 0 c 1
 324 0 l 1xc2
 324 40 323 86 321 137 c 0
 320 189 319 224 319 242 c 1
 176 310 l 1
 176 286 175 250 172 202 c 0
 170 154 169 120 169 99 c 2
 171 0 l 1xd4
EndSplineSet
Validated: 1
EndChar

StartChar: afii10080
Encoding: 1086 1086 59
Width: 482
Flags: W
HStem: -13 58<176.5 285.93> 388 71<204.5 306.5>
VStem: 32 82<190.475 305.032> 366 84<120.907 243.337>
AnchorPoint: "Yerik" 367 623 basechar 0
AnchorPoint: "Above" 257 623 basechar 0
LayerCount: 2
Fore
SplineSet
32 200 m 0
 32 280 57 337 126 385 c 0
 197 433 256 459 288 459 c 0
 325 459 361 431 396 376 c 0
 432 321 450 267 450 212 c 0
 450 144 427 104 375 64 c 0
 324 25 260 -13 199 -13 c 0
 154 -13 115 13 82 64 c 0
 49 115 32 161 32 200 c 0
114 278 m 0
 114 241 131 192 164 133 c 0
 197 74 233 45 271 45 c 0
 292 45 313 54 334 71 c 0
 355 89 366 115 366 149 c 0
 366 190 350 240 317 299 c 0
 285 358 251 388 214 388 c 0
 195 388 175 382 148 361 c 0
 123 341 114 323 114 278 c 0
EndSplineSet
Validated: 1
EndChar

StartChar: afii10081
Encoding: 1087 1087 60
Width: 519
Flags: W
HStem: 0 21G<67.5 181 342.5 460> 425 26<173.723 343>
VStem: 61 103<1.91821 422.2> 62 113<245.723 423.754> 333 111<2.43017 421.828> 343 101<240.403 423.919>
AnchorPoint: "Yerik" 367 623 basechar 0
AnchorPoint: "Above" 257 623 basechar 0
LayerCount: 2
Fore
SplineSet
181 0 m 1xe0
 69 0 l 1
 66 34 63 72 61 114 c 0xe0
 59 157 58 195 58 228 c 0
 58 267 59 312 62 361 c 0
 65 411 67 441 67 451 c 1
 455 451 l 1
 450 420 447 391 444 364 c 0
 442 337 441 293 441 234 c 0
 441 189 442 149 444 115 c 0
 447 82 452 43 460 0 c 1
 345 0 l 1
 340 52 337 94 335 125 c 0
 334 157 333 194 333 237 c 0xd8
 333 310 336 357 343 425 c 1
 175 425 l 1xd4
 168 365 164 322 164 242 c 0
 164 183 165 139 168 108 c 0
 171 77 175 41 181 0 c 1xe0
EndSplineSet
Validated: 1
EndChar

StartChar: afii10092
Encoding: 1098 1098 61
Width: 463
Flags: W
HStem: 0 20<186.007 316.125> 430 21<172.644 305>
VStem: 64 102<265 383.364>
DStem2: 46 8 190 41 0.523083 0.852282<91.1295 495.141>
AnchorPoint: "Yerik" 367 623 basechar 0
AnchorPoint: "Above" 257 623 basechar 0
LayerCount: 2
Fore
SplineSet
64 265 m 1
 75 451 l 1
 428 451 l 1
 428 440 l 1
 190 41 l 1
 186 29 l 2
 186 23 195 20 213 20 c 2
 286 20 l 2
 291 20 295 20 298 20 c 0
 317 20 318 21 318 30 c 2
 313 61 l 1
 287 179 l 1
 373 208 l 1
 429 11 l 1
 430 0 l 1
 46 0 l 1
 46 8 l 1
 305 430 l 1
 205 430 l 2
 172 430 170 427 170 390 c 2
 166 265 l 1
 64 265 l 1
EndSplineSet
Validated: 1
EndChar

StartChar: afii10082
Encoding: 1088 1088 62
Width: 352
Flags: W
HStem: -249 21G<63.5 74.5> 437 20G<256.5 289>
VStem: 63 60<144.975 288.755> 87 88<-156.191 -3.14429> 245 50<123.65 266.218>
AnchorPoint: "Yerik" 247 623 basechar 0
AnchorPoint: "Above" 187 623 basechar 0
LayerCount: 2
Fore
SplineSet
289 457 m 1xe8
 284 428 280 404 280 367 c 0
 280 352 282 317 287 260 c 0
 292 204 295 175 295 174 c 0
 295 133 287 96 272 64 c 0
 257 32 237 13 213 8 c 0
 190 3 177 0 176 -3 c 0
 175 -6 175 -14 175 -27 c 0
 175 -94 168 -137 139 -181 c 0
 111 -226 82 -249 67 -249 c 0
 60 -249 56 -245 56 -238 c 0
 56 -237 55 -235 68 -215 c 0
 83 -195 87 -159 87 -112 c 0xd8
 87 -56 85 -31 80 5 c 0
 77 23 74 50 69 86 c 0
 65 122 63 149 63 167 c 0
 63 286 111 365 158 408 c 0
 206 452 236 457 277 457 c 2
 289 457 l 1xe8
232 240 m 2
 206 319 l 1
 155 304 123 287 123 231 c 0xe8
 123 212 131 186 139 161 c 0
 148 136 152 127 157 99 c 1
 205 106 245 120 245 179 c 0
 245 203 239 223 232 240 c 2
EndSplineSet
Validated: 1
EndChar

StartChar: afii10083
Encoding: 1089 1089 63
Width: 333
Flags: W
HStem: -14 21G<70 89> 345 116<192.312 275.944>
VStem: 71 208<73.2433 154 355.146 393.774> 75 92<95.0117 307.994>
AnchorPoint: "Yerik" 247 623 basechar 0
AnchorPoint: "Above" 187 623 basechar 0
LayerCount: 2
Fore
SplineSet
279 461 m 1xe0
 279 399 l 1
 279 384 l 2xe0
 279 368 278 358 276 355 c 0
 275 352 261 348 235 345 c 0
 210 342 192 330 182 309 c 0
 172 288 167 238 167 159 c 0
 167 150 167 140 167 132 c 0
 167 111 169 95 182 95 c 0
 191 95 208 106 229 129 c 0
 250 152 258 161 267 161 c 0
 276 161 281 154 281 141 c 0
 281 117 259 61 220 25 c 0
 201 7 180 -4 159 -8 c 0
 138 -12 108 -14 70 -14 c 1
 70 -3 71 16 72 42 c 0
 74 68 75 88 75 101 c 2xd0
 71 280 l 2
 71 357 89 406 124 428 c 0
 160 450 212 461 279 461 c 1xe0
EndSplineSet
Validated: 1
EndChar

StartChar: afii10084
Encoding: 1090 1090 64
Width: 630
Flags: W
HStem: 0 21G<282 391> 427 24<154 279 386 480.81>
VStem: 52 102<199 420.858> 279 104<1.49634 427> 282 109<0 223.503>
AnchorPoint: "Yerik" 517 623 basechar 0
AnchorPoint: "Above" 337 623 basechar 0
LayerCount: 2
Fore
SplineSet
157 199 m 2xf0
 52 199 l 1
 52 406 l 2
 52 413 51 418 48 421 c 0
 43 426 19 433 19 442 c 0
 19 450 24 451 32 451 c 2
 565 451 l 2
 610 451 612 451 612 440 c 0
 612 433 609 426 594 394 c 2
 561 320 l 2
 557 312 552 302 544 302 c 0
 533 302 525 321 504 374 c 0
 493 401 486 416 481 420 c 0
 477 425 470 427 460 427 c 2
 386 427 l 1
 386 402 385 367 384 322 c 0
 383 278 382 246 382 227 c 0
 382 152 382 103 383 81 c 0xf0
 384 59 387 32 391 0 c 1
 282 0 l 1xe8
 282 19 281 54 279 105 c 0
 278 157 277 202 277 240 c 2
 279 427 l 1
 154 427 l 1
 154 319 l 2
 154 300 154 276 155 246 c 0
 156 216 157 200 157 199 c 2xf0
EndSplineSet
Validated: 1
EndChar

StartChar: uniA64B
Encoding: 42571 42571 65
Width: 507
Flags: W
HStem: -13 27<181.754 293.155>
VStem: 20 94<540.827 593.763> 103 30<54.306 157.144> 332 96<48.3378 169.61>
DStem2: 274 373 74 451 0.65639 -0.754422<-264.092 0 44.4938 220.975> 274 373 291 352 0.543647 0.839314<0 339.682>
AnchorPoint: "Yerik" 367 801 basechar 0
AnchorPoint: "Above" 257 802 basechar 0
LayerCount: 2
Fore
SplineSet
153 659 m 1xd0
 170 642 l 1
 125 609 114 602 114 585 c 0xd0
 114 562 169 489 274 373 c 1
 303 415 324 447 338 469 c 0
 352 491 369 518 388 549 c 0
 428 613 449 652 449 665 c 0
 449 679 441 686 426 686 c 0
 410 686 368 672 359 672 c 0
 352 672 348 675 348 681 c 0
 348 686 356 693 373 704 c 0
 390 715 406 724 421 731 c 0
 436 739 454 748 476 757 c 0
 499 767 514 772 522 772 c 0
 535 772 542 765 542 750 c 0
 542 725 516 674 465 598 c 0
 414 523 356 441 291 352 c 1
 336 305 370 264 393 230 c 0
 416 196 428 159 428 118 c 0
 428 43 370 -13 257 -13 c 0
 154 -13 103 28 103 100 c 0xb0
 103 123 110 149 123 177 c 0
 136 205 165 244 208 293 c 1
 155 352 111 404 74 451 c 0
 38 498 20 533 20 556 c 0
 20 569 28 582 43 595 c 0
 58 609 95 630 153 659 c 1xd0
228 274 m 1
 177 215 133 152 133 99 c 0xb0
 133 46 183 14 240 14 c 0
 293 14 332 44 332 92 c 0
 332 160 288 206 228 274 c 1
EndSplineSet
Validated: 1
EndChar

StartChar: afii10067
Encoding: 1074 1074 66
Width: 500
Flags: W
HStem: 0 22<177.253 352> 430 21<180.239 338>
VStem: 67 104<30.4364 182.761 229.002 426.861>
DStem2: 387 212 284 192 0.381935 -0.924189<-67.9065 160.38>
AnchorPoint: "Yerik" 367 623 basechar 0
AnchorPoint: "Above" 257 623 basechar 0
LayerCount: 2
Fore
SplineSet
67 451 m 1
 398 451 l 2
 405 451 409 449 409 444 c 0
 409 439 397 426 389 415 c 2
 259 265 l 1
 261 258 l 1
 286 260 330 267 341 267 c 0
 360 267 363 262 379 230 c 2
 387 212 l 1
 455 44 l 1
 460 34 l 2
 465 23 468 15 468 11 c 0
 468 5 465 2 459 1 c 2
 400 0 l 1
 122 0 l 2
 101 0 86 1 78 2 c 0
 71 3 67 13 67 32 c 2
 66 123 l 1
 68 306 l 1
 67 451 l 1
172 382 m 2
 171 279 l 1
 172 239 l 2
 172 232 175 229 181 229 c 0
 193 229 215 247 247 284 c 0
 279 321 309 369 338 430 c 1
 232 430 l 2
 225 430 218 430 211 430 c 0
 197 430 185 430 180 427 c 0
 173 424 172 423 172 382 c 2
171 148 m 2
 171 81 l 2
 171 68 172 39 177 30 c 0
 182 22 213 22 250 22 c 2
 352 24 l 1
 284 192 l 2
 272 221 262 244 251 244 c 0
 240 244 211 220 190 203 c 0
 180 195 174 188 173 183 c 0
 172 178 171 167 171 148 c 2
EndSplineSet
Validated: 1
EndChar

StartChar: afii10090
Encoding: 1096 1096 67
Width: 833
Flags: W
HStem: 0 23<177.146 354.5 476.335 655.197> 431 20G<74.4872 185 360.837 478 651.844 767> 431 20G<74.4872 185 360.837 478 651.844 767>
VStem: 70 102<28.1472 389.591> 75 110<175.368 451> 358 109<31.2893 357.797> 361 117<173.401 451> 654 109<23.9766 451>
AnchorPoint: "Yerik" 707 623 basechar 0
AnchorPoint: "Above" 420 623 basechar 0
LayerCount: 2
Fore
SplineSet
75 451 m 1xc9
 185 451 l 1xc9
 176 354 172 237 172 121 c 2
 172 64 l 2
 173 43 174 31 177 28 c 0
 180 25 191 23 210 23 c 2
 303 23 l 1
 324 23 l 2
 357 23 358 26 358 82 c 2xd5
 361 451 l 1
 478 451 l 1xc3
 473 344 467 226 467 83 c 0
 467 54 470 37 476 31 c 0
 483 26 499 23 525 23 c 2
 619 23 l 2
 651 23 656 25 656 44 c 2
 654 91 l 2
 654 160 652 244 651 323 c 2
 652 451 l 1
 767 451 l 1
 767 399 765 357 764 318 c 2
 763 98 l 2
 763 43 768 17 771 0 c 1
 68 0 l 1
 68 51 69 114 70 187 c 0xd5
 72 261 73 323 73 373 c 2
 75 451 l 1xc9
EndSplineSet
Validated: 1
EndChar

StartChar: afii10093
Encoding: 1099 1099 68
Width: 667
Flags: W
HStem: 0 20<167.431 302.766> 431 20G<78.5 195 476 585> 431 20G<78.5 195 476 585>
VStem: 59 106<21.1443 190.005> 480 101<132.882 451> 483 98<2.43384 278.195> 493 110<0 110>
DStem2: 173 216 172 191 0.914687 0.404164<0 43.8962> 332 254 247 185 0.391555 -0.920155<-3.89819 186.906>
AnchorPoint: "Yerik" 517 623 basechar 0
AnchorPoint: "Above" 337 623 basechar 0
LayerCount: 2
Fore
SplineSet
444 0 m 1xd0
 59 0 l 1
 59 137 69 292 88 451 c 1
 195 451 l 1
 192 419 l 2
 181 334 173 275 173 216 c 1
 197 227 l 1
 302 273 l 1
 315 276 l 2
 319 276 320 277 332 254 c 0
 345 233 385 139 444 0 c 1xd0
172 191 m 1
 169 170 168 134 168 125 c 2
 165 47 l 2
 165 32 167 24 180 21 c 2
 250 20 l 1
 270 20 l 2
 293 20 305 24 305 39 c 0
 305 47 298 67 287 91 c 0
 282 104 276 118 269 134 c 0
 263 150 256 167 247 185 c 0
 238 203 230 212 223 212 c 0
 218 212 205 206 194 202 c 2
 172 191 l 1
476 451 m 1
 585 451 l 1
 585 436 584 416 583 392 c 0
 582 368 581 356 581 355 c 0xd8
 581 256 583 185 586 142 c 0
 589 99 595 52 603 0 c 1
 493 0 l 1xd2
 488 48 485 92 483 131 c 0xd4
 481 171 480 221 480 281 c 2xd8
 476 451 l 1
EndSplineSet
Validated: 1
EndChar

StartChar: afii10073
Encoding: 1079 1079 69
Width: 618
Flags: W
HStem: -247 59<300.78 425.598> -155 92<71.4754 165.228> 205 9<417 419> 434 28<237.079 369.652>
VStem: 440 108<251.496 384.293> 469 105<-136.957 31.6665>
AnchorPoint: "Yerik" 467 623 basechar 0
AnchorPoint: "Above" 307 623 basechar 0
LayerCount: 2
Fore
SplineSet
171 262 m 1xf8
 57 272 l 1
 64 348 92 399 142 424 c 0
 192 449 248 462 309 462 c 0
 457 462 548 408 548 317 c 0xf8
 548 284 536 257 512 236 c 0
 488 215 462 205 435 205 c 2
 417 206 l 2
 412 204 409 202 409 200 c 0
 409 192 414 190 451 173 c 0
 470 165 495 143 526 108 c 0
 558 73 574 27 574 -29 c 0
 574 -90 557 -142 523 -184 c 0
 490 -226 444 -247 387 -247 c 0
 343 -247 318 -238 266 -205 c 0
 214 -173 177 -155 128 -155 c 0
 105 -155 76 -170 40 -200 c 0
 34 -206 29 -209 25 -209 c 0
 16 -209 0 -182 0 -153 c 0
 0 -109 28 -63 87 -63 c 0
 139 -63 171 -86 226 -122 c 0
 281 -158 330 -188 366 -188 c 0
 419 -188 469 -143 469 -59 c 0xf4
 469 -9 456 29 429 54 c 0
 403 79 368 102 325 122 c 1
 287 69 l 1
 283 64 l 1
 273 49 l 1
 266 40 l 2
 263 34 259 31 255 31 c 0
 252 31 248 33 243 38 c 2
 184 77 l 2
 175 82 175 84 174 87 c 0
 175 91 178 96 179 97 c 2
 187 108 l 1
 197 122 l 1
 285 248 l 1
 372 215 l 1
 375 215 378 214 381 214 c 0
 419 214 440 256 440 311 c 0
 440 394 379 434 303 434 c 0
 219 434 166 381 166 305 c 0
 166 290 170 274 171 262 c 1xf8
EndSplineSet
Validated: 1
EndChar

StartChar: afii10046
Encoding: 1068 1068 70
Width: 500
Flags: W
HStem: 0 21<31 82 196 340> 607 21<31 82 196 243>
VStem: 82 114<21 377 394.664 607> 340 109<21.7969 319.25>
AnchorPoint: "Yerik" 403 680 basechar 0
AnchorPoint: "Above" 289 680 basechar 0
LayerCount: 2
Fore
SplineSet
196 21 m 1
 340 21 l 1
 340 244 l 1
 340 264 l 2
 340 268 340 272 340 275 c 0
 340 302 339 313 325 317 c 2
 307 323 l 2
 266 338 232 357 200 382 c 1
 196 377 l 1
 196 21 l 1
196 607 m 1
 196 409 l 1
 275 344 357 329 449 329 c 1
 447 208 l 2
 447 131 448 81 449 60 c 0
 450 39 453 19 457 0 c 1
 31 0 l 1
 31 21 l 1
 82 21 l 1
 82 607 l 1
 31 607 l 1
 31 628 l 1
 243 628 l 1
 243 607 l 1
 196 607 l 1
EndSplineSet
Validated: 1
EndChar

StartChar: uniE000
Encoding: 57344 57344 71
Width: 1
GlyphClass: 4
Flags: W
HStem: 801 66<-281.678 -192.488>
VStem: -186 52<719.497 794.18>
AnchorPoint: "Stack" -216 963 basemark 0
AnchorPoint: "Stack" -194 684 mark 0
AnchorPoint: "Above" -194 688 mark 0
LayerCount: 2
Fore
SplineSet
-134 790 m 0
 -134 767 -141 744 -154 722 c 0
 -168 701 -181 690 -194 690 c 0
 -202 690 -206 694 -206 702 c 0
 -204 716 -186 738 -186 753 c 0
 -186 754 -186 756 -186 757 c 1
 -186 782 -205 801 -236 801 c 0
 -257 801 -274 795 -287 782 c 0
 -312 758 -315 757 -319 757 c 0
 -327 757 -331 761 -331 769 c 0
 -331 781 -320 800 -299 827 c 0
 -278 854 -253 867 -224 867 c 0
 -169 867 -134 835 -134 790 c 0
EndSplineSet
Validated: 1
EndChar

StartChar: uniA656
Encoding: 42582 42582 72
Width: 778
Flags: W
HStem: 0 21<33 85 199 248 326 369.584 459.73 500 530 570 683 734> 228 26<427 474.568> 438 114<321.661 409.451> 484 23<199 314.356 417.572 570> 607 21<33 85 199 249 519 570 683 734>
VStem: 85 114<21 484 507 607> 344 138<112.01 204.793> 362 60<254.456 301.499> 570 113<21 416.859 424.636 482 505 607>
AnchorPoint: "Yerik" 628 680 basechar 0
AnchorPoint: "Above" 376 680 basechar 0
LayerCount: 2
Fore
SplineSet
248 0 m 1xdd80
 33 0 l 1
 33 21 l 1
 85 21 l 1
 85 607 l 1
 33 607 l 1
 33 628 l 1
 249 628 l 1
 249 607 l 1
 199 607 l 1
 199 507 l 1xdd80
 311 506 l 1
 320 533 330 552 365 552 c 0
 401 552 412 531 421 504 c 1
 570 505 l 1
 570 607 l 1
 519 607 l 1
 519 628 l 1
 734 628 l 1
 734 607 l 1
 683 607 l 1
 683 21 l 1
 734 21 l 1
 734 0 l 1
 530 0 l 1
 530 21 l 1
 570 21 l 1
 570 350 l 1
 565 350 l 1
 532 285 488 228 427 228 c 1
 426 221 l 1
 466 214 482 182 482 157 c 0
 482 126 464 106 425 98 c 1
 432 46 455 21 500 21 c 1
 500 0 l 1
 326 0 l 1
 326 21 l 1
 355 21 375 30 385 47 c 0
 396 64 401 81 401 98 c 1
 362 106 344 126 344 157 c 0xee80
 344 184 357 214 400 221 c 1
 400 230 l 1
 380 237 362 247 362 279 c 0
 362 303 371 320 390 331 c 0
 409 342 436 355 470 370 c 0
 539 401 570 438 570 482 c 1
 421 483 l 1
 412 455 403 438 367 438 c 0xed80
 331 438 318 459 311 483 c 1
 199 484 l 1
 199 21 l 1
 248 21 l 1
 248 0 l 1xdd80
566 417 m 0
 564 417 561 414 556 409 c 2
 543 389 l 2
 536 380 524 368 506 351 c 0
 489 334 470 320 451 307 c 0
 432 294 422 284 422 275 c 0
 422 261 430 254 446 254 c 0
 471 254 499 275 529 317 c 0
 560 360 575 390 575 408 c 0
 575 411 572 414 566 417 c 0
EndSplineSet
Validated: 1
EndChar

StartChar: afii10041
Encoding: 1063 1063 73
Width: 537
Flags: W
HStem: 0 21<279 334 448 503> 607 21<23 73 177 229 284 334 448 503>
VStem: 73 104<312 607> 334 114<21 253.578 268 607>
AnchorPoint: "Yerik" 399 680 basechar 0
AnchorPoint: "Above" 253 680 basechar 0
LayerCount: 2
Fore
SplineSet
334 268 m 1
 334 607 l 1
 284 607 l 1
 284 628 l 1
 503 628 l 1
 503 607 l 1
 448 607 l 1
 448 21 l 1
 503 21 l 1
 503 0 l 1
 279 0 l 1
 279 21 l 1
 334 21 l 1
 334 189 l 1
 334 204 l 2
 334 212 334 220 333 228 c 0
 333 236 326 245 313 254 c 0
 300 263 220 283 71 312 c 1
 73 332 l 1
 75 412 l 1
 73 607 l 1
 23 607 l 1
 23 628 l 1
 229 628 l 1
 229 607 l 1
 177 607 l 1
 177 378 l 1
 178 321 l 2
 181 312 192 310 229 302 c 0
 266 294 297 284 334 268 c 1
EndSplineSet
Validated: 1
EndChar

StartChar: uniA657
Encoding: 42583 42583 74
Width: 667
Flags: W
HStem: -8 70<302.5 394.857> 0 21G<63 174.026 514.5 631> 328 22<204.242 296.8> 339 26<217.768 457.93> 431 20G<100.271 211 455 566> 431 20G<100.271 211 455 566>
VStem: 259 66<16 91.8984> 475 91<197.121 245> 517 114<0 66.6489>
DStem2: 63 0 173 0 0.086153 0.996282<9.47683 107.08 278.855 331.692 360.502 452.683> 357 205 370 174 0.5818 0.813332<-111.677 150.793>
AnchorPoint: "Yerik" 517 623 basechar 0
AnchorPoint: "Above" 347 623 basechar 0
LayerCount: 2
Fore
SplineSet
631 0 m 1x5a80
 517 0 l 1x5a80
 512 19 507 44 501 75 c 0
 489 139 488 161 481 161 c 0
 478 161 474 156 470 145 c 2
 457 118 l 2
 430 59 410 23 397 10 c 0
 384 -2 358 -8 317 -8 c 0
 288 -8 259 -2 259 34 c 0
 259 53 263 65 282 96 c 0
 302 127 325 162 357 205 c 2
 458 339 l 1x9280
 422 339 381 337 336 333 c 0
 291 330 262 328 247 328 c 0
 224 328 209 326 204 321 c 0
 199 316 194 299 189 269 c 0
 181 209 175 132 175 39 c 1
 173 0 l 1
 63 0 l 1
 102 451 l 1
 211 451 l 1
 200 350 l 1x6a80
 249 356 285 360 309 362 c 0
 333 364 374 365 431 365 c 0
 440 365 460 366 461 370 c 2
 455 451 l 1
 566 451 l 1x1b
 566 311 575 159 631 0 c 1x5a80
473 245 m 1
 468 311 l 1
 370 174 l 2
 340 130 325 102 325 90 c 0
 325 74 339 62 355 62 c 0
 374 62 396 80 423 117 c 0
 450 154 465 177 469 184 c 0
 473 192 475 201 475 211 c 2x83
 473 245 l 1
EndSplineSet
Validated: 1
EndChar

StartChar: afii10089
Encoding: 1095 1095 75
Width: 444
Flags: W
HStem: 0 21G<280.758 397> 257 30<216.5 280.104> 431 20G<35 153 285.5 396> 431 20G<35 153 285.5 396>
VStem: 35 118<346.341 451> 281 116<0 207.803 289.18 451> 281 101<1.49927 257 287.01 447.842>
AnchorPoint: "Yerik" 347 623 basechar 0
AnchorPoint: "Above" 217 623 basechar 0
LayerCount: 2
Fore
SplineSet
397 0 m 1xec
 281 0 l 1xec
 279 165 l 2
 279 197 281 238 281 257 c 1xea
 241 257 208 259 181 263 c 0
 155 268 128 280 100 299 c 0
 45 339 35 390 35 451 c 1
 153 451 l 1
 153 402 159 367 172 346 c 0
 199 305 233 287 264 287 c 0
 281 287 281 301 281 322 c 2
 281 403 l 2xec
 282 409 284 425 287 451 c 1
 396 451 l 1
 385 384 382 293 382 210 c 0xea
 382 163 383 125 384 94 c 0
 386 63 390 32 397 0 c 1xec
EndSplineSet
Validated: 1
EndChar

StartChar: uniE8E3
Encoding: 59619 59619 76
Width: 507
Flags: W
HStem: -13 30<178.264 297.834>
VStem: 20 96<541.086 595.563> 103 31<57.2805 167.743> 334 94<45.7205 164.049>
DStem2: 184 480 118 398 0.642815 -0.766021<-122.82 138.286 160.587 161.542 183.786 378.634> 209 787 147 769 0.537514 -0.843255<-24.717 232.106> 337 470 483 629 0.541151 0.840925<-112.646 228.269>
AnchorPoint: "Yerik" 257 871 basechar 0
AnchorPoint: "Above" 257 873 basechar 0
LayerCount: 2
Fore
SplineSet
213 665 m 2xb0
 147 769 l 2
 140 780 134 790 134 795 c 0
 134 800 138 802 145 802 c 0
 151 802 162 800 179 796 c 0
 196 792 206 789 209 787 c 0
 212 785 225 763 249 721 c 0
 273 680 289 652 296 638 c 2
 333 574 l 2
 336 569 338 561 339 558 c 0
 339 553 336 551 329 551 c 0
 322 551 292 556 285 560 c 0
 282 562 272 575 256 598 c 0
 240 622 226 644 213 665 c 2xb0
136 653 m 1
 155 634 l 1
 132 618 116 604 116 584 c 0xd0
 116 569 138 539 154 518 c 2
 173 494 l 1
 177 490 l 1
 184 480 l 1
 274 375 l 1
 337 470 l 2
 364 511 390 552 413 591 c 0
 437 631 449 657 449 670 c 0
 449 683 442 690 428 690 c 0
 417 690 409 686 408 686 c 2
 387 682 l 2
 377 682 372 687 372 696 c 0
 372 709 393 720 456 748 c 0
 487 762 506 770 512 771 c 0
 518 773 522 774 524 774 c 0
 537 774 543 767 543 753 c 0
 543 740 537 722 524 698 c 0
 511 674 498 651 483 629 c 0
 469 608 438 562 391 493 c 2
 376 472 l 2
 343 423 315 384 291 355 c 1
 376 264 428 199 428 122 c 0
 428 72 410 37 374 17 c 0
 338 -3 298 -13 255 -13 c 0
 156 -13 103 33 103 102 c 0xb0
 103 167 146 225 209 294 c 1
 176 331 145 365 118 398 c 0
 65 463 20 526 20 559 c 0xd0
 20 570 27 582 41 595 c 0
 55 608 87 628 136 653 c 1
228 277 m 1
 161 205 134 150 134 107 c 0xb0
 134 58 169 17 240 17 c 0
 303 17 334 56 334 95 c 0
 334 135 308 185 228 277 c 1
EndSplineSet
Validated: 1
LCarets2: 1 0
Ligature2: "'ccmp' Canonical Composition and Precomposed Glyphs-1" uniA64B gravecomb
EndChar

StartChar: uniA67C
Encoding: 42620 42620 77
Width: 0
Flags: W
HStem: 590 64<-227.235 -104.518>
VStem: -321 60<688.561 765> -73 60<686.214 765>
AnchorPoint: "Stack" -190 868 basemark 0
AnchorPoint: "Stack" -168 589 mark 0
AnchorPoint: "Above" -167 590 mark 0
LayerCount: 2
Fore
SplineSet
-73 765 m 1
 -13 765 l 1
 -13 717 -19 694 -42 653 c 0
 -63 613 -114 590 -167 590 c 0
 -270 590 -321 657 -321 765 c 1
 -261 765 l 1
 -261 685 -216 654 -167 654 c 0
 -115 654 -73 684 -73 765 c 1
EndSplineSet
Validated: 1
EndChar

StartChar: uni2DEC
Encoding: 11756 11756 78
Width: 1
Flags: HW
HStem: 586 23<-272 -225.363> 674 18<-264.481 -223.065>
VStem: -325 53<505 586 609 672.963> -216 40<614.253 672.724>
AnchorPoint: "Stack" -266 778 basemark 0
AnchorPoint: "Stack" -244 499 mark 0
AnchorPoint: "Above" -243 499 mark 0
LayerCount: 2
Fore
SplineSet
-325 501 m 5
 -325 602 l 6
 -325 627 -320 648 -311 664 c 4
 -302 680 -281 688 -246 688 c 4
 -197 688 -176 662 -176 635 c 4
 -176 591 -217 582 -272 582 c 5
 -272 501 l 5
 -325 501 l 5
-272 636 m 6
 -272 605 l 5
 -240 605 -216 610 -216 641 c 4
 -216 661 -230 670 -245 670 c 4
 -265 670 -272 653 -272 636 c 6
EndSplineSet
Validated: 1
EndChar

StartChar: uni2DE2
Encoding: 11746 11746 79
Width: 1
Flags: HW
HStem: 615 66<-173.714 -139.466> 661 20<-250 -185.403>
VStem: -301 51<509 661>
AnchorPoint: "Stack" -236 773 basemark 0
AnchorPoint: "Stack" -214 494 mark 0
AnchorPoint: "Above" -217 496 mark 0
LayerCount: 2
Fore
SplineSet
-250 499 m 5x60
 -301 499 l 5
 -301 508 -302 523 -303 545 c 4
 -304 568 -305 582 -305 588 c 4
 -305 600 -304 615 -303 633 c 4
 -302 651 -301 664 -301 671 c 5
 -133 671 l 6x60
 -125 669 -121 667 -121 664 c 4
 -121 656 -135 648 -139 628 c 4
 -144 609 -148 606 -152 605 c 4xa0
 -157 605 -176 630 -187 643 c 4
 -192 652 -206 651 -215 651 c 6
 -250 651 l 5
 -251 631 -254 618 -254 582 c 4
 -254 554 -251 528 -250 499 c 5x60
EndSplineSet
Validated: 1
EndChar

StartChar: afii10075
Encoding: 1081 1081 80
Width: 500
Flags: W
HStem: 0 21G<68 173 325 433> 431 20G<86 188 327.5 432> 431 20G<86 188 327.5 432> 541 68<235.315 313.112>
VStem: 68 105<0 239 264 448.714> 181 51<591.957 681.934> 317 107<1.40405 307>
DStem2: 73 346 176 349 0.119913 0.992784<-67.7009 106.281> 173 264 173 239 0.910782 0.412888<0 152.55>
AnchorPoint: "Yerik" 267 803 basechar 0
AnchorPoint: "Above" 269 803 basechar 0
LayerCount: 2
Fore
SplineSet
266 541 m 0x9c80
 205 541 181 572 181 613 c 0
 181 636 188 659 203 682 c 0
 218 705 231 717 241 717 c 0
 246 716 251 714 251 707 c 2
 248 697 l 1
 238 675 l 2
 234 666 232 657 232 648 c 0
 232 621 250 609 270 609 c 0
 299 609 332 636 332 688 c 0
 332 706 336 715 344 715 c 0
 357 715 361 682 361 665 c 0
 361 623 350 592 328 571 c 0
 307 551 286 541 266 541 c 0x9c80
173 0 m 1
 68 0 l 1
 69 235 l 2
 69 278 70 315 73 346 c 0
 76 377 82 412 90 451 c 1
 188 451 l 1
 182 402 178 368 176 349 c 0
 174 330 173 301 173 264 c 1
 323 332 l 1
 323 360 325 400 330 451 c 1
 432 451 l 1
 425 380 424 316 424 208 c 0xde
 424 146 425 103 426 80 c 0
 427 57 430 30 433 0 c 1
 325 0 l 1xdd
 325 21 324 50 321 88 c 0
 318 126 317 153 317 169 c 2xde
 321 307 l 1
 173 239 l 1
 171 67 l 1
 173 0 l 1
EndSplineSet
Validated: 1
LCarets2: 1 0
Ligature2: "'ccmp' Canonical Composition and Precomposed Glyphs-1" afii10074 uni0308
EndChar

StartChar: uni2DE3
Encoding: 11747 11747 81
Width: 1
Flags: HW
HStem: 514 57<-443.44 -416.359 -123.547 -94.8837> 551 20<-411 -380 -356 -217 -158 -128> 795 23<-395.5 -318.597>
VStem: -123 42<524.346 551>
DStem2: -380 571 -356 571 0.503191 0.864175<12.0766 164.532> -252 770 -278 702 0.42711 -0.9042<50.3807 194.885>
AnchorPoint: "Stack" -289 847 basemark 0
AnchorPoint: "Stack" -267 498 mark 0
AnchorPoint: "Above" -267 496 mark 0
LayerCount: 2
Fore
SplineSet
-380 551 m 5x70
 -288 709 l 5
 -309 762 -324 775 -345 775 c 4
 -374 775 -378 766 -394 714 c 5
 -437 718 l 5
 -428 749 l 6
 -415 794 -408 798 -383 798 c 4
 -362 798 -341 796 -319 792 c 4
 -297 788 -283 784 -277 781 c 4
 -266 776 -263 773 -252 750 c 6
 -158 551 l 5x70
 -109 551 l 6
 -89 551 -81 550 -81 543 c 4
 -81 539 -92 520 -95 515 c 4
 -98 511 -107 494 -112 494 c 4xb0
 -119 494 -122 507 -123 514 c 6
 -128 531 l 5
 -411 531 l 5
 -418 511 l 6
 -420 501 -424 496 -429 496 c 4
 -433 496 -438 503 -444 517 c 4
 -451 531 -454 540 -454 545 c 4
 -452 548 -450 550 -449 550 c 6
 -411 551 l 5
 -380 551 l 5x70
-356 551 m 5
 -217 551 l 5
 -278 682 l 5
 -356 551 l 5
EndSplineSet
Validated: 1
EndChar

StartChar: afii10091
Encoding: 1097 1097 82
Width: 778
Flags: W
HStem: -249 21G<371.5 383> 0 20<172.596 317.618 444.532 593.135> 431 20G<68 181 338 442 598.5 705> 431 20G<68 181 338 442 598.5 705>
VStem: 61 105<20.8919 448.706> 69 112<191.479 451> 324 107<28.2424 234.85> 331 99<65.2891 406.369> 365 69<-191.322 -35.333> 587 104<126.371 429.759> 591 100<21.9293 192.061>
DStem2: 692 124 591 82 0.066519 -0.997785<-74.8947 96.3634>
AnchorPoint: "Yerik" 657 623 basechar 0
AnchorPoint: "Above" 397 623 basechar 0
LayerCount: 2
Fore
SplineSet
69 451 m 1xe4
 181 451 l 1xe4
 176 406 173 365 170 326 c 0
 167 288 166 242 166 189 c 0
 166 165 168 118 168 102 c 2
 170 51 l 2
 170 22 174 20 211 20 c 2
 308 20 l 2
 324 21 324 24 324 64 c 0xea
 324 91 326 150 331 239 c 0
 336 329 338 400 338 451 c 1
 442 451 l 1
 434 358 430 250 430 143 c 0xe1
 430 123 430 100 431 74 c 0
 432 49 434 33 437 28 c 0
 440 23 455 20 480 20 c 2
 557 20 l 1
 581 20 l 2
 590 21 594 27 594 37 c 2
 591 82 l 2xe220
 591 88 590 103 589 127 c 0
 588 151 587 173 587 193 c 0
 587 278 591 352 606 451 c 1
 700 451 l 2
 710 451 715 448 715 443 c 2
 706 393 l 2
 695 332 691 275 691 203 c 0
 691 163 691 137 692 124 c 0
 693 111 696 70 702 0 c 1
 512 0 l 2
 489 0 455 0 444 -3 c 0
 435 -6 434 -19 434 -30 c 0
 434 -85 428 -145 415 -184 c 0
 402 -224 391 -249 375 -249 c 0
 368 -249 365 -245 365 -236 c 2
 368 -191 l 2
 368 -136 363 -73 344 -37 c 0
 335 -19 327 -8 318 -5 c 0
 310 -2 293 0 268 0 c 2
 64 0 l 1
 64 67 62 112 61 160 c 0xe8c0
 61 220 62 271 63 314 c 0
 65 357 67 402 69 451 c 1xe4
EndSplineSet
Validated: 1
EndChar

StartChar: afii10102
Encoding: 1109 1109 83
Width: 574
Flags: W
HStem: -13 90<65 114.935> -12 56<234.821 414.685> 36 37<118.001 183.333> 424 38<182.999 318.5>
VStem: 56 62<-11.309 35.1528> 70 88<280.636 389.57> 448 103<77.5199 204.623>
AnchorPoint: "Yerik" 487 623 basechar 0
AnchorPoint: "Above" 257 623 basechar 0
LayerCount: 2
Fore
SplineSet
384 422 m 2x56
 349 368 l 1
 342 357 l 2
 340 350 337 347 332 347 c 0
 327 347 323 350 316 365 c 0
 313 372 303 384 288 400 c 0
 273 416 254 424 230 424 c 0
 190 424 158 392 158 345 c 0
 158 293 197 246 242 246 c 0
 253 246 264 247 275 250 c 0
 286 253 309 260 343 271 c 0
 377 283 405 289 428 289 c 0
 467 289 497 275 518 248 c 0
 540 221 551 189 551 152 c 0
 551 108 536 70 506 37 c 0
 476 4 430 -12 369 -12 c 0x56
 316 -12 244 6 195 21 c 0
 146 36 142 36 137 36 c 0x36
 128 36 121 30 118 18 c 0
 111 -5 108 -13 89 -13 c 0
 69 -13 56 1 56 24 c 0
 56 47 70 77 106 77 c 0x9a
 126 77 142 73 146 73 c 2x3a
 226 58 l 2
 262 52 287 48 302 46 c 0
 317 45 331 44 344 44 c 0
 413 44 448 87 448 139 c 0
 448 191 420 230 365 230 c 0
 337 230 315 223 270 203 c 0
 226 183 200 175 180 175 c 0
 152 175 127 191 104 222 c 0
 81 253 70 287 70 322 c 0
 70 360 87 393 121 420 c 0
 155 448 211 462 288 462 c 0
 349 462 393 453 393 440 c 0
 393 435 390 429 384 422 c 2x56
EndSplineSet
Validated: 1
EndChar

StartChar: afii10048
Encoding: 1070 1070 84
Width: 761
Flags: W
HStem: -12 21G<446.5 484.5> 0 21<32 82 195 252> 607 21<31 82 195 251> 623 18<505.426 556.91>
VStem: 82 113<21 281 305 607> 309 99<297.466 337 361 478.467> 447 40<21.1135 89.7104> 545 26<558.919 621.514> 629 111<156.816 349.038>
DStem2: 195 305 195 281 0.897554 0.440904<0 116.43>
AnchorPoint: "Yerik" 638 680 basechar 0
AnchorPoint: "Above" 350 680 basechar 0
LayerCount: 2
Fore
SplineSet
252 0 m 1x4f80
 32 0 l 1
 32 21 l 1
 82 21 l 1
 82 607 l 1
 31 607 l 1
 31 628 l 1
 251 628 l 1
 251 607 l 1
 195 607 l 1x6f80
 195 305 l 1
 309 361 l 1
 309 438 332 503 378 558 c 0
 425 613 482 641 551 641 c 0
 566 641 574 638 574 631 c 2
 571 602 l 2
 571 575 593 541 609 520 c 2
 671 441 l 2
 723 377 740 332 740 267 c 0
 740 180 708 112 645 62 c 0
 582 13 517 -12 452 -12 c 0x9f80
 441 -12 436 -9 436 -4 c 0
 436 -3 436 -3 436 -2 c 0
 436 3 444 0 447 33 c 0
 447 46 443 61 435 76 c 0
 427 91 409 119 381 159 c 0
 354 199 335 231 324 256 c 0
 314 281 309 308 309 337 c 1
 195 281 l 1
 195 21 l 1
 252 21 l 1
 252 0 l 1x4f80
459 7 m 1
 482 10 500 13 513 18 c 0
 526 23 542 35 563 54 c 0
 606 94 629 154 629 217 c 0
 629 276 617 326 585 417 c 0
 569 462 558 495 553 515 c 0
 548 535 545 551 545 563 c 0
 545 578 548 591 557 623 c 1x1f80
 506 623 469 603 444 563 c 0
 420 524 408 479 408 428 c 0
 408 364 426 305 443 257 c 2
 475 161 l 2
 483 137 487 106 487 87 c 0
 487 58 479 39 459 7 c 1
EndSplineSet
Validated: 1
EndChar

StartChar: uni2DE4
Encoding: 11748 11748 85
Width: 1
Flags: HW
HStem: 617 24<-382 -321.954 -98.099 -37> 788 32<-361.978 -296.031 -123.251 -57.6044>
VStem: -231 42<731 820> -55 52<759.577 786.984>
AnchorPoint: "Stack" -236 832 basemark 0
AnchorPoint: "Stack" -214 553 mark 0
AnchorPoint: "Above" -212 552 mark 0
LayerCount: 2
Fore
SplineSet
-210 616 m 5
 -222 604 -238 589 -283 569 c 4
 -330 549 -358 548 -382 547 c 5
 -393 571 l 5
 -373 572 -350 574 -310 586 c 4
 -270 598 -246 615 -227 630 c 5
 -243 650 -261 670 -280 689 c 4
 -299 708 -318 718 -337 718 c 6
 -343 718 l 6
 -343 718 -344 718 -344 718 c 4
 -353 718 -366 706 -366 684 c 4
 -366 681 -366 678 -365 674 c 5
 -417 692 l 5
 -414 705 -409 718 -402 731 c 4
 -395 744 -377 750 -348 750 c 4
 -322 750 -299 740 -280 721 c 4
 -261 702 -245 682 -231 661 c 5
 -231 750 l 5
 -189 750 l 5
 -189 661 l 5
 -176 681 -159 701 -140 720 c 4
 -121 740 -99 750 -72 750 c 4
 -43 750 -24 744 -17 731 c 4
 -10 718 -5 705 -3 692 c 5
 -55 674 l 5
 -54 682 -55 690 -56 698 c 4
 -59 715 -79 718 -84 718 c 4
 -103 718 -121 708 -140 689 c 4
 -159 670 -177 650 -193 630 c 5
 -184 621 -160 601 -111 586 c 4
 -63 573 -38 572 -27 571 c 5
 -37 547 l 5
 -42 547 -47 547 -52 547 c 4
 -73 547 -98 550 -134 568 c 4
 -179 591 -195 604 -210 616 c 5
EndSplineSet
Validated: 1
EndChar

StartChar: uni033E
Encoding: 830 830 87
Width: 0
Flags: W
HStem: 598 255
VStem: 51 91<646.247 694>
DStem2: 130 736 24 779 0.191691 -0.981455<-84.4602 64.1136>
AnchorPoint: "Stack" 5 872 basemark 0
AnchorPoint: "Stack" 27 593 mark 0
AnchorPoint: "Yerik" 31 597 mark 0
LayerCount: 2
Fore
SplineSet
24 779 m 2
 24 791 31 800 44 807 c 0
 83 830 127 853 134 853 c 0
 143 853 147 848 147 838 c 0
 147 833 145 830 132 821 c 0
 122 816 117 809 117 801 c 2
 119 785 l 1
 130 736 l 1
 134 718 l 1
 139 694 l 1
 142 673 l 2
 142 664 139 658 114 642 c 0
 101 635 86 625 67 614 c 0
 49 603 38 598 33 598 c 0
 23 598 18 602 18 610 c 0
 18 617 23 623 34 629 c 0
 45 636 51 644 51 655 c 0
 51 660 46 679 43 694 c 2
 24 779 l 2
EndSplineSet
Validated: 1
EndChar

StartChar: uni2E2F
Encoding: 11823 11823 88
Width: 180
Flags: W
HStem: 548 255
VStem: 65 91<596.247 644>
DStem2: 144 686 38 729 0.191691 -0.981455<-84.4602 64.1136>
LayerCount: 2
Fore
SplineSet
38 729 m 2
 38 741 45 750 58 757 c 0
 97 780 141 803 148 803 c 0
 157 803 161 798 161 788 c 0
 161 783 159 780 146 771 c 0
 136 766 131 759 131 751 c 2
 133 735 l 1
 144 686 l 1
 148 668 l 1
 153 644 l 1
 156 623 l 2
 156 614 153 608 128 592 c 0
 115 585 100 575 82 564 c 0
 63 553 52 548 47 548 c 0
 37 548 32 552 32 560 c 0
 32 567 38 573 49 579 c 0
 60 586 65 594 65 605 c 0
 65 610 60 629 57 644 c 2
 38 729 l 2
EndSplineSet
Validated: 1
EndChar

StartChar: uniE8E5
Encoding: 59621 59621 89
Width: 507
Flags: W
HStem: -13 33<171.391 297.989> 636 21G<171 219 317 365> 705 58<230.067 306.502> 709 38<393.896 451.923>
VStem: 20 93<540.215 603.842> 105 29<55.1924 161.158> 171 48<636 695.511> 317 48<636 696.052> 331 97<50.1463 165.322> 454 83<673 758.369>
DStem2: 245 407 209 295 0.652659 -0.757652<-206.314 41.109 88.2622 265.942>
AnchorPoint: "Yerik" 267 863 basechar 0
AnchorPoint: "Above" 267 863 basechar 0
LayerCount: 2
Fore
SplineSet
123 669 m 1xda40
 141 656 l 1
 128 636 113 606 113 589 c 0xda40
 113 580 115 571 120 562 c 0
 125 553 137 536 157 511 c 0
 178 486 193 467 202 456 c 0
 212 445 226 428 245 407 c 2
 272 376 l 1
 309 428 358 500 391 555 c 0
 424 610 454 663 454 683 c 0
 454 702 432 709 409 709 c 0
 398 709 390 711 390 719 c 0
 390 727 392 731 433 747 c 0
 476 763 502 773 514 773 c 0
 526 773 537 770 537 754 c 0
 537 735 524 703 499 660 c 0
 474 617 442 568 403 513 c 0
 365 458 333 413 308 379 c 2
 291 356 l 1
 328 319 360 282 387 244 c 0
 414 206 428 167 428 127 c 0
 428 79 411 44 376 21 c 0
 341 -2 301 -13 255 -13 c 0
 159 -13 105 38 105 99 c 0xd6c0
 105 152 140 218 209 295 c 1
 108 404 20 505 20 556 c 0
 20 580 30 599 82 638 c 2
 123 669 l 1xda40
227 275 m 1
 168 210 134 149 134 106 c 0
 134 51 169 20 232 20 c 0
 293 20 331 50 331 94 c 0xc6c0
 331 150 284 211 227 275 c 1
219 636 m 1
 171 636 l 1
 171 723 216 763 267 763 c 0
 336 763 365 712 365 636 c 1
 317 636 l 1
 317 675 303 705 268 705 c 0xe340
 235 705 219 677 219 636 c 1
EndSplineSet
Validated: 1
LCarets2: 1 0
Ligature2: "'ccmp' Canonical Composition and Precomposed Glyphs-1" uniA64B uni0311
EndChar

StartChar: uni2DEA
Encoding: 11754 11754 90
Width: 1
Flags: HW
HStem: 515 23<-184.203 -121.24> 666 24<-186.645 -119.285>
VStem: -240 36<550.467 654.329> -99 33<555.128 651.267>
AnchorPoint: "Stack" -156 782 basemark 0
AnchorPoint: "Stack" -154 503 mark 0
AnchorPoint: "Above" -151 502 mark 0
LayerCount: 2
Fore
SplineSet
-240 590 m 4
 -240 641 -205 680 -153 680 c 4
 -102 680 -66 642 -66 591 c 4
 -66 540 -104 505 -151 505 c 4
 -200 505 -240 538 -240 590 c 4
-204 590 m 4
 -204 554 -187 528 -152 528 c 4
 -119 528 -99 558 -99 595 c 4
 -99 631 -119 656 -152 656 c 4
 -187 656 -204 634 -204 590 c 4
EndSplineSet
Validated: 1
EndChar

StartChar: afii10096
Encoding: 1102 1102 91
Width: 556
Flags: W
HStem: -10 129<361.554 424.247> 0 21G<77.5 187> 322 133<371.857 434.793>
VStem: 73 102<2.96924 255 282 447.823> 293 57<128.445 282.948> 444 68<138.037 316.442>
DStem2: 176 282 175 255 0.972387 0.233373<0 118.126>
AnchorPoint: "Yerik" 447 623 basechar 0
AnchorPoint: "Above" 297 623 basechar 0
LayerCount: 2
Fore
SplineSet
187 0 m 1x7c
 79 0 l 1x7c
 76 25 74 56 73 94 c 0
 72 133 71 166 71 194 c 0
 71 251 72 298 73 333 c 0
 75 369 79 408 85 451 c 1
 196 451 l 1
 183 383 176 329 176 282 c 1
 301 312 l 1
 311 351 324 384 339 412 c 0
 355 441 378 455 409 455 c 0
 444 455 469 433 486 390 c 0
 503 347 512 295 512 235 c 0
 512 162 502 103 482 58 c 0
 463 13 436 -10 403 -10 c 0xbc
 371 -10 345 14 324 62 c 0
 303 110 293 164 293 224 c 0
 293 260 297 275 297 284 c 1
 175 255 l 1
 175 148 179 63 187 0 c 1x7c
444 241 m 0
 444 280 437 322 405 322 c 0
 372 322 350 271 350 210 c 0
 350 189 353 169 358 149 c 0
 364 129 376 119 395 119 c 0xbc
 423 119 444 164 444 241 c 0
EndSplineSet
Validated: 1
EndChar

StartChar: uni0311
Encoding: 785 785 92
Width: 1
Flags: W
HStem: 713 63<-291.719 -177.426>
VStem: -374 58<617 688.404> -152 59<617 686.486>
AnchorPoint: "Stack" -257 898 basemark 0
AnchorPoint: "Stack" -235 619 mark 0
AnchorPoint: "Above" -236 618 mark 0
LayerCount: 2
Fore
SplineSet
-93 617 m 1
 -152 617 l 1
 -152 678 -183 713 -234 713 c 0
 -267 713 -288 702 -299 681 c 0
 -310 660 -316 638 -316 617 c 1
 -374 617 l 1
 -374 638 -372 655 -368 670 c 0
 -365 685 -353 707 -333 734 c 0
 -313 762 -280 776 -234 776 c 0
 -189 776 -149 755 -124 720 c 0
 -99 685 -93 654 -93 617 c 1
EndSplineSet
Validated: 1
EndChar

StartChar: exclam
Encoding: 33 33 93
Width: 296
Flags: W
HStem: -20 21G<128.74 163.26> 614 20G<120.424 170.879>
VStem: 139 14<179 225.153>
LayerCount: 2
Fore
SplineSet
139 179 m 1
 80 568 l 1
 138 634 l 1
 153 634 l 1
 212 568 l 1
 153 179 l 1
 139 179 l 1
146 -20 m 1
 83 53 l 1
 146 125 l 1
 209 53 l 1
 146 -20 l 1
EndSplineSet
Validated: 1
EndChar

StartChar: uniE901
Encoding: 59649 59649 94
Width: 630
Flags: W
HStem: -11 24<356.447 469.947> 430 21<142.008 265 371 461.759>
VStem: 32 108<186.05 429.429> 241 108<16.0498 166 188 270.728> 265 88<189.684 261.727> 302 105<679 784> 470 114<1.5 58.8652>
DStem2: 253 233 364 381 0.0885796 0.996069<-6.99056 196.781 227.595 404.498> 353 188 352 166 0.954636 0.297776<0 39.324> 542 108 443 98 0.388701 -0.921364<-123.267 47.4352>
AnchorPoint: "Yerik" 367 880 basechar 0
AnchorPoint: "Above" 367 878 basechar 0
LayerCount: 2
Fore
SplineSet
27 451 m 1xea
 269 451 l 1
 269 490 272 539 279 599 c 0
 286 660 294 721 302 784 c 1
 407 784 l 1xe6
 389 627 l 1
 376 502 l 1
 371 451 l 1
 558 451 l 2
 578 451 588 448 588 441 c 0
 586 434 581 424 574 413 c 0
 561 390 554 379 545 358 c 2
 529 317 l 2
 526 310 523 306 518 306 c 0
 514 306 509 314 504 330 c 2
 477 406 l 2
 473 417 468 424 462 426 c 0
 457 429 443 430 420 430 c 2
 368 430 l 1
 364 381 l 1
 354 217 l 1
 353 188 l 1xea
 462 222 l 1
 483 226 l 2
 492 226 496 220 497 216 c 2
 542 108 l 1
 549 91 l 2
 550 88 555 76 563 57 c 0
 572 38 577 27 578 24 c 0
 581 19 584 13 584 6 c 0
 584 -3 575 -7 562 -8 c 2
 434 -11 l 2
 393 -11 358 -10 331 -8 c 0
 304 -7 274 -4 241 0 c 1xf2
 241 35 245 112 253 233 c 0
 261 354 265 420 265 430 c 1
 181 430 l 2
 176 430 171 430 167 430 c 0
 147 430 140 428 140 404 c 2
 136 273 l 2
 136 233 135 209 134 200 c 0
 133 192 129 187 124 186 c 0
 113 185 112 185 97 184 c 2
 28 184 l 1
 28 199 29 234 30 287 c 0
 31 341 32 368 32 369 c 2
 32 395 l 2
 32 412 30 430 27 451 c 1xea
373 172 m 1
 352 166 l 1
 349 79 l 1
 349 29 l 2xf2
 349 22 351 17 356 16 c 0
 365 13 409 13 442 13 c 0
 462 13 470 18 470 26 c 0
 470 29 470 33 469 36 c 0
 465 45 456 65 443 98 c 0
 416 165 409 179 397 179 c 2
 381 175 l 1
 373 172 l 1
582 744 m 2
 561 700 l 1
 508 589 l 2
 493 559 482 540 474 531 c 0
 467 523 454 519 437 519 c 0
 430 519 426 521 426 525 c 0
 426 533 434 553 446 580 c 2
 499 709 l 2
 506 728 519 758 524 762 c 0
 527 764 537 767 554 772 c 0
 572 777 582 779 584 779 c 0
 589 779 591 777 591 772 c 0
 590 765 590 759 582 744 c 2
EndSplineSet
Validated: 1
LCarets2: 1 0
Ligature2: "'ccmp' Canonical Composition and Precomposed Glyphs-1" afii10194 acutecomb
EndChar

StartChar: uniE903
Encoding: 59651 59651 95
Width: 630
Flags: W
HStem: -11 24<355.447 468.947> 430 21<141.008 265 370 458.714>
VStem: 29 107<186.05 429.344> 240 108<16.0498 166 188 273.076> 265 87<188.224 258> 301 106<678 784> 469 114<2 59.9474>
DStem2: 252 236 364 381 0.0890607 0.996026<-9.92936 193.834 224.655 401.559> 352 188 351 166 0.955403 0.295306<0 39.38> 542 108 442 98 0.386329 -0.922361<-123.298 47.3012>
AnchorPoint: "Yerik" 337 913 basechar 0
AnchorPoint: "Above" 334 913 basechar 0
LayerCount: 2
Fore
SplineSet
444 776 m 0xe2
 444 780 450 782 451 783 c 0
 458 783 464 779 471 776 c 2
 487 768 l 2
 514 756 515 755 519 744 c 2
 531 715 l 2
 548 678 555 659 567 626 c 2
 594 552 l 2
 599 540 600 536 601 529 c 0
 601 524 599 521 594 521 c 0
 582 521 567 526 555 533 c 0
 549 535 545 540 542 548 c 2
 522 588 l 2
 509 614 492 649 473 694 c 0
 454 739 444 766 444 776 c 0xe2
27 451 m 1
 268 451 l 1
 268 490 271 539 278 599 c 0
 285 660 293 721 301 784 c 1
 407 784 l 1xe6
 402 744 395 691 388 627 c 2
 375 502 l 1
 370 451 l 1
 557 451 l 2
 578 451 588 448 588 441 c 2
 583 428 l 2
 578 419 556 386 545 358 c 2
 528 317 l 2
 525 310 522 306 517 306 c 0
 512 306 512 306 504 330 c 2
 477 406 l 2
 472 420 466 427 459 428 c 0
 453 429 440 430 419 430 c 2
 368 430 l 1
 364 381 l 1
 353 217 l 1
 352 188 l 1xea
 462 222 l 1
 483 226 l 2
 488 226 492 221 496 216 c 2
 542 108 l 1
 549 91 l 2
 562 58 572 32 576 25 c 0
 580 18 583 13 583 6 c 0
 583 -2 576 -7 561 -8 c 2
 433 -11 l 2
 352 -11 304 -8 240 0 c 1xf2
 240 39 244 117 252 236 c 0
 261 355 265 419 265 430 c 1xea
 180 430 l 2
 175 430 170 430 166 430 c 0
 146 430 139 428 139 404 c 2
 136 273 l 2
 136 232 135 208 134 200 c 0
 133 192 129 187 124 186 c 0
 115 185 107 184 96 184 c 2
 27 184 l 1
 27 203 28 238 29 288 c 0
 31 339 32 366 32 369 c 2
 32 384 l 2
 32 411 31 418 27 451 c 1
373 172 m 1
 351 166 l 1
 348 79 l 1
 348 29 l 2xf2
 348 22 350 17 355 16 c 0
 364 13 408 13 441 13 c 0
 461 13 469 18 469 26 c 0
 469 29 469 33 468 36 c 0
 464 45 455 65 442 98 c 0
 415 163 408 179 396 179 c 2
 381 175 l 1
 373 172 l 1
EndSplineSet
Validated: 1
LCarets2: 1 0
Ligature2: "'ccmp' Canonical Composition and Precomposed Glyphs-1" afii10194 gravecomb
EndChar

StartChar: uniE904
Encoding: 59652 59652 96
Width: 630
Flags: W
HStem: -11 24<360.447 473.947> 430 21<146.008 269 375 465.759> 608 20G<285.5 392> 640 21G<184 244 432 492> 749 64<280.419 402.903>
VStem: 34 106<186.05 429.721> 184 60<640 710.906> 245 108<16.0498 166 188 217> 269 88<190.299 261.727> 432 60<640 717.875> 474 114<1.5 58.8652>
DStem2: 257 233 358 217 0.0824434 0.996596<-36.6025 196.764 226.986 396.294> 357 188 356 166 0.954636 0.297776<0 39.324> 546 108 447 98 0.388701 -0.921364<-123.267 47.4352>
AnchorPoint: "Yerik" 337 893 basechar 0
AnchorPoint: "Above" 337 893 basechar 0
LayerCount: 2
Fore
SplineSet
244 640 m 1xfe40
 184 640 l 1
 184 744 248 813 339 813 c 0
 380 813 415 799 446 771 c 0
 477 744 492 700 492 640 c 1
 432 640 l 1
 432 705 404 749 343 749 c 0
 286 749 244 708 244 640 c 1xfe40
31 451 m 2
 273 451 l 1
 273 510 282 573 289 628 c 1
 392 628 l 1
 380 502 l 1
 375 451 l 1
 562 451 l 2
 582 451 592 448 592 441 c 0
 588 426 569 400 560 383 c 0
 556 374 550 359 541 338 c 0
 533 317 527 306 522 306 c 0
 518 306 513 314 508 330 c 2
 481 406 l 2
 477 417 472 424 466 426 c 0
 461 429 447 430 424 430 c 2
 372 430 l 1
 368 381 l 1
 358 217 l 1
 357 188 l 1xfe80
 466 222 l 1
 487 226 l 2
 496 226 500 220 501 216 c 2
 546 108 l 1
 553 91 l 2
 554 88 559 76 567 57 c 0
 576 38 581 27 582 24 c 0
 585 19 588 13 588 6 c 0
 588 -3 579 -7 566 -8 c 2
 438 -11 l 2
 397 -11 362 -10 335 -8 c 0
 308 -7 278 -4 245 0 c 1xff20
 245 36 249 114 257 233 c 0
 265 353 269 419 269 430 c 1xfe80
 185 430 l 2
 180 430 175 430 171 430 c 0
 151 430 144 428 144 404 c 2
 140 273 l 2
 140 233 139 209 138 200 c 0
 137 192 133 187 128 186 c 0
 117 185 116 185 101 184 c 2
 32 184 l 1
 32 193 33 212 34 239 c 0
 35 266 36 294 36 322 c 0
 36 349 35 377 33 404 c 0
 32 432 31 448 31 451 c 2
377 172 m 1
 356 166 l 1
 353 79 l 1
 353 29 l 2
 353 22 355 17 360 16 c 0
 369 13 413 13 446 13 c 0
 466 13 474 18 474 26 c 0xff20
 474 29 474 33 473 36 c 0
 469 45 460 65 447 98 c 0
 420 165 413 179 401 179 c 2
 385 175 l 1
 377 172 l 1
EndSplineSet
Validated: 1
LCarets2: 1 0
Ligature2: "'ccmp' Canonical Composition and Precomposed Glyphs-1" afii10194 uni0311
EndChar

StartChar: afii10043
Encoding: 1065 1065 97
Width: 796
Flags: W
HStem: 0 21<34 84 197 342 455 599 712 762> 607 21<34 84 197 248 290 342 455 506 548 599 713 762>
VStem: 84 113<21 607> 342 113<-81.5575 0 21 607> 599 113<21 607>
AnchorPoint: "Yerik" 658 680 basechar 0
AnchorPoint: "Above" 391 680 basechar 0
LayerCount: 2
Fore
SplineSet
34 0 m 1
 34 21 l 1
 84 21 l 1
 84 607 l 1
 34 607 l 1
 34 628 l 1
 248 628 l 1
 248 607 l 1
 197 607 l 1
 197 21 l 1
 342 21 l 1
 342 607 l 1
 290 607 l 1
 290 628 l 1
 506 628 l 1
 506 607 l 1
 455 607 l 1
 455 21 l 1
 599 21 l 1
 599 607 l 1
 548 607 l 1
 548 628 l 1
 762 628 l 1
 762 607 l 1
 713 607 l 1
 712 21 l 1
 762 21 l 1
 762 0 l 1
 455 0 l 1
 455 -59 461 -79 504 -103 c 1
 451 -122 426 -142 398 -202 c 1
 383 -172 369 -150 354 -137 c 0
 339 -124 319 -112 292 -103 c 1
 333 -79 342 -60 342 0 c 1
 34 0 l 1
EndSplineSet
Validated: 1
EndChar

StartChar: afii10101
Encoding: 1108 1108 98
Width: 556
Flags: W
HStem: -244 53<217 330.91> 392 60<241.788 342.788>
VStem: 33 98<66.3704 239.393>
AnchorPoint: "Yerik" 437 623 basechar 0
AnchorPoint: "Above" 317 623 basechar 0
LayerCount: 2
Fore
SplineSet
418 -127 m 1
 435 -150 l 1
 355 -221 293 -244 249 -244 c 0
 185 -244 150 -208 110 -144 c 0
 90 -113 72 -72 56 -22 c 0
 41 27 33 75 33 120 c 0
 33 215 67 299 152 370 c 0
 195 405 230 428 259 437 c 0
 288 447 315 452 339 452 c 0
 415 452 462 418 493 386 c 2
 508 372 l 2
 518 365 523 359 523 355 c 0
 523 350 518 346 507 344 c 2
 381 316 l 2
 369 313 363 317 363 329 c 0
 363 366 325 392 286 392 c 0
 249 392 213 370 180 327 c 0
 147 284 131 229 131 163 c 0
 131 132 135 102 142 65 c 1
 184 95 l 2
 236 132 288 171 320 191 c 0
 353 211 365 216 381 216 c 0
 383 216 384 216 386 216 c 0
 408 216 430 182 484 112 c 0
 503 89 515 76 518 73 c 0
 526 66 540 50 540 45 c 0
 540 36 527 33 514 33 c 0
 498 33 485 33 474 33 c 0
 457 33 443 33 429 31 c 2
 410 29 l 2
 394 29 388 37 361 73 c 0
 334 110 321 122 305 122 c 0
 290 122 260 107 215 78 c 0
 171 49 149 35 148 35 c 1
 169 -48 194 -106 224 -140 c 0
 254 -174 281 -191 304 -191 c 0
 331 -191 367 -169 411 -133 c 2
 418 -127 l 1
EndSplineSet
Validated: 1
EndChar

StartChar: afii10027
Encoding: 1049 1049 99
Width: 556
Flags: W
HStem: 0 21<31 86 200 255 300 355 469 525> 607 21<31 86 200 255 300 355 469 525> 693 72<231.672 322.804>
VStem: 86 114<21 305 329 607> 180 40<779.077 853.604> 321 33<820.515 872.484> 333 35<778.528 853.851> 355 114<21 391 415 607>
DStem2: 200 329 200 305 0.874423 0.485164<0 165.616>
AnchorPoint: "Yerik" 287 930 basechar 0
AnchorPoint: "Above" 289 930 basechar 0
LayerCount: 2
Fore
SplineSet
333 820 m 0xea
 333 831 330 841 325 851 c 2
 321 867 l 2
 321 873 324 876 330 876 c 0
 337 876 345 866 354 847 c 0xe4
 363 828 368 809 368 788 c 0
 368 758 358 735 337 718 c 0
 317 701 295 693 272 693 c 0
 225 693 180 729 180 782 c 0
 180 805 185 827 195 846 c 0
 206 865 215 875 223 875 c 0
 231 875 235 871 235 863 c 0
 235 863 235 863 235 862 c 0
 235 860 224 853 220 820 c 0
 220 783 252 765 279 765 c 0
 316 765 333 793 333 820 c 0xea
31 0 m 1
 31 21 l 1
 86 21 l 1
 86 607 l 1
 31 607 l 1
 31 628 l 1
 255 628 l 1
 255 607 l 1
 200 607 l 1
 200 329 l 1
 355 415 l 1
 355 607 l 1
 300 607 l 1
 300 628 l 1
 525 628 l 1
 525 607 l 1
 469 607 l 1
 469 21 l 1
 525 21 l 1
 525 0 l 1
 300 0 l 1
 300 21 l 1
 355 21 l 1
 355 391 l 1
 200 305 l 1
 200 21 l 1xf1
 255 21 l 1
 255 0 l 1
 31 0 l 1
EndSplineSet
Validated: 1
LCarets2: 1 0
Ligature2: "'ccmp' Canonical Composition and Precomposed Glyphs-1" afii10026 uni0306
EndChar

StartChar: uniE8E1
Encoding: 59617 59617 100
Width: 507
Flags: W
HStem: -13 30<178.617 298.334>
VStem: 20 96<541.086 595.563> 103 31<57.5002 167.743> 335 93<45.7205 164.246>
DStem2: 177 490 118 398 0.642815 -0.766021<-110.66 150.446 172.522 173.701 195.946 394.197> 269 726 327 701 0.50035 0.865823<-161.758 94.3579> 274 375 327 401 0.564684 0.825307<0.483236 321.65>
AnchorPoint: "Yerik" 256 821 basechar 0
AnchorPoint: "Above" 257 821 basechar 0
LayerCount: 2
Fore
SplineSet
136 653 m 1xd0
 155 634 l 1
 132 618 116 604 116 584 c 0xd0
 116 569 138 539 154 518 c 2
 173 494 l 1
 177 490 l 1
 274 375 l 1
 337 470 l 2
 364 511 390 552 413 591 c 0
 437 631 449 657 449 670 c 0
 449 683 442 690 428 690 c 0
 417 690 409 686 408 686 c 2
 387 682 l 2
 377 682 372 687 372 696 c 0
 372 709 394 720 455 748 c 0
 486 762 505 770 510 771 c 0
 515 773 520 774 525 774 c 0
 538 774 544 767 544 753 c 0
 544 740 538 722 525 699 c 0
 513 676 499 653 483 629 c 0
 468 605 437 560 391 493 c 2
 376 472 l 2
 351 435 334 411 327 401 c 0
 320 392 308 376 291 355 c 1
 376 264 428 199 428 122 c 0
 428 72 410 37 374 17 c 0
 338 -3 298 -13 255 -13 c 0
 156 -13 103 33 103 102 c 0xb0
 103 167 146 225 209 294 c 1
 176 331 145 365 118 398 c 0
 65 463 20 526 20 559 c 0
 20 570 27 582 41 595 c 0
 55 608 87 628 136 653 c 1xd0
378 794 m 0
 378 785 372 772 361 756 c 2
 327 701 l 1
 273 617 l 2
 254 586 240 567 232 560 c 0
 224 553 210 550 191 550 c 0
 186 551 178 552 178 561 c 0
 178 566 181 572 186 581 c 2
 225 650 l 1
 269 726 l 1
 288 759 l 1
 301 780 l 2
 305 787 315 793 330 796 c 0
 345 799 357 801 366 801 c 0
 374 801 378 799 378 794 c 0
228 277 m 1
 161 205 134 150 134 107 c 0xb0
 134 59 170 17 241 17 c 0
 304 17 335 56 335 95 c 0
 335 146 291 205 228 277 c 1
EndSplineSet
Validated: 1
LCarets2: 1 0
Ligature2: "'ccmp' Canonical Composition and Precomposed Glyphs-1" uniA64B acutecomb
EndChar

StartChar: uniE926
Encoding: 59686 59686 101
Width: 278
GlyphClass: 3
Flags: W
HStem: 0 21G<84 198> 431 20G<90 203> 431 20G<90 203> 540 111<108 177>
VStem: 80 112<0 448.939> 90 87<564 651> 108 89<540 629>
AnchorPoint: "Yerik" 137 743 basechar 0
AnchorPoint: "Above" 137 745 basechar 0
LayerCount: 2
Fore
SplineSet
108 540 m 1x92
 90 651 l 1
 177 651 l 1x94
 197 540 l 1
 108 540 l 1x92
198 0 m 1
 84 0 l 1
 84 9 83 34 82 73 c 0
 81 112 80 148 80 179 c 0
 80 238 81 287 83 326 c 0
 85 365 88 407 92 451 c 1
 203 451 l 1
 199 415 196 381 194 349 c 0
 193 318 192 269 192 202 c 0xd8
 192 162 193 121 195 79 c 0
 197 37 198 11 198 0 c 1
EndSplineSet
Validated: 1
LCarets2: 1 0
Ligature2: "'ccmp' Canonical Composition and Precomposed Glyphs-1" afii10103 uni0307
EndChar

StartChar: afii10054
Encoding: 1029 1029 102
Width: 593
Flags: W
HStem: -11 58<276.573 410.893> 96 34<87.5 180.733> 285 27<297.966 391.481> 367 27<192.5 338.902> 436 20G<417.5 450.8> 601 37<241.866 351.733>
VStem: 30 110<23.1569 95.3885> 95 103<433.626 560.982> 453 102<90.4491 234.547>
DStem2: 140 232 162 204 0.790513 0.612445<0.24282 144.693 167.06 227.778 245.903 369.599>
AnchorPoint: "Yerik" 478 680 basechar 0
AnchorPoint: "Above" 289 680 basechar 0
LayerCount: 2
Fore
SplineSet
140 232 m 1xfe80
 322 369 l 1
 314 379 l 1
 293 372 267 367 239 367 c 0
 146 367 95 426 95 495 c 0
 95 530 108 562 134 592 c 0
 161 623 203 638 260 638 c 0
 288 638 312 635 331 628 c 0
 350 621 375 610 405 594 c 1
 423 617 l 1
 430 626 l 2
 433 630 435 632 440 636 c 0
 443 636 445 628 445 611 c 2
 445 540 l 2
 445 520 444 511 437 511 c 0
 433 511 428 517 423 529 c 0
 415 544 401 559 382 576 c 0
 363 593 337 601 304 601 c 0
 239 601 198 552 198 497 c 4xfd80
 198 438 243 394 306 394 c 0
 323 394 341 397 358 404 c 0
 375 411 401 428 434 456 c 1
 455 431 l 1
 294 306 l 1
 299 299 l 1
 334 310 370 312 387 312 c 0
 432 312 471 297 504 268 c 0
 538 239 555 202 555 156 c 0
 555 113 539 74 508 40 c 0
 477 6 432 -11 373 -11 c 0
 338 -11 309 -6 287 5 c 0
 265 16 241 32 214 53 c 0
 188 75 172 88 167 91 c 0
 162 94 157 96 152 96 c 0
 144 96 140 93 140 86 c 0xfe80
 140 81 142 79 143 78 c 2
 152 65 l 2
 156 60 158 53 158 44 c 0
 158 13 131 -13 95 -13 c 0xfd80
 59 -13 30 11 30 50 c 0
 30 87 59 130 116 130 c 0
 128 130 142 128 157 123 c 0
 172 118 201 104 244 81 c 0
 287 58 322 47 351 47 c 0
 412 47 453 101 453 162 c 0
 453 237 405 285 330 285 c 0
 283 285 251 271 211 240 c 2
 173 212 l 1
 162 204 l 1
 140 232 l 1xfe80
EndSplineSet
Validated: 1
EndChar

StartChar: uni2DE9
Encoding: 11753 11753 103
Width: 1
Flags: HW
HStem: 509 172<-352 -305 -235 -190> 586 20<-305 -241>
VStem: -354 50<509 586 606 681> -241 51<509.376 586 606 681> -237 51<509 585.375 644 681>
AnchorPoint: "Stack" -295 774 basemark 0
AnchorPoint: "Stack" -273 495 mark 0
AnchorPoint: "Above" -273 498 mark 0
LayerCount: 2
Fore
SplineSet
-186 499 m 5xa8
 -237 499 l 5xa8
 -240 540 l 5
 -241 576 l 5
 -305 576 l 5x70
 -304 538 l 5
 -301 499 l 5
 -352 499 l 5
 -352 508 -353 523 -354 545 c 4
 -355 568 -356 582 -356 588 c 4
 -356 600 -355 615 -354 633 c 4
 -353 651 -352 664 -352 671 c 5
 -299 671 l 5xb0
 -303 633 l 5
 -305 596 l 5
 -241 596 l 5x70
 -239 634 l 5
 -235 671 l 5
 -184 671 l 5
 -188 637 -190 607 -190 582 c 6
 -190 529 l 6xb0
 -188 517 -187 507 -186 499 c 5xa8
EndSplineSet
Validated: 1
EndChar

StartChar: uni0483
Encoding: 1155 1155 104
Width: 1
GlyphClass: 4
Flags: W
HStem: 713 106
VStem: -427 63<715 764> -139 61<770 819>
DStem2: -411 801 -365 764 0.993843 -0.1108<-34.7178 -15.0084 49.8164 273.76 335.714 355.333>
AnchorPoint: "Stack" -272 984 basemark 0
AnchorPoint: "Stack" -250 705 mark 0
AnchorPoint: "Above" -249 706 mark 0
LayerCount: 2
Fore
SplineSet
-427 713 m 1
 -429 775 l 1
 -442 778 -448 783 -448 790 c 0
 -448 799 -444 803 -435 803 c 2
 -411 801 l 1
 -139 770 l 1
 -141 819 l 1
 -79 820 l 1
 -78 758 l 1
 -65 757 -58 751 -58 742 c 0
 -58 735 -62 731 -71 731 c 2
 -106 734 l 1
 -365 764 l 1
 -364 715 l 1
 -427 713 l 1
EndSplineSet
Validated: 1
AlternateSubs2: "'salt' Stylistic Alternatives in Cyrillic-1" uni0483.tiny uni0483.short uni0483.long
Substitution2: "Long Titlo-1" uni0483.long
Substitution2: "Short Titlo-1" uni0483.short
Substitution2: "Tiny Titlo-1" uni0483.tiny
EndChar

StartChar: uni0483.short
Encoding: 1114113 -1 105
Width: 0
Flags: W
HStem: 578 113<-429 -362> 642 26<-65.891 -43.0526> 664 27<-449.139 -429>
VStem: -429 67<578 661> -132 66<673 756>
DStem2: -412 691 -362 661 0.997969 -0.0637002<51.8095 280.578>
AnchorPoint: "Stack" -256 862 basemark 0
AnchorPoint: "Stack" -234 583 mark 0
AnchorPoint: "Above" -235 584 mark 0
LayerCount: 2
Fore
SplineSet
-429 578 m 1x98
 -429 664 l 1
 -442 668 -450 673 -450 682 c 0
 -450 688 -444 691 -432 691 c 2x38
 -412 691 l 1x98
 -132 673 l 1
 -132 756 l 1
 -66 756 l 1
 -66 668 l 1
 -51 668 -43 663 -43 654 c 0
 -43 646 -50 642 -63 642 c 0x58
 -70 642 -76 642 -80 643 c 2
 -362 661 l 1
 -362 578 l 1
 -429 578 l 1x98
EndSplineSet
Validated: 1
EndChar

StartChar: uni2DEF
Encoding: 11759 11759 106
Width: 0
Flags: HW
HStem: 615 21<-413.217 -342.983 -88.1682 -16.4751> 788 32<-366.005 -304.182 -129.053 -70.9716>
VStem: -423 52<759.577 786.984> -61 52<759.577 785.76>
AnchorPoint: "Stack" -249 832 basemark 0
AnchorPoint: "Stack" -227 553 mark 0
AnchorPoint: "Above" -227 552 mark 0
LayerCount: 2
Fore
SplineSet
-371 674 m 5
 -423 692 l 5
 -420 705 -415 718 -408 731 c 4
 -401 744 -383 750 -354 750 c 4
 -320 750 -291 741 -268 723 c 4
 -245 705 -226 687 -209 668 c 5
 -190 687 -169 705 -146 723 c 4
 -123 741 -101 750 -78 750 c 4
 -49 750 -30 744 -23 731 c 4
 -16 718 -11 705 -9 692 c 5
 -61 674 l 5
 -61 678 -61 681 -61 685 c 4
 -61 698 -63 711 -78 716 c 4
 -82 718 -86 718 -91 718 c 4
 -103 718 -117 712 -132 700 c 4
 -153 683 -173 666 -192 647 c 5
 -177 628 -156 604 -120 588 c 4
 -102 580 -79 573 -51 566 c 4
 -23 559 -9 554 -9 550 c 4
 -9 547 -15 545 -27 545 c 4
 -50 545 -77 549 -109 556 c 4
 -174 571 -202 598 -223 619 c 5
 -242 602 -274 578 -311 563 c 4
 -350 550 -378 544 -401 544 c 4
 -416 544 -423 546 -423 550 c 4
 -423 553 -410 557 -384 564 c 4
 -358 571 -335 578 -314 587 c 4
 -273 606 -249 628 -240 637 c 5
 -255 655 -272 673 -291 691 c 4
 -310 709 -328 718 -343 718 c 4
 -363 718 -371 701 -371 674 c 5
EndSplineSet
Validated: 1
EndChar

StartChar: uni0483.tiny
Encoding: 1114114 -1 107
Width: 0
Flags: W
HStem: 581 113<-313 -246> 653 26<-44.891 -22.0526> 667 27<-333.139 -313>
VStem: -313 67<581 664> -111 66<684 767>
DStem2: -296 694 -246 664 0.998573 -0.0533996<51.5307 185.27>
AnchorPoint: "Stack" -197 865 basemark 0
AnchorPoint: "Stack" -175 586 mark 0
AnchorPoint: "Above" -177 589 mark 0
LayerCount: 2
Fore
SplineSet
-313 581 m 1x98
 -313 667 l 1
 -326 671 -334 676 -334 685 c 0
 -334 691 -328 694 -316 694 c 2x38
 -296 694 l 1x98
 -111 684 l 1
 -111 767 l 1
 -45 767 l 1
 -45 679 l 1
 -30 679 -22 674 -22 665 c 0
 -22 657 -29 653 -42 653 c 0x58
 -49 653 -55 653 -59 654 c 2
 -246 664 l 1
 -246 581 l 1
 -313 581 l 1x98
EndSplineSet
Validated: 1
EndChar

StartChar: uni2DE5
Encoding: 11749 11749 108
Width: 1
Flags: HW
HStem: 555 4<-135.997 -128.775> 650 21G<-320.5 -303.5>
VStem: -377 49<554.107 651.945> -375 105<664.279 732.853> -88 35<577.395 635.058>
AnchorPoint: "Stack" -256 852 basemark 0
AnchorPoint: "Stack" -235 533 mark 0
AnchorPoint: "Above" -237 530 mark 0
LayerCount: 2
Fore
SplineSet
-136 529 m 4xd8
 -128 531 -118 534 -106 539 c 4
 -94 544 -88 557 -88 577 c 4
 -88 590 -97 602 -115 611 c 4
 -134 620 -152 630 -171 639 c 4
 -204 659 -226 715 -243 760 c 5
 -259 752 -293 718 -295 705 c 5
 -279 696 -270 685 -270 669 c 4xd8
 -270 644 -291 620 -316 620 c 4
 -325 620 -328 621 -329 622 c 5
 -328 621 -328 618 -328 615 c 4
 -328 612 -330 595 -334 566 c 4
 -339 537 -345 523 -354 523 c 4
 -357 523 -377 534 -377 548 c 4xe8
 -377 553 -375 563 -371 578 c 4
 -363 607 -357 620 -350 632 c 5
 -361 639 -375 649 -375 670 c 4
 -375 691 -353 717 -329 717 c 4
 -322 717 -319 716 -315 715 c 5
 -304 741 -262 780 -236 791 c 5
 -223 751 -198 720 -127 685 c 4
 -92 668 -71 653 -64 640 c 4
 -57 628 -53 612 -53 591 c 4
 -53 546 -93 525 -125 525 c 4
 -132 525 -136 526 -136 529 c 4xd8
EndSplineSet
Validated: 1
EndChar

StartChar: uni2DE1
Encoding: 11745 11745 109
Width: 1
Flags: HW
HStem: 509 21<-148 -83> 660 21<-147 -83>
VStem: -199 51<530 660> -83 48<530.375 660>
AnchorPoint: "Stack" -136 772 basemark 0
AnchorPoint: "Stack" -114 493 mark 0
AnchorPoint: "Above" -113 494 mark 0
LayerCount: 2
Fore
SplineSet
-29 671 m 5
 -33 637 -35 607 -35 582 c 6
 -35 529 l 6
 -33 517 -32 507 -31 499 c 5
 -197 499 l 5
 -197 508 -198 523 -199 545 c 4
 -200 568 -201 582 -201 588 c 4
 -201 600 -200 615 -199 633 c 4
 -198 651 -197 664 -197 671 c 5
 -29 671 l 5
-148 520 m 5
 -83 520 l 5
 -86 543 -87 564 -87 588 c 4
 -87 608 -86 629 -83 650 c 5
 -147 650 l 5
 -150 588 l 5
 -148 520 l 5
EndSplineSet
Validated: 1
EndChar

StartChar: uni0483.long
Encoding: 1114115 -1 110
Width: 0
Flags: W
HStem: 581 113<-541 -474> 650 114<-95 -29> 650 26<-258.5 -95 -29 -6.05263> 667 27<-561.139 -541 -474 -293>
VStem: -541 67<581 664> -95 66<681 764>
AnchorPoint: "Stack" -301 869 basemark 0
AnchorPoint: "Stack" -279 590 mark 0
AnchorPoint: "Above" -279 588 mark 0
LayerCount: 2
Fore
SplineSet
-541 581 m 1x8c
 -541 667 l 1
 -554 671 -562 676 -562 685 c 0
 -562 691 -556 694 -544 694 c 2x1c
 -524 694 l 1x8c
 -95 681 l 1
 -95 764 l 1
 -29 764 l 1x4c
 -29 676 l 1
 -14 676 -6 671 -6 662 c 0
 -6 654 -13 650 -26 650 c 0x2c
 -33 650 -39 650 -43 651 c 2
 -474 664 l 1
 -474 581 l 1
 -541 581 l 1x8c
EndSplineSet
Validated: 1
EndChar

StartChar: uni2DED
Encoding: 11757 11757 111
Width: 1
Flags: HW
HStem: 785 42<-298.675 -244>
VStem: -354 53<710.865 781.708>
AnchorPoint: "Stack" -286 782 basemark 0
AnchorPoint: "Stack" -294 503 mark 0
AnchorPoint: "Above" -297 501 mark 0
LayerCount: 2
Fore
SplineSet
-354 504 m 5
 -354 561 l 6
 -354 601 -349 627 -338 639 c 4
 -327 651 -296 657 -244 657 c 5
 -244 638 l 6
 -244 634 -244 630 -244 628 c 4
 -244 620 -246 619 -267 615 c 4
 -295 610 -301 608 -301 576 c 6
 -301 549 l 6
 -301 540 -299 536 -294 536 c 4
 -293 536 -293 536 -292 536 c 4
 -280 536 -256 561 -249 563 c 5
 -244 560 -242 557 -242 554 c 4
 -242 543 -261 517 -278 510 c 4
 -297 505 -306 504 -325 504 c 6
 -354 504 l 5
EndSplineSet
Validated: 1
EndChar

StartChar: uniE002
Encoding: 57346 57346 112
Width: 1
GlyphClass: 4
Flags: W
HStem: 804 63<-375.734 -289.145>
VStem: -281 51<719.918 795.756>
DStem2: -199 723 -83 866 0.343431 0.939178<9.3717 163.967>
AnchorPoint: "Stack" -266 962 basemark 0
AnchorPoint: "Stack" -244 683 mark 0
AnchorPoint: "Above" -243 686 mark 0
LayerCount: 2
Fore
SplineSet
-293 691 m 0
 -298 692 -303 693 -303 700 c 2
 -301 707 l 1
 -290 726 l 2
 -284 737 -281 748 -281 758 c 0
 -281 786 -305 804 -329 804 c 0
 -330 804 -330 804 -331 804 c 0
 -366 804 -408 758 -414 758 c 0
 -415 758 -415 759 -415 759 c 1
 -422 759 -426 763 -426 772 c 0
 -426 785 -415 804 -393 829 c 0
 -371 854 -345 867 -314 867 c 0
 -273 867 -230 841 -230 788 c 0
 -230 763 -237 741 -251 721 c 0
 -265 701 -279 691 -293 691 c 0
-154 711 m 1
 -161 698 l 2
 -168 683 -185 680 -206 680 c 0
 -210 682 -212 684 -212 686 c 2
 -210 694 l 1
 -199 723 l 1
 -173 795 l 1
 -161 828 l 1
 -150 857 l 2
 -147 864 -143 867 -138 868 c 2
 -91 873 l 2
 -86 873 -83 871 -83 866 c 2
 -88 852 l 1
 -154 711 l 1
EndSplineSet
Validated: 1
EndChar

StartChar: afii10055
Encoding: 1030 1030 113
Width: 296
Flags: W
HStem: 0 34<214.776 267.433> 608 20G<28 259>
VStem: 59 178<266.431 363.331> 111 74<63.0393 258.547 371.134 566.127>
AnchorPoint: "Yerik" 148 680 basechar 0
AnchorPoint: "Above" 147 680 basechar 0
LayerCount: 2
Fore
SplineSet
185 250 m 1xd0
 185 199 l 2
 185 147 188 109 195 85 c 0
 202 61 217 44 238 34 c 0
 260 25 271 17 271 10 c 0
 271 1 269 0 246 0 c 2
 52 0 l 2
 25 0 24 1 24 10 c 0
 24 16 35 24 56 34 c 0
 100 54 111 100 111 199 c 2
 111 250 l 1xd0
 74 259 59 288 59 315 c 0xe0
 59 352 79 371 111 379 c 1
 111 431 l 2
 111 482 107 520 100 544 c 0
 93 568 79 585 57 594 c 0
 35 604 24 612 24 619 c 0
 24 624 25 626 28 627 c 2
 58 628 l 1
 249 628 l 2
 269 628 271 628 271 620 c 0
 271 613 260 604 239 594 c 0
 196 575 185 531 185 431 c 2
 185 379 l 1xd0
 221 370 237 340 237 315 c 0xe0
 237 290 221 259 185 250 c 1xd0
EndSplineSet
Validated: 1
EndChar

StartChar: parenleft
Encoding: 40 40 114
Width: 251
Flags: W
HStem: -182 19<256.787 275> 732 15<261.277 275>
VStem: 61 88<93.2867 478.041>
LayerCount: 2
Fore
SplineSet
275 -182 m 1
 143 -170 61 73 61 276 c 0
 61 278 61 279 61 281 c 0
 61 479 126 731 275 747 c 1
 275 732 l 1
 167 698 149 486 149 307 c 0
 149 296 149 286 149 276 c 0
 150 98 173 -130 275 -163 c 1
 275 -182 l 1
EndSplineSet
Validated: 1
EndChar

StartChar: parenright
Encoding: 41 41 115
Width: 251
Flags: W
HStem: -182 19<-24 -5.78687> 732 15<-24 -10.2768>
VStem: 102 88<93.2867 478.041>
LayerCount: 2
Fore
SplineSet
-24 -182 m 1
 -24 -163 l 1
 78 -130 101 98 102 276 c 0
 102 286 102 296 102 307 c 0
 102 486 84 698 -24 732 c 1
 -24 747 l 1
 125 731 190 479 190 281 c 0
 190 279 190 278 190 276 c 0
 190 73 108 -170 -24 -182 c 1
EndSplineSet
Validated: 1
EndChar

StartChar: guillemotleft
Encoding: 171 171 116
Width: 480
Flags: W
HStem: -5 21G<212.767 255 402.498 447>
LayerCount: 2
Fore
SplineSet
255 -5 m 1
 229 -5 l 1
 48 218 l 1
 229 437 l 1
 255 437 l 1
 141 218 l 1
 255 -5 l 1
447 -5 m 1
 419 -5 l 1
 235 218 l 1
 419 437 l 1
 447 437 l 1
 334 218 l 1
 447 -5 l 1
EndSplineSet
Validated: 1
EndChar

StartChar: guillemotright
Encoding: 187 187 117
Width: 480
Flags: W
HStem: -5 21G<33 77.6516 225 267.38>
VStem: 146 99<166.5 265.5> 339 93<169.5 262.5>
LayerCount: 2
Fore
SplineSet
225 437 m 1
 251 437 l 1
 432 216 l 1
 251 -5 l 1
 225 -5 l 1
 339 216 l 1
 225 437 l 1
33 437 m 1
 61 437 l 1
 245 216 l 1
 61 -5 l 1
 33 -5 l 1
 146 216 l 1
 33 437 l 1
EndSplineSet
Validated: 1
EndChar

StartChar: logicalnot
Encoding: 172 172 118
Width: 541
Flags: W
HStem: 373 39<17 486>
VStem: 486 37<221 373>
LayerCount: 2
Fore
SplineSet
17 412 m 1
 523 412 l 1
 523 221 l 1
 486 221 l 1
 486 373 l 1
 17 373 l 1
 17 412 l 1
EndSplineSet
Validated: 1
EndChar

StartChar: endash
Encoding: 8211 8211 120
Width: 410
Flags: W
HStem: 229 54<25 383>
LayerCount: 2
Fore
SplineSet
383 229 m 1
 25 229 l 1
 25 283 l 1
 383 283 l 1
 383 229 l 1
EndSplineSet
Validated: 1
EndChar

StartChar: emdash
Encoding: 8212 8212 121
Width: 543
Flags: W
HStem: 229 54<25 516>
LayerCount: 2
Fore
SplineSet
516 229 m 1
 25 229 l 1
 25 283 l 1
 516 283 l 1
 516 229 l 1
EndSplineSet
Validated: 1
EndChar

StartChar: paragraph
Encoding: 182 182 122
Width: 441
Flags: W
HStem: 610 20G<167.5 251 312 373>
VStem: 40 1<456.288 484.62 489 489.999> 191 60<-146 326> 312 61<-146 630>
LayerCount: 2
Fore
SplineSet
191 -146 m 1
 191 326 l 1
 148 327 113 341 87 368 c 0
 62 395 47 424 41 456 c 0
 41 462 40 477 40 485 c 0
 40 488 40 490 41 490 c 0
 41 490 41 490 41 489 c 1
 42 523 56 555 82 583 c 0
 108 612 144 627 191 630 c 2
 251 630 l 1
 251 -146 l 1
 191 -146 l 1
312 -146 m 1
 312 630 l 1
 373 630 l 1
 373 -146 l 1
 312 -146 l 1
EndSplineSet
Validated: 1
EndChar

StartChar: periodcentered
Encoding: 183 183 123
Width: 159
Flags: W
HStem: 170 90<43.4399 118.56>
VStem: 37 88<176.481 253.519>
LayerCount: 2
Fore
SplineSet
37 215 m 0
 37 240 57 260 81 260 c 0
 105 260 125 240 125 215 c 0
 125 190 105 170 81 170 c 0
 57 170 37 190 37 215 c 0
EndSplineSet
Validated: 1
EndChar

StartChar: quotedblbase
Encoding: 8222 8222 124
Width: 480
Flags: W
HStem: -11 21G<42 64 252 274> 40 65<88.6254 154.75 298.625 364.75>
VStem: 42 10<-11 -4.00024> 161 59<-34.5873 34.3639> 252 10<-11 -4.00024> 371 59<-34.5873 34.3639>
LayerCount: 2
Fore
SplineSet
104 -119 m 1
 88 -119 l 1
 137 -75 161 -41 161 -8 c 0
 161 23 144 40 116 40 c 0
 92 40 76 28 52 -11 c 1
 42 -11 l 1
 45 20 56 47 75 70 c 0
 95 93 118 105 144 105 c 0
 189 105 220 72 220 28 c 0
 220 -20 189 -59 104 -119 c 1
314 -119 m 1
 298 -119 l 1
 347 -75 371 -41 371 -8 c 0
 371 23 354 40 326 40 c 0
 302 40 286 28 262 -11 c 1
 252 -11 l 1
 255 20 266 47 285 70 c 0
 305 93 328 105 354 105 c 0
 399 105 430 72 430 28 c 0
 430 -20 399 -59 314 -119 c 1
EndSplineSet
Validated: 1
EndChar

StartChar: quotedblright
Encoding: 8221 8221 125
Width: 480
Flags: W
HStem: 566 65<88.6254 154.75 298.625 364.75>
VStem: 42 10<515 522> 161 59<491.413 560.364> 252 10<515 522> 371 59<491.413 560.364>
LayerCount: 2
Fore
SplineSet
104 407 m 1
 88 407 l 1
 137 451 161 485 161 518 c 0
 161 549 144 566 116 566 c 0
 92 566 76 554 52 515 c 1
 42 515 l 1
 45 546 56 573 75 596 c 0
 95 619 118 631 144 631 c 0
 189 631 220 598 220 554 c 0
 220 506 189 467 104 407 c 1
314 407 m 1
 298 407 l 1
 347 451 371 485 371 518 c 0
 371 549 354 566 326 566 c 0
 302 566 286 554 262 515 c 1
 252 515 l 1
 255 546 266 573 285 596 c 0
 305 619 328 631 354 631 c 0
 399 631 430 598 430 554 c 0
 430 506 399 467 314 407 c 1
EndSplineSet
Validated: 1
EndChar

StartChar: quotedblleft
Encoding: 8220 8220 126
Width: 469
Flags: W
HStem: 494 65<104.25 171.091 314.25 381.091>
VStem: 39 59<564.636 633.587> 207 10<603 610> 249 59<564.636 633.587> 417 10<603 610>
LayerCount: 2
Fore
SplineSet
365 718 m 1
 381 718 l 1
 332 674 308 640 308 607 c 0
 308 576 325 559 353 559 c 0
 377 559 393 571 417 610 c 1
 427 610 l 1
 424 579 413 551 393 528 c 0
 374 505 351 494 325 494 c 0
 280 494 249 527 249 571 c 0
 249 619 280 658 365 718 c 1
155 718 m 1
 171 718 l 1
 122 674 98 640 98 607 c 0
 98 576 115 559 143 559 c 0
 167 559 183 571 207 610 c 1
 217 610 l 1
 214 579 203 551 183 528 c 0
 164 505 141 494 115 494 c 0
 70 494 39 527 39 571 c 0
 39 619 70 658 155 718 c 1
EndSplineSet
Validated: 1
EndChar

StartChar: quotesinglbase
Encoding: 8218 8218 127
Width: 270
Flags: W
HStem: -11 21G<42 64> 40 65<88.6254 154.75>
VStem: 42 10<-11 -4.00024> 161 59<-34.5873 34.3639>
LayerCount: 2
Fore
SplineSet
104 -119 m 1
 88 -119 l 1
 137 -75 161 -41 161 -8 c 0
 161 23 144 40 116 40 c 0
 92 40 76 28 52 -11 c 1
 42 -11 l 1
 45 20 56 47 75 70 c 0
 95 93 118 105 144 105 c 0
 189 105 220 72 220 28 c 0
 220 -20 189 -59 104 -119 c 1
EndSplineSet
Validated: 1
EndChar

StartChar: quoteleft
Encoding: 8216 8216 128
Width: 259
Flags: W
HStem: 494 65<104.25 171.091>
VStem: 39 59<564.636 633.587> 207 10<603 610>
LayerCount: 2
Fore
SplineSet
155 718 m 1
 171 718 l 1
 122 674 98 640 98 607 c 0
 98 576 115 559 143 559 c 0
 167 559 183 571 207 610 c 1
 217 610 l 1
 214 579 203 551 183 528 c 0
 164 505 141 494 115 494 c 0
 70 494 39 527 39 571 c 0
 39 619 70 658 155 718 c 1
EndSplineSet
Validated: 1
EndChar

StartChar: quoteright
Encoding: 8217 8217 129
Width: 270
Flags: W
HStem: 566 65<88.6254 154.75>
VStem: 42 10<515 522> 161 59<491.413 560.364>
LayerCount: 2
Fore
SplineSet
104 407 m 1
 88 407 l 1
 137 451 161 485 161 518 c 0
 161 549 144 566 116 566 c 0
 92 566 76 554 52 515 c 1
 42 515 l 1
 45 546 56 573 75 596 c 0
 95 619 118 631 144 631 c 0
 189 631 220 598 220 554 c 0
 220 506 189 467 104 407 c 1
EndSplineSet
Validated: 1
EndChar

StartChar: quotedbl
Encoding: 34 34 130
Width: 480
Flags: W
HStem: 566 65<88.6254 154.75 298.625 364.75>
VStem: 42 10<515 522> 161 59<491.413 560.364> 252 10<515 522> 371 59<491.413 560.364>
LayerCount: 2
Fore
SplineSet
104 407 m 1
 88 407 l 1
 137 451 161 485 161 518 c 0
 161 549 144 566 116 566 c 0
 92 566 76 554 52 515 c 1
 42 515 l 1
 45 546 56 573 75 596 c 0
 95 619 118 631 144 631 c 0
 189 631 220 598 220 554 c 0
 220 506 189 467 104 407 c 1
314 407 m 1
 298 407 l 1
 347 451 371 485 371 518 c 0
 371 549 354 566 326 566 c 0
 302 566 286 554 262 515 c 1
 252 515 l 1
 255 546 266 573 285 596 c 0
 305 619 328 631 354 631 c 0
 399 631 430 598 430 554 c 0
 430 506 399 467 314 407 c 1
EndSplineSet
Validated: 1
EndChar

StartChar: quotesingle
Encoding: 39 39 131
Width: 270
Flags: W
HStem: 566 65<88.6254 154.75>
VStem: 42 10<515 522> 161 59<491.413 560.364>
LayerCount: 2
Fore
SplineSet
104 407 m 1
 88 407 l 1
 137 451 161 485 161 518 c 0
 161 549 144 566 116 566 c 0
 92 566 76 554 52 515 c 1
 42 515 l 1
 45 546 56 573 75 596 c 0
 95 619 118 631 144 631 c 0
 189 631 220 598 220 554 c 0
 220 506 189 467 104 407 c 1
EndSplineSet
Validated: 1
EndChar

StartChar: grave
Encoding: 96 96 132
Width: 270
Flags: W
HStem: 566 65<112.25 178.136>
VStem: 47 59<491.413 560.364> 215 10<515 522>
LayerCount: 2
Fore
SplineSet
163 407 m 1
 78 467 47 506 47 554 c 0
 47 598 78 631 123 631 c 0
 149 631 172 619 191 596 c 0
 211 573 222 546 225 515 c 1
 215 515 l 1
 191 554 175 566 151 566 c 0
 123 566 106 549 106 518 c 0
 106 485 130 451 179 407 c 1
 163 407 l 1
EndSplineSet
Validated: 1
EndChar

StartChar: slash
Encoding: 47 47 133
Width: 323
Flags: W
VStem: -17 59<-149 -90> 259 59<652 711>
DStem2: -17 -149 42 -149 0.305579 0.952167<18.0292 903.203>
LayerCount: 2
Fore
SplineSet
42 -149 m 1
 -17 -149 l 1
 259 711 l 1
 318 711 l 1
 42 -149 l 1
EndSplineSet
Validated: 1
EndChar

StartChar: uni2027
Encoding: 8231 8231 134
Width: 159
Flags: W
HStem: 170 90<43.4399 118.56>
VStem: 37 88<176.481 253.519>
LayerCount: 2
Fore
SplineSet
37 215 m 0
 37 240 57 260 81 260 c 0
 105 260 125 240 125 215 c 0
 125 190 105 170 81 170 c 0
 57 170 37 190 37 215 c 0
EndSplineSet
Validated: 1
EndChar

StartChar: afii10194
Encoding: 1123 1123 135
Width: 630
Flags: W
HStem: -11 24<364.447 477.947> 430 21<150.008 273 379 467.714>
VStem: 38 107<184.732 429.777> 249 108<16.0498 166 188 217> 273 88<189.684 258> 310 106<678 784> 478 114<2 59.9307>
DStem2: 261 233 362 217 0.0885796 0.996069<-35.9651 196.781 227.595 553.174> 361 188 360 166 0.955403 0.295306<0 39.38> 551 108 451 98 0.384615 -0.923077<-122.888 47.4849>
AnchorPoint: "Yerik" 497 623 basechar 0
AnchorPoint: "Above" 497 623 basechar 0
LayerCount: 2
Fore
SplineSet
36 451 m 1xea
 277 451 l 1
 277 490 280 539 287 599 c 0
 294 660 302 721 310 784 c 1
 416 784 l 1xe6
 411 744 404 691 397 627 c 2
 384 502 l 1
 379 451 l 1
 566 451 l 2
 587 451 597 448 597 441 c 2
 592 428 l 1
 579 407 570 391 565 382 c 0
 561 373 555 358 546 337 c 0
 537 316 531 306 526 306 c 0
 521 306 521 306 513 330 c 2
 486 406 l 2
 481 420 475 427 468 428 c 0
 462 429 449 430 428 430 c 2
 376 430 l 1
 373 381 l 1
 362 217 l 1
 361 188 l 1xea
 471 222 l 1
 491 226 l 2
 500 226 504 220 505 216 c 2
 551 108 l 1
 557 91 l 2
 560 85 565 73 572 55 c 0
 579 38 584 27 585 24 c 0
 589 19 592 13 592 6 c 0
 592 -2 585 -7 570 -8 c 2
 442 -11 l 2
 401 -11 366 -10 339 -8 c 0
 312 -7 282 -4 249 0 c 1xf2
 249 35 253 112 261 233 c 0
 269 354 273 420 273 430 c 1
 189 430 l 2
 184 430 179 430 175 430 c 0
 155 430 148 428 148 404 c 2
 145 273 l 2
 145 232 144 208 143 200 c 0
 142 193 138 188 133 187 c 0
 124 184 116 184 105 184 c 2
 36 184 l 1
 36 193 37 212 38 239 c 0
 39 266 40 294 40 322 c 0
 40 345 39 370 38 396 c 0
 37 422 36 440 36 451 c 1xea
382 172 m 1
 360 166 l 1
 357 79 l 1
 357 29 l 2xf2
 357 22 359 17 364 16 c 0
 373 13 417 13 450 13 c 0
 470 13 478 18 478 26 c 0
 478 29 478 33 477 36 c 0
 473 45 464 65 451 98 c 0
 424 163 417 179 405 179 c 2
 390 175 l 1
 382 172 l 1
EndSplineSet
Validated: 1
AlternateSubs2: "'salt' Stylistic Alternatives in Cyrillic-1" uni0463.short
EndChar

StartChar: afii10146
Encoding: 1122 1122 136
Width: 726
Flags: W
HStem: 0 21<236 303 416 559> 259 20<21 75 179 229> 522 21<179 303 416 522.759> 607 21<252 303 416 469>
VStem: 75 104<279 521.688> 303 113<21 352 364.878 522 543 607> 559 111<21.2258 296.234>
AnchorPoint: "Yerik" 568 680 basechar 0
AnchorPoint: "Above" 357 680 basechar 0
LayerCount: 2
Fore
SplineSet
236 0 m 1
 236 21 l 1
 303 21 l 1
 303 522 l 1
 179 522 l 1
 179 279 l 1
 229 279 l 1
 229 259 l 1
 21 259 l 1
 21 279 l 1
 75 279 l 1
 75 459 l 1
 75 474 l 2
 75 505 74 510 62 518 c 0
 51 526 40 533 40 542 c 0
 40 542 40 543 40 543 c 1
 303 543 l 1
 303 607 l 1
 252 607 l 1
 252 628 l 1
 469 628 l 1
 469 607 l 1
 416 607 l 1
 416 543 l 1
 649 543 l 2
 653 543 655 539 656 538 c 2
 653 527 l 1
 644 512 631 485 627 470 c 2
 605 409 l 2
 602 401 598 397 593 397 c 0
 582 397 569 431 556 459 c 0
 550 473 544 486 539 498 c 0
 534 510 529 517 523 519 c 0
 518 521 504 522 483 522 c 2
 416 522 l 1
 416 377 l 1
 469 347 512 326 545 314 c 0
 578 303 619 297 670 297 c 1
 670 58 l 2
 670 51 670 44 670 37 c 0
 670 26 670 17 672 15 c 2
 680 4 l 1
 680 0 l 1
 236 0 l 1
416 352 m 1
 416 21 l 1
 559 21 l 1
 559 290 l 1
 534 297 512 304 493 311 c 0
 474 319 449 333 416 352 c 1
EndSplineSet
Validated: 1
EndChar

StartChar: uni0466
Encoding: 1126 1126 137
Width: 744
Flags: W
HStem: 0 21<21 75 181.796 231 262 316 419 472 504 556.049 668 723> 291 22<245 316 419 471> 607 21<261 310 425 475>
VStem: 55 103<33.854 204.984> 316 103<21 291 514.699 607> 572 111<22.2137 206.846>
AnchorPoint: "Yerik" 588 680 basechar 0
AnchorPoint: "Above" 359 680 basechar 0
LayerCount: 2
Fore
SplineSet
472 0 m 1
 262 0 l 1
 262 21 l 1
 316 21 l 1
 316 291 l 1
 232 291 l 1
 189 232 158 179 158 106 c 0
 158 70 168 50 188 21 c 1
 231 21 l 1
 231 0 l 1
 21 0 l 1
 21 21 l 1
 75 21 l 1
 59 61 55 88 55 117 c 0
 55 174 71 221 103 260 c 0
 136 299 172 338 213 379 c 0
 254 420 281 458 292 493 c 0
 304 528 310 566 310 607 c 1
 261 607 l 1
 261 628 l 1
 475 628 l 1
 475 607 l 1
 425 607 l 1
 425 568 432 534 445 505 c 0
 458 476 488 438 533 390 c 0
 579 343 615 301 642 266 c 0
 669 231 683 182 683 118 c 0
 683 95 682 79 680 69 c 0
 679 60 675 44 668 21 c 1
 723 21 l 1
 723 0 l 1
 504 0 l 1
 504 21 l 1
 552 21 l 1
 565 50 572 72 572 107 c 0
 572 138 567 165 558 190 c 0
 549 215 525 248 488 291 c 1
 419 291 l 1
 419 21 l 1
 472 21 l 1
 472 0 l 1
245 313 m 1
 471 313 l 1
 450 331 433 346 421 357 c 0
 398 380 372 417 352 458 c 0
 325 520 340 522 326 526 c 0
 319 526 317 506 317 502 c 0
 317 451 294 390 245 313 c 1
EndSplineSet
Validated: 1
EndChar

StartChar: uni0467
Encoding: 1127 1127 138
Width: 611
Flags: W
HStem: 0 21G<31 129 242 343 473 588> 193 21<198 246 340 376> 431 20G<236 363.5> 431 20G<236 363.5>
VStem: 31 98<0 120.026> 236 126<360.015 451> 242 101<0 193> 473 115<0 84.1602>
AnchorPoint: "Yerik" 287 623 basechar 0
AnchorPoint: "Above" 287 623 basechar 0
LayerCount: 2
Fore
SplineSet
236 451 m 1xed
 362 451 l 1xed
 365 414 373 384 384 360 c 0
 396 336 422 300 462 253 c 0
 503 206 532 165 549 128 c 0
 566 91 579 49 588 0 c 1
 473 0 l 1
 473 77 438 132 390 193 c 1
 340 193 l 1
 340 113 342 53 343 0 c 1
 242 0 l 1xeb
 242 19 246 93 246 193 c 1
 186 193 l 1
 147 149 127 105 127 42 c 2
 129 0 l 1
 31 0 l 1
 31 55 40 98 57 130 c 0
 75 163 104 199 144 240 c 0
 185 281 211 311 222 330 c 0
 234 349 240 373 240 402 c 2
 236 451 l 1xed
198 214 m 1
 376 214 l 1
 363 229 349 247 333 269 c 0
 317 292 306 308 301 318 c 0
 290 338 287 342 282 342 c 0
 270 342 272 296 198 214 c 1
EndSplineSet
Validated: 1
EndChar

StartChar: afii10147
Encoding: 1138 1138 139
Width: 704
Flags: W
HStem: -14 22<278 334.319> 189 22<149.254 165 282 445 552 558> 617 20G<347.5 385>
VStem: 127 102<295.219 464.784> 265 35<16.3217 103.5> 367 25<554.722 618.299> 448 108<211 350.824> 558 88<77.4907 188.21> 590 65<16.1412 71.5643>
DStem2: 53 14 151 189 0.229039 0.973417<0 192.794>
AnchorPoint: "Yerik" 588 680 basechar 0
AnchorPoint: "Above" 349 680 basechar 0
LayerCount: 2
Fore
SplineSet
29 211 m 1xff
 165 211 l 1
 145 248 127 295 127 356 c 0
 127 430 153 495 205 552 c 0
 257 609 315 637 380 637 c 0
 390 637 395 634 395 627 c 2
 392 594 l 2
 392 567 410 539 465 471 c 0
 520 403 556 350 556 270 c 0
 556 242 552 216 552 211 c 1
 674 211 l 1
 661 171 646 129 646 73 c 0xff
 646 42 647 35 655 3 c 0
 656 -2 655 -7 650 -12 c 1
 631 -12 611 10 590 53 c 0xfe80
 569 96 558 142 558 189 c 1
 546 189 l 1
 531 152 515 121 498 97 c 0
 481 73 450 48 405 23 c 0
 360 -2 314 -14 265 -14 c 0
 256 -14 251 -11 251 -6 c 2
 254 1 l 2
 262 13 265 22 265 30 c 0
 265 53 248 79 227 111 c 2
 177 189 l 1
 151 189 l 1
 142 140 128 93 109 50 c 0
 90 7 73 -14 58 -14 c 0
 53 -14 49 -8 49 -3 c 2
 53 14 l 2
 58 27 61 39 61 70 c 0
 61 99 59 122 54 141 c 0
 49 160 41 183 29 211 c 1xff
445 189 m 1
 282 189 l 1
 291 157 300 120 300 87 c 0
 300 71 299 59 297 50 c 0
 295 41 289 27 278 8 c 1
 327 8 356 26 388 55 c 0
 421 84 436 130 445 189 c 1
277 211 m 1
 448 211 l 1
 448 268 443 309 416 382 c 2
 382 475 l 2
 372 501 367 527 367 553 c 0
 367 568 368 578 369 585 c 0
 370 592 373 604 378 619 c 1
 335 614 299 595 271 560 c 0
 243 526 229 484 229 435 c 0
 229 363 250 292 277 211 c 1
EndSplineSet
Validated: 1
EndChar

StartChar: afii10195
Encoding: 1139 1139 140
Width: 796
Flags: W
HStem: -204 90<385.214 446.779> 0 23<175.24 297 351 481 535 654.443>
VStem: 65 103<-203 -6.19336> 294 50<23 190.613> 303 48<-65.0742 0> 481 46<-64.5117 0> 488 53<23 193.543>
AnchorPoint: "Yerik" 597 623 basechar 0
AnchorPoint: "Above" 417 623 basechar 0
LayerCount: 2
Fore
SplineSet
535 23 m 1xf2
 747 23 l 2
 766 23 776 20 776 13 c 2
 772 3 l 1
 711 -82 717 -183 698 -184 c 0
 690 -184 687 -175 684 -159 c 2
 663 -30 l 2
 660 -13 658 -4 655 -2 c 0
 643 -1 638 0 633 0 c 2
 527 0 l 1
 508 -76 487 -129 466 -159 c 0
 445 -189 428 -204 415 -204 c 0
 398 -204 378 -186 355 -149 c 0
 333 -112 316 -63 303 0 c 1xec
 214 0 l 2
 193 0 180 -2 175 -6 c 0
 170 -10 168 -22 168 -43 c 2
 168 -203 l 1
 65 -203 l 1
 65 -44 l 2
 65 -13 65 -14 46 -6 c 0
 29 2 22 7 18 14 c 1
 18 23 19 23 44 23 c 2
 297 23 l 1
 297 34 296 50 294 71 c 0
 293 92 292 105 292 108 c 0
 292 187 307 269 338 356 c 0
 369 443 396 487 417 487 c 0
 438 487 463 444 494 357 c 0
 525 271 541 190 541 113 c 0
 541 88 540 71 535 23 c 1xf2
346 23 m 1
 486 23 l 1
 488 75 l 1
 488 182 451 237 416 237 c 0
 381 237 344 176 344 77 c 2xf2
 346 23 l 1
351 0 m 1xec
 358 -25 367 -51 377 -76 c 0
 387 -101 400 -114 416 -114 c 0
 432 -114 445 -101 455 -76 c 0
 465 -51 474 -25 481 0 c 1
 351 0 l 1xec
EndSplineSet
Validated: 1
EndChar

StartChar: afii10148
Encoding: 1140 1140 141
Width: 555
Flags: W
HStem: -2 21G<179.875 304.493> 513 126<415.081 514.5> 608 20G<38 176>
VStem: 106 104<46 394.638> 278 30<34 230.295>
DStem2: 210 46 303 -2 0.987063 -0.160335<0 69.0443>
AnchorPoint: "Yerik" 458 680 basechar 0
AnchorPoint: "Above" 289 680 basechar 0
LayerCount: 2
Fore
SplineSet
303 -2 m 1xd8
 106 30 l 1
 106 128 l 2
 106 305 103 415 96 460 c 0
 89 505 82 536 75 553 c 0
 68 570 55 592 38 617 c 1
 38 628 l 1
 168 628 l 1xb8
 184 577 195 530 201 487 c 0
 208 444 211 383 211 302 c 2
 210 46 l 1
 278 34 l 1
 278 156 283 254 294 328 c 0
 305 402 320 465 339 516 c 0
 358 567 382 601 412 616 c 0
 442 631 474 639 509 639 c 0xd8
 520 639 531 637 531 628 c 0xb8
 531 626 529 622 525 617 c 0
 500 590 492 580 492 547 c 2
 494 530 l 1
 499 503 l 2
 500 498 499 486 494 486 c 0
 487 489 488 488 477 496 c 0
 468 504 439 513 426 513 c 0
 387 513 360 475 341 387 c 0
 332 343 324 296 317 247 c 0
 311 198 308 138 308 65 c 1
 303 -2 l 1xd8
EndSplineSet
Validated: 1
EndChar

StartChar: afii10196
Encoding: 1141 1141 142
Width: 519
Flags: W
HStem: 0 21G<140 279> 431 20G<19 161> 431 20G<19 161>
VStem: 140 95<88.0044 171.268>
DStem2: 258 108 273 0 0.1977 0.980263<-21.892 217.209>
AnchorPoint: "Yerik" 417 623 basechar 0
AnchorPoint: "Above" 257 623 basechar 0
LayerCount: 2
Fore
SplineSet
273 0 m 1xb0
 140 0 l 1
 140 69 131 134 112 194 c 0
 94 255 66 332 29 426 c 2
 19 451 l 1
 150 451 l 1xd0
 172 390 192 323 209 251 c 0
 226 180 235 131 235 106 c 0
 237 94 241 88 246 88 c 0
 254 88 258 105 258 108 c 2
 268 156 l 1
 282 227 l 2
 301 322 325 384 354 414 c 0
 383 444 424 459 477 459 c 0
 485 459 495 459 495 451 c 0
 495 446 491 444 482 435 c 0
 474 427 465 402 465 374 c 0
 465 365 466 358 467 354 c 0
 470 343 467 337 460 337 c 2
 451 339 l 2
 442 342 424 344 420 344 c 0
 375 344 344 319 323 243 c 0
 302 168 285 88 273 0 c 1xb0
EndSplineSet
Validated: 1
EndChar

StartChar: uni0476
Encoding: 1142 1142 143
Width: 555
Flags: W
HStem: -2 21G<179.875 304.493> 513 126<415.081 514.5> 608 20G<38 176>
VStem: 106 104<46 394.638> 278 30<34 230.295>
DStem2: 210 46 303 -2 0.987063 -0.160335<0 69.0443>
AnchorPoint: "Yerik" 408 1000 basechar 0
AnchorPoint: "Above" 259 1000 basechar 0
LayerCount: 2
Fore
SplineSet
303 -2 m 5xd8
 106 30 l 1
 106 128 l 2
 106 305 103 415 96 460 c 0
 89 505 82 536 75 553 c 0
 68 570 55 592 38 617 c 1
 38 628 l 1
 168 628 l 1xb8
 184 577 195 530 201 487 c 0
 208 444 211 383 211 302 c 2
 210 46 l 1
 278 34 l 1
 278 156 283 254 294 328 c 0
 305 402 320 465 339 516 c 0
 358 567 382 601 412 616 c 0
 442 631 474 639 509 639 c 0xd8
 520 639 531 637 531 628 c 0xb8
 531 626 529 622 525 617 c 0
 500 590 492 580 492 547 c 2
 494 530 l 1
 499 503 l 2
 500 498 499 486 494 486 c 0
 487 489 488 488 477 496 c 0
 468 504 439 513 426 513 c 0
 387 513 360 475 341 387 c 0
 332 343 324 296 317 247 c 0
 311 198 308 138 308 65 c 1
 303 -2 l 5xd8
103 926 m 2
 122 923 l 1
 143 919 l 2
 151 918 156 915 159 909 c 2
 201 801 l 1
 232 714 l 2
 233 710 243 683 243 679 c 0
 243 675 239 673 230 673 c 2
 198 678 l 2
 195 679 192 683 189 690 c 2
 177 718 l 1
 158 763 l 1
 131 825 l 2
 126 836 118 853 108 876 c 0
 99 899 94 913 94 917 c 0
 94 923 97 926 103 926 c 2
315 718 m 1
 296 763 l 1
 269 825 l 2
 264 836 256 853 246 876 c 0
 237 899 232 913 232 917 c 0
 232 923 235 926 241 926 c 2
 260 923 l 1
 282 919 l 2
 303 915 302 893 339 801 c 2
 371 714 l 2
 375 706 381 686 381 679 c 0
 381 675 377 673 368 673 c 2
 336 678 l 2
 333 679 330 683 328 690 c 2
 315 718 l 1
EndSplineSet
Validated: 1
LCarets2: 1 0
Ligature2: "'ccmp' Canonical Composition and Precomposed Glyphs-1" afii10148 uni030F
EndChar

StartChar: uni0477
Encoding: 1143 1143 144
Width: 519
Flags: W
HStem: 0 21G<140 279> 431 20G<19 161> 431 20G<19 161>
VStem: 140 95<88.0044 171.268>
DStem2: 258 108 273 0 0.1977 0.980263<-21.892 217.209>
AnchorPoint: "Yerik" 227 893 basechar 0
AnchorPoint: "Above" 227 893 basechar 0
LayerCount: 2
Fore
SplineSet
273 0 m 1xb0
 140 0 l 1
 140 69 131 134 112 194 c 0
 94 255 66 332 29 426 c 2
 19 451 l 1
 150 451 l 1xd0
 172 390 192 323 209 251 c 0
 226 180 235 131 235 106 c 0
 237 94 241 88 246 88 c 0
 254 88 258 105 258 108 c 2
 268 156 l 1
 282 227 l 2
 301 322 325 384 354 414 c 0
 383 444 424 459 477 459 c 0
 485 459 495 459 495 451 c 0
 495 446 491 444 482 435 c 0
 474 427 465 402 465 374 c 0
 465 365 466 358 467 354 c 0
 470 343 467 337 460 337 c 2
 451 339 l 2
 442 342 424 344 420 344 c 0
 375 344 344 319 323 243 c 0
 302 168 285 88 273 0 c 1xb0
88 791 m 2
 107 788 l 1
 128 784 l 2
 136 783 141 780 144 774 c 2
 186 666 l 1
 217 579 l 2
 218 575 228 548 228 544 c 0
 228 540 224 538 215 538 c 2
 183 543 l 2
 180 544 177 548 174 555 c 2
 162 583 l 1
 143 628 l 1
 116 690 l 2
 111 701 103 718 93 741 c 0
 84 764 79 778 79 782 c 0
 79 788 82 791 88 791 c 2
300 583 m 1
 281 628 l 1
 254 690 l 2
 249 701 241 718 231 741 c 0
 222 764 217 778 217 782 c 0
 217 788 220 791 226 791 c 2
 245 788 l 1
 267 784 l 2
 288 780 287 758 324 666 c 2
 356 579 l 2
 360 571 366 551 366 544 c 0
 366 540 362 538 353 538 c 2
 321 543 l 2
 318 544 315 548 313 555 c 2
 300 583 l 1
EndSplineSet
Validated: 1
LCarets2: 1 0
Ligature2: "'ccmp' Canonical Composition and Precomposed Glyphs-1" afii10196 uni030F
EndChar

StartChar: uni047A
Encoding: 1146 1146 145
Width: 823
Flags: W
HStem: -23 134<380.699 460.36> 30 25<271.929 350.479 473.032 551.447> 517 134<365.982 459.441> 573 25<269.099 351.131 472.455 549.883>
VStem: 26 116<199.939 429.873> 681 116<197.998 430.304>
AnchorPoint: "Yerik" 708 680 basechar 0
AnchorPoint: "Above" 409 720 basechar 0
LayerCount: 2
Fore
SplineSet
476 55 m 1x4c
 527 55 572 64 620 113 c 0
 668 164 681 238 681 314 c 0
 681 386 671 461 622 512 c 0
 574 564 523 573 476 573 c 1x5c
 464 526 436 521 412 517 c 1x2c
 384 517 358 536 347 573 c 1
 295 573 251 565 203 514 c 0
 155 465 142 390 142 314 c 0
 142 242 152 167 200 115 c 0
 249 64 300 55 347 55 c 1x5c
 358 92 384 111 412 111 c 0x8c
 419 110 429 108 443 104 c 0
 458 100 469 84 476 55 c 1x4c
476 30 m 1
 467 -5 441 -23 412 -23 c 0x8c
 405 -23 395 -21 380 -16 c 0
 365 -11 354 4 347 30 c 1
 284 30 232 36 153 73 c 0
 114 92 83 125 60 171 c 0
 37 217 26 265 26 314 c 0
 26 364 37 412 60 457 c 0
 83 502 113 534 151 553 c 0
 227 592 291 598 347 598 c 1x5c
 356 631 383 651 412 651 c 0x2c
 441 651 467 633 476 598 c 1
 539 598 591 593 670 554 c 0
 709 535 740 503 763 458 c 0
 786 413 797 365 797 314 c 0
 797 264 786 216 763 170 c 0
 740 125 710 93 672 74 c 0
 596 37 532 30 476 30 c 1
EndSplineSet
Validated: 1
EndChar

StartChar: uni047B
Encoding: 1147 1147 146
Width: 741
Flags: W
HStem: 0 25<242.796 317.665 420.68 492.676> 443 24<242.791 317.207 421.392 491.867>
VStem: 28 105<132.753 334.588> 605 105<134.074 333.415>
AnchorPoint: "Yerik" 617 623 basechar 0
AnchorPoint: "Above" 365 623 basechar 0
LayerCount: 2
Fore
SplineSet
313 25 m 1
 322 50 334 69 369 69 c 0
 404 69 417 49 425 25 c 1
 468 25 502 33 543 69 c 0
 586 106 605 166 605 234 c 0
 605 301 586 361 543 398 c 0
 502 435 468 443 425 443 c 1
 417 416 406 398 369 398 c 0
 334 398 322 416 313 443 c 1
 257 443 231 431 192 395 c 0
 153 360 133 303 133 234 c 0
 133 166 153 108 194 69 c 0
 237 32 270 25 313 25 c 1
425 0 m 1
 412 -35 398 -44 369 -44 c 0
 334 -44 322 -24 314 0 c 1
 239 0 172 20 114 59 c 0
 57 99 28 157 28 234 c 0
 28 310 57 368 114 407 c 0
 172 447 239 467 314 467 c 1
 325 502 340 512 369 512 c 0
 404 512 414 495 425 467 c 1
 500 467 566 447 623 407 c 0
 681 368 710 310 710 234 c 0
 710 158 681 100 623 60 c 0
 566 20 500 0 425 0 c 1
EndSplineSet
Validated: 1
EndChar

StartChar: uni0470
Encoding: 1136 1136 147
Width: 722
Flags: W
HStem: 0 18<271 326 378 423.699> 460 21G<676 685> 486 149<584.638 679.5> 607 20G<38 185.5>
VStem: 165 106<18 261.319> 302 101<527.04 695.122> 326 52<18 176.958>
DStem2: 423 18 443 0 0.118213 0.992988<0 254.723>
AnchorPoint: "Yerik" 608 740 basechar 0
AnchorPoint: "Above" 340 800 basechar 0
LayerCount: 2
Fore
SplineSet
371 0 m 1xea
 376 -35 392 -60 404 -77 c 0
 416 -94 435 -111 460 -128 c 1
 408 -145 380 -164 353 -223 c 1
 338 -196 323 -176 310 -163 c 0
 297 -151 276 -139 248 -128 c 1
 293 -97 319 -64 326 0 c 1
 324 0 l 1
 165 0 l 1
 165 54 161 116 153 185 c 0
 146 254 133 328 114 407 c 0
 95 486 70 560 38 627 c 1
 164 627 l 1
 207 500 271 363 271 40 c 0
 271 33 271 25 271 18 c 1
 326 18 l 1xda
 302 563 l 2
 302 594 297 633 297 650 c 0
 293 690 288 700 261 700 c 0
 252 700 239 697 232 696 c 1
 232 718 l 1
 463 766 l 1
 464 746 l 1
 416 735 406 728 406 688 c 2
 403 624 l 1xdc
 378 18 l 1
 423 18 l 1
 438 146 447 229 452 266 c 0
 457 303 463 344 472 387 c 0
 481 431 495 475 513 520 c 0
 550 611 606 635 675 635 c 0
 684 635 699 635 699 628 c 0
 696 623 693 618 688 613 c 0
 680 604 669 565 669 534 c 0
 669 497 685 477 685 465 c 1
 683 460 l 1
 676 463 l 2
 648 478 630 486 605 486 c 0
 581 486 561 477 546 458 c 0
 531 439 520 421 514 402 c 0
 486 329 473 236 453 84 c 2
 443 0 l 1
 371 0 l 1xea
EndSplineSet
Validated: 1
EndChar

StartChar: uni0471
Encoding: 1137 1137 148
Width: 667
Flags: W
HStem: -250 21<349.172 399> -241 12<377.744 399.5> 0 19<250 292 346 389.702> 372 96<522.774 613> 431 20G<24 169> 431 20G<24 169> 639 21G<208 216.5>
VStem: 284 68<19.8276 469.01> 292 54<-228.465 0 19 237.081>
DStem2: 389 19 408 0 0.152732 0.988268<0 274.354>
AnchorPoint: "Yerik" 537 623 basechar 0
AnchorPoint: "Above" 537 623 basechar 0
LayerCount: 2
Fore
SplineSet
243 67 m 2xaa80
 250 19 l 1
 292 19 l 1xaa80
 292 36 289 95 284 195 c 0
 279 296 277 388 277 473 c 0
 277 498 276 525 274 552 c 0
 273 579 271 599 268 612 c 0
 264 639 260 644 239 644 c 0
 231 644 221 640 212 639 c 1
 208 659 l 1
 434 703 l 1
 439 682 l 1
 410 677 392 671 385 665 c 0
 379 660 373 628 367 570 c 0
 362 513 357 434 352 334 c 0xab
 348 234 346 129 346 19 c 1
 389 19 l 1
 404 134 418 221 431 279 c 0
 456 395 503 468 603 468 c 0
 623 468 639 465 639 456 c 0
 637 449 610 418 610 390 c 1
 613 372 l 1
 616 353 l 2
 616 348 614 345 610 345 c 2
 599 349 l 1
 581 358 l 2
 556 370 547 372 535 372 c 0
 507 372 493 356 476 319 c 0
 467 301 458 272 449 233 c 0
 440 194 432 153 425 110 c 2
 408 0 l 1
 346 0 l 1
 346 -163 l 2
 346 -172 346 -180 346 -187 c 0
 346 -219 348 -229 370 -229 c 2xb280
 399 -225 l 1
 401 -241 l 1x6280
 377 -248 365 -250 340 -250 c 0
 303 -250 292 -241 292 -196 c 2
 292 0 l 1
 146 0 l 1
 129 125 111 217 92 278 c 0
 73 339 51 396 24 451 c 1
 145 451 l 1
 193 330 219 214 243 67 c 2xaa80
EndSplineSet
Validated: 1
EndChar

StartChar: uni047C
Encoding: 1148 1148 149
Width: 1041
Flags: W
HStem: -10 56<729.206 824.032> -7 69<208.167 316.623> 99 72<479 558> 464 21G<369.5 376.5> 523 103<205.903 311.072> 533 112<757.158 837.373> 735 66<486.307 572.672> 766 62<785.091 866.379> 898 34<456.45 599.581>
VStem: 20 80<198.057 406.665> 581 58<647.12 725.997> 951 70<205.349 403.272>
DStem2: 666 106 510 90 0.849187 -0.528092<-129.097 95.8025>
AnchorPoint: "Yerik" 548 1020 basechar 0
AnchorPoint: "Above" 549 1020 basechar 0
LayerCount: 2
Fore
SplineSet
486 99 m 0xb4f0
 472 99 444 77 370 39 c 0
 345 27 327 19 315 14 c 0
 292 5 255 -7 227 -7 c 0
 170 -7 122 22 81 80 c 0
 40 139 20 207 20 285 c 0
 20 376 52 456 115 524 c 0
 178 592 228 626 264 626 c 0
 284 626 320 609 373 574 c 0
 426 540 453 518 453 507 c 0
 453 502 441 493 417 481 c 0
 394 470 379 464 374 464 c 0
 365 464 356 470 335 486 c 0
 315 502 273 523 242 523 c 0
 211 523 179 500 147 454 c 0
 116 408 100 359 100 306 c 0
 100 251 117 196 151 142 c 0
 186 89 229 62 282 62 c 0x78f0
 341 62 409 94 454 121 c 2
 538 166 l 2
 542 169 550 171 554 171 c 0
 562 171 590 154 666 106 c 0
 705 82 731 66 746 58 c 0
 761 50 776 46 790 46 c 0
 825 46 861 68 897 111 c 0
 933 154 951 209 951 276 c 0
 951 349 934 410 900 459 c 0
 866 508 835 533 806 533 c 0
 778 533 750 509 721 476 c 0
 696 448 692 446 685 446 c 0
 685 446 684 446 683 446 c 0
 675 446 664 453 644 462 c 0
 624 473 606 482 606 490 c 0
 606 493 610 498 617 507 c 0
 624 516 643 535 673 565 c 0
 733 626 752 645 776 645 c 0
 807 645 852 619 907 574 c 0
 934 551 960 520 984 481 c 0
 1009 442 1021 392 1021 331 c 0
 1021 238 990 158 927 91 c 0
 865 24 801 -10 734 -10 c 0
 689 -10 636 7 573 50 c 0
 542 71 521 85 510 90 c 0
 500 96 492 99 486 99 c 0xb4f0
639 719 m 0
 639 692 629 664 609 633 c 0
 590 603 573 588 559 588 c 0
 553 588 550 590 550 595 c 0
 550 603 553 608 564 625 c 0
 575 642 581 668 581 684 c 0
 581 721 553 735 529 735 c 0
 477 735 469 684 447 684 c 0
 440 684 437 688 437 695 c 0
 437 703 446 723 465 754 c 0
 484 785 512 801 549 801 c 0x32f0
 601 801 639 763 639 719 c 0
553 932 m 0
 592 932 624 928 649 919 c 0
 674 911 705 896 742 874 c 0
 779 852 804 839 819 834 c 0
 834 830 854 828 880 828 c 0
 895 828 908 831 912 831 c 0
 923 833 929 831 929 824 c 0
 929 816 909 804 870 789 c 0
 831 774 804 766 789 766 c 0x31f0
 758 766 726 784 683 820 c 0
 640 857 595 898 534 898 c 0
 487 898 447 883 415 854 c 0
 384 825 363 799 354 776 c 0
 345 754 337 742 332 739 c 0
 327 736 314 735 294 735 c 0
 249 735 226 740 226 750 c 0
 226 753 224 753 237 761 c 0
 250 769 262 794 275 823 c 0
 288 854 301 882 334 895 c 0
 351 902 384 909 431 918 c 0
 478 927 519 932 553 932 c 0
EndSplineSet
Validated: 1
LCarets2: 1 0
Ligature2: "'ccmp' Second Round of Precomposed Glyphs-1" uniA64C uniE005
EndChar

StartChar: uni047D
Encoding: 1149 1149 150
Width: 1000
Flags: W
HStem: -12 61<185.579 299.813 715.881 841.011> 101 75<471.5 547> 375 103<168.003 272.465> 388 111<763.224 839.882> 569 66<469.94 551.021> 606 61<762.084 853.989> 737 35<431.146 578.938>
VStem: 20 85<146.243 323.298> 561 55<483.04 559.237> 919 65<140.326 299.833>
DStem2: 411 102 399 64 0.874157 0.485643<-127.353 54.38>
AnchorPoint: "Yerik" 497 863 basechar 0
AnchorPoint: "Above" 497 864 basechar 0
LayerCount: 2
Fore
SplineSet
494 150 m 1xe3c0
 501 155 l 1
 519 165 l 2
 531 172 540 176 545 176 c 0
 549 176 558 172 572 163 c 0
 586 154 620 132 673 96 c 0
 727 61 770 43 802 43 c 0
 831 43 858 56 882 82 c 0
 907 108 919 146 919 195 c 0
 919 244 907 289 882 328 c 0
 857 368 832 388 806 388 c 0
 765 388 711 304 692 304 c 0
 683 304 666 309 641 320 c 0
 617 331 605 339 605 344 c 0
 633 379 663 413 696 447 c 0
 729 482 756 499 779 499 c 0xd3c0
 795 499 815 492 839 478 c 0
 863 464 893 442 929 412 c 0
 966 382 984 329 984 254 c 0
 984 179 961 116 914 65 c 0
 867 14 813 -11 751 -11 c 0
 718 -11 686 -5 655 7 c 0
 624 20 587 38 546 63 c 0
 505 88 481 101 474 101 c 0
 469 101 463 99 456 96 c 0
 449 93 430 83 399 64 c 0
 336 27 277 -12 209 -12 c 0
 146 -12 98 13 67 63 c 0
 36 113 20 165 20 218 c 0
 20 293 47 355 101 404 c 0
 156 453 195 478 220 478 c 0
 241 478 278 461 331 428 c 0
 384 395 411 372 411 361 c 0
 411 354 400 346 379 335 c 0
 358 324 343 319 335 319 c 2
 327 319 l 1
 307 326 257 375 211 375 c 0
 209 375 207 375 205 375 c 1
 146 375 105 326 105 250 c 0
 105 197 119 151 146 110 c 0
 174 69 212 49 260 49 c 0
 304 49 360 73 411 102 c 2
 494 150 l 1xe3c0
681 645 m 2
 616 697 l 2
 581 724 542 737 511 737 c 0
 485 737 455 730 422 716 c 0
 389 702 366 681 353 654 c 0
 340 627 332 608 327 599 c 0
 319 582 314 575 290 575 c 2
 226 576 l 2
 219 576 205 575 205 587 c 0
 205 590 208 594 215 597 c 0
 222 601 227 606 232 613 c 0
 237 620 245 638 257 666 c 0
 270 694 279 711 286 717 c 0
 293 723 316 731 355 741 c 0
 434 761 510 772 563 772 c 0
 604 772 656 751 724 710 c 0
 758 690 781 678 793 673 c 0
 806 669 817 667 828 667 c 2
 889 671 l 2
 902 673 908 671 908 664 c 0
 908 655 890 643 854 628 c 0
 818 613 790 606 769 606 c 0xc7c0
 740 606 704 624 681 645 c 2
531 635 m 0xcbc0
 580 635 616 605 616 557 c 0
 616 529 606 500 587 470 c 0
 568 440 552 425 540 425 c 0
 537 425 535 428 532 433 c 0
 534 444 561 487 561 511 c 0
 561 511 561 512 561 513 c 0
 561 546 540 569 507 569 c 0
 487 569 474 565 454 546 c 0
 434 527 429 525 424 525 c 0
 418 525 415 528 415 535 c 0
 415 548 427 567 450 594 c 0
 473 621 500 635 531 635 c 0xcbc0
EndSplineSet
Validated: 1
LCarets2: 1 0
Ligature2: "'ccmp' Second Round of Precomposed Glyphs-1" uniA64D uniE005
EndChar

StartChar: uni047E
Encoding: 1150 1150 151
Width: 858
Flags: W
HStem: -17 49<246.942 356.857 496.727 610.553> 115 111<328.445 392 465 527.379> 616 22<249.793 301.812 555.358 609.566> 690 124<234.01 270.92 389 482 611.353 648.688> 793 21<289.696 389 482 588.243>
VStem: 26 118<164.856 442.74> 316 225<130.148 214.125> 389 93<690 793> 458 96<531.173 607.058> 714 118<167.144 442.808>
AnchorPoint: "Yerik" 437 890 basechar 0
AnchorPoint: "Above" 437 890 basechar 0
LayerCount: 2
Fore
SplineSet
586 793 m 1xed40
 482 793 l 1xed40
 482 690 l 1
 389 690 l 1xf540
 389 793 l 1
 291 793 l 1
 282 732 267 692 254 692 c 0
 250 692 247 694 244 697 c 0
 241 700 236 709 227 722 c 0
 219 735 212 746 205 755 c 0
 185 782 161 795 161 806 c 0
 161 813 176 814 190 814 c 0
 193 814 196 814 199 814 c 2
 672 814 l 2xed40
 715 814 719 813 719 805 c 2
 715 798 l 1
 690 770 664 740 651 716 c 0
 638 692 636 690 631 690 c 0xf540
 617 690 602 724 586 793 c 1xed40
340 339 m 1
 518 339 l 1
 506 324 496 309 489 295 c 0
 482 282 474 259 465 226 c 1
 512 226 541 212 541 173 c 0
 541 124 495 115 438 115 c 1
 457 70 482 32 541 32 c 0xe640
 588 32 628 57 662 106 c 0
 697 156 714 227 714 319 c 0
 714 414 699 488 669 539 c 0
 639 590 607 616 572 616 c 0
 560 616 554 613 554 606 c 0
 554 600 588 582 588 548 c 0
 588 515 563 491 526 491 c 0
 489 491 458 516 458 555 c 0xe4c0
 458 603 502 638 569 638 c 0
 636 638 696 608 750 547 c 0
 805 486 832 404 832 301 c 0
 832 196 804 116 749 63 c 0
 694 10 637 -17 578 -17 c 0
 535 -17 488 3 461 32 c 0
 434 63 433 63 429 63 c 0
 426 63 419 57 404 40 c 0
 397 31 381 20 357 5 c 0
 334 -10 308 -17 280 -17 c 0
 220 -17 163 9 108 62 c 0
 53 115 26 195 26 301 c 0
 26 404 53 485 107 546 c 0
 161 607 221 638 288 638 c 0
 357 638 400 602 400 555 c 0
 400 515 370 491 331 491 c 0
 299 491 270 510 270 547 c 0
 270 568 277 581 289 590 c 0
 301 599 302 601 303 605 c 0
 303 612 297 616 286 616 c 0
 252 616 220 590 189 539 c 0
 159 488 144 415 144 319 c 0
 144 226 161 155 195 106 c 0
 229 57 270 32 317 32 c 0
 376 32 397 66 420 115 c 1
 359 115 316 122 316 173 c 0xe640
 316 212 348 226 392 226 c 1
 383 259 375 282 368 296 c 0
 361 311 351 325 340 339 c 1
EndSplineSet
Validated: 1
EndChar

StartChar: uni047F
Encoding: 1151 1151 152
Width: 778
Flags: W
HStem: -11 59<190 257.146 486.549 574.055> 431 20G<68 187 336 485 581 712.5> 431 20G<68 187 336 485 581 712.5> 515 163<137 238 365 465 593.022 618.078> 656 22<91.0059 133.023 238 365 465 593>
VStem: 46 105<139.634 405.304> 137 101<515 653.678> 313 107<156.354 364.309> 365 100<514 656> 639 94<179.077 361.197>
AnchorPoint: "Yerik" 647 773 basechar 0
AnchorPoint: "Above" 407 773 basechar 0
LayerCount: 2
Fore
SplineSet
593 656 m 1x8ac0
 465 656 l 1
 465 514 l 1
 365 514 l 1
 365 656 l 1
 238 656 l 1x8ac0
 238 515 l 1
 137 515 l 1x92c0
 137 618 l 2
 137 642 137 648 118 653 c 0
 99 658 91 659 91 667 c 0
 91 678 92 678 115 678 c 2
 126 678 l 1
 635 678 l 2
 642 678 648 678 652 678 c 0
 679 678 680 677 680 668 c 0
 680 667 680 667 680 666 c 0
 680 660 670 660 640 595 c 0
 612 528 613 509 603 509 c 0
 594 509 593 520 593 541 c 2
 593 656 l 1x8ac0
73 451 m 1xc540
 187 451 l 1
 167 392 151 327 151 254 c 0
 151 199 161 150 182 109 c 0
 203 68 226 48 249 48 c 0
 261 48 277 58 297 77 c 0
 318 96 334 113 347 127 c 1
 327 172 313 210 313 270 c 0
 313 327 322 376 350 451 c 1
 485 451 l 1
 444 380 420 326 420 246 c 0
 420 187 433 139 459 102 c 0
 486 65 509 46 530 46 c 0
 549 46 572 63 599 98 c 0
 626 133 639 179 639 237 c 0
 639 263 636 290 629 319 c 0
 623 348 610 385 589 432 c 2
 581 451 l 1
 706 451 l 1
 719 406 733 355 733 302 c 0
 733 220 708 147 658 84 c 0
 608 21 559 -10 510 -10 c 0
 493 -10 470 -3 443 11 c 0
 416 25 388 55 359 100 c 1
 298 36 238 -11 205 -11 c 0
 175 -11 141 16 103 70 c 0
 65 124 46 193 46 277 c 0
 46 311 48 339 52 361 c 0
 56 384 63 414 73 451 c 1xc540
EndSplineSet
Validated: 1
EndChar

StartChar: uni0478
Encoding: 1144 1144 153
Width: 994
Flags: W
HStem: -250 21G<694.5 707.5> -12 21<186 237.473> -1 18<697.252 720.807> 339 121<867.763 959> 431 20G<524 613> 431 20G<524 613> 619 21<230.828 280>
VStem: 35 98<300.75 475.382> 173 40<21.6719 102.5> 271 25<555.801 617.519> 355 111<162.651 342.05>
DStem2: 669 186 544 278 0.159888 -0.987135<-265.315 172.443>
AnchorPoint: "Yerik" 897 623 basechar 0
AnchorPoint: "Above" 727 623 basechar 0
LayerCount: 2
Fore
SplineSet
282 640 m 0xc3e0
 297 640 299 636 299 628 c 2
 296 597 l 2
 296 574 306 551 357 487 c 0
 383 455 403 430 418 411 c 0
 447 374 466 325 466 265 c 0
 466 213 450 163 418 114 c 0
 386 66 350 35 310 21 c 0
 231 -7 193 -12 178 -12 c 0
 167 -12 162 -9 162 -3 c 2
 169 14 l 2
 172 20 173 26 173 32 c 0
 173 47 169 60 162 73 c 0
 155 86 136 114 105 159 c 0
 74 204 55 240 47 266 c 0
 39 293 35 321 35 352 c 0
 35 445 63 517 120 566 c 0
 177 615 231 640 282 640 c 0xc3e0
157 293 m 2
 201 161 l 2
 206 144 213 115 213 90 c 0
 213 57 207 46 186 9 c 1
 229 9 268 28 303 67 c 0
 338 106 355 156 355 216 c 0
 355 254 351 287 342 315 c 0
 333 343 321 379 305 424 c 0
 290 469 280 499 276 516 c 0
 273 533 271 548 271 562 c 0
 271 581 272 587 280 619 c 1
 242 619 208 602 178 569 c 0
 148 536 133 490 133 431 c 0xc7e0
 133 396 136 358 157 293 c 2
721 -1 m 1xb3e0
 593 -1 l 1
 574 123 557 216 544 278 c 0
 531 340 522 380 515 399 c 0
 502 436 503 434 502 439 c 0
 502 451 512 451 536 451 c 2xabe0
 613 450 l 1
 637 362 654 286 669 186 c 2
 692 44 l 2
 695 28 699 17 710 17 c 0
 719 17 724 24 724 39 c 2
 735 122 l 2
 748 223 770 305 802 367 c 0
 834 429 885 460 956 460 c 0
 972 460 978 459 978 452 c 0
 975 447 972 444 969 441 c 0
 962 437 948 416 948 392 c 0
 948 379 952 364 959 339 c 1
 898 339 855 321 831 285 c 0
 807 249 788 180 775 77 c 0
 762 -26 751 -106 741 -163 c 0
 732 -221 717 -250 698 -250 c 0
 691 -250 687 -247 687 -240 c 2
 692 -218 l 2
 698 -202 704 -176 709 -139 c 0
 714 -102 717 -70 717 -41 c 2
 721 -1 l 1xb3e0
EndSplineSet
Validated: 1
EndChar

StartChar: uni0479
Encoding: 1145 1145 154
Width: 759
Flags: W
HStem: -248 21G<469.5 480.5> -12 122<110.124 180.546> 0 18<474.201 496.888> 327 127<105.637 170.793> 442 20G<646.5 735.5>
VStem: 44 42<136.83 306.561> 199 44<127.241 305.778>
DStem2: 396 444 280 444 0.21693 -0.976187<-11.9496 266.316> 465 -217 517 -142 0.173785 0.984784<-28.4686 217.241 235.291 248.165 248.576 542.794>
AnchorPoint: "Yerik" 637 623 basechar 0
AnchorPoint: "Above" 507 623 basechar 0
LayerCount: 2
Fore
SplineSet
44 237 m 0xd6
 44 297 53 348 72 390 c 0
 91 433 110 454 131 454 c 0
 155 454 180 430 205 382 c 0
 230 334 243 276 243 209 c 0
 243 157 235 107 219 59 c 0
 203 12 181 -12 152 -12 c 0
 123 -12 98 13 76 64 c 0
 55 115 44 172 44 237 c 0xd6
86 224 m 0
 86 152 115 110 147 110 c 0
 179 110 199 152 199 216 c 0
 199 296 169 327 141 327 c 0
 108 327 86 284 86 224 c 0
497 0 m 1xb6
 368 0 l 1
 344 211 317 345 284 426 c 1
 280 444 l 2
 280 449 288 451 305 451 c 2
 371 451 l 2
 386 451 395 449 396 444 c 2
 400 428 l 2
 427 332 444 219 463 90 c 2
 469 47 l 2
 474 23 476 18 487 18 c 0
 492 18 496 22 499 29 c 0
 502 37 507 68 514 122 c 0
 538 277 567 462 726 462 c 0
 727 462 728 462 729 462 c 0xae
 742 462 749 459 749 454 c 0
 749 450 746 447 737 438 c 0
 729 429 714 401 714 384 c 0
 716 361 726 353 726 349 c 0
 726 349 726 348 726 348 c 0
 726 343 723 341 716 341 c 0
 680 341 654 336 638 327 c 0
 623 318 609 297 597 262 c 0
 586 228 575 184 565 130 c 0
 555 77 546 24 537 -27 c 0
 529 -78 522 -117 517 -142 c 0
 512 -168 507 -189 502 -206 c 0
 493 -241 487 -248 474 -248 c 0
 465 -248 461 -244 461 -236 c 2
 465 -217 l 2
 469 -206 474 -177 481 -132 c 0
 488 -87 493 -43 497 0 c 1xb6
EndSplineSet
Validated: 1
LCarets2: 1 0
Ligature2: "'ccmp' Canonical Composition and Precomposed Glyphs-1" uni1C82 afii10085
EndChar

StartChar: uni0460
Encoding: 1120 1120 155
Width: 866
Flags: HW
LayerCount: 2
Fore
SplineSet
598 -11 m 1
 579 -11 l 1
 513 17 457 63 410 124 c 1
 333 64 276 20 235 -8 c 0
 231 -10 228 -11 226 -11 c 0
 223 -11 220 -10 218 -8 c 0
 90 84 26 209 26 369 c 0
 26 465 51 575 96 631 c 1
 220 631 l 2
 224 631 225 630 226 628 c 0
 228 625 228 623 226 622 c 0
 176 539 150 448 150 349 c 2
 150 345 l 2
 150 282 160 222 180 166 c 0
 200 110 226 67 260 38 c 1
 339 98 385 133 396 143 c 1
 350 210 327 294 327 394 c 0
 327 481 359 588 408 631 c 1
 537 631 l 2
 541 631 543 630 544 627 c 0
 547 625 547 622 546 620 c 0
 496 538 471 438 471 320 c 0
 471 223 493 148 537 94 c 0
 549 81 562 69 579 59 c 0
 596 48 610 41 624 37 c 1
 651 54 672 76 682 102 c 0
 709 165 723 236 723 315 c 2
 723 324 l 2
 723 417 693 576 646 622 c 0
 645 623 645 625 646 628 c 0
 648 630 649 631 652 631 c 2
 770 631 l 1
 817 592 841 511 841 387 c 0
 841 303 818 225 772 153 c 0
 728 80 669 26 598 -11 c 1
EndSplineSet
Validated: 1
AlternateSubs2: "'salt' Stylistic Alternatives in Cyrillic-1" uni0460.alt
EndChar

StartChar: uni0461
Encoding: 1121 1121 156
Width: 778
Flags: W
HStem: -11 59<185.5 252.963 482.691 568.183> 431 20G<60.5 183 334.5 481 577 710> 431 20G<60.5 183 334.5 481 577 710>
VStem: 42 105<139.634 405.672> 69 114<337 451> 308 107<158.219 364.26> 635 93<177.746 360.845>
AnchorPoint: "Yerik" 637 623 basechar 0
AnchorPoint: "Above" 397 623 basechar 0
LayerCount: 2
Fore
SplineSet
69 451 m 1xce
 183 451 l 1xce
 163 392 147 327 147 254 c 0
 147 199 157 150 178 109 c 0
 199 68 221 48 245 48 c 0
 257 48 273 58 293 77 c 0
 314 96 330 113 343 127 c 1
 315 188 308 223 308 270 c 0
 308 341 323 391 346 451 c 1
 481 451 l 1
 459 412 442 379 431 350 c 0
 420 321 415 287 415 246 c 0
 415 188 428 140 455 102 c 0
 482 65 505 46 526 46 c 0
 545 46 567 63 594 98 c 0
 621 133 635 179 635 237 c 0
 635 263 632 290 625 319 c 0
 619 348 606 385 585 432 c 2
 577 451 l 1
 702 451 l 1
 718 400 728 357 728 302 c 0
 728 219 703 147 653 84 c 0
 604 21 554 -10 505 -10 c 0
 488 -10 466 -3 438 11 c 0
 411 26 383 55 355 100 c 1
 292 36 235 -11 200 -11 c 0
 171 -11 137 16 99 70 c 0
 61 124 42 193 42 277 c 0xd6
 42 344 52 392 69 451 c 1xce
EndSplineSet
Validated: 1
EndChar

StartChar: uni046E
Encoding: 1134 1134 157
Width: 574
Flags: W
HStem: -183 35<156.5 231.755> -93 33<347.559 453.5> -9 24<284.383 360.866> 24 36<135.5 237.117> 130 22<56 113.544 219 274> 328 28<264.83 349.045> 407 21<55 107 216 273> 622 17<306 333.665> 695 78<334.37 398.615>
VStem: 63 94<-132.413 16.7986> 107 109<428 541.095> 377 104<397.225 572.604> 403 114<80.6786 267.853> 417 111<-190.091 -95.2752>
AnchorPoint: "Yerik" 482 800 basechar 0
AnchorPoint: "Above" 289 800 basechar 0
LayerCount: 2
Fore
SplineSet
56 130 m 1xffa8
 56 152 l 1
 111 152 l 1
 129 219 149 269 171 304 c 0
 193 339 231 356 284 356 c 2
 300 356 l 2
 303 356 306 356 309 356 c 0
 334 356 338 357 353 374 c 0
 370 393 377 448 377 492 c 0
 377 565 362 622 299 622 c 0
 242 622 216 573 216 428 c 1
 273 428 l 1
 273 407 l 1
 55 407 l 1
 55 428 l 1
 107 428 l 1
 107 473 116 515 134 554 c 0
 152 594 188 621 243 636 c 1
 209 715 l 1
 205 722 l 1
 203 727 l 2
 200 732 198 736 196 737 c 0
 192 740 167 744 167 757 c 0
 167 770 174 772 203 772 c 2
 256 772 l 1
 294 668 l 1
 318 743 337 773 393 773 c 0
 410 773 420 773 420 762 c 0
 420 762 420 761 420 761 c 0
 420 755 404 754 399 724 c 0
 399 713 402 701 409 690 c 2
 412 684 l 1
 409 680 406 678 405 678 c 2
 395 681 l 2
 378 689 363 695 351 695 c 0
 322 695 311 667 306 639 c 1
 349 639 388 628 425 607 c 0
 462 586 481 543 481 480 c 0xffb0
 481 401 446 372 391 345 c 1
 482 312 517 259 517 176 c 0xff88
 517 115 498 69 461 38 c 0
 424 7 384 -9 343 -9 c 0
 315 -9 294 0 265 9 c 0
 236 20 211 24 202 24 c 0
 167 24 157 -4 157 -57 c 0
 157 -114 173 -148 202 -148 c 0
 209 -148 217 -146 225 -143 c 0
 233 -140 250 -130 275 -114 c 0
 327 -83 373 -60 426 -60 c 0
 481 -60 528 -91 528 -142 c 0
 528 -173 506 -203 473 -203 c 0
 424 -203 417 -176 417 -141 c 0
 417 -104 414 -93 378 -93 c 0
 354 -93 331 -105 280 -137 c 0
 231 -170 199 -183 172 -183 c 0
 141 -183 115 -170 94 -145 c 0
 73 -120 63 -90 63 -57 c 0xffc4
 63 15 109 60 162 60 c 0
 185 60 217 51 242 40 c 0
 269 29 303 15 318 15 c 0
 353 15 376 31 387 62 c 0
 398 93 403 131 403 174 c 0
 403 282 374 328 310 328 c 0
 249 328 216 273 216 194 c 1
 219 152 l 1
 274 152 l 1
 274 130 l 1
 56 130 l 1xffa8
EndSplineSet
Validated: 1
EndChar

StartChar: uni046F
Encoding: 1135 1135 158
Width: 481
Flags: W
HStem: -181 26<133.547 214.317> -140 17<275.11 353.5> -13 26<240.609 347.862> 17 26<147 207.591> 234 18<211.062 285.842> 577 38<323.203 393.985>
VStem: 51 73<-139.553 1.44284> 66 104<118 166.867 308 400.311> 330 77<-214.24 -140.125> 333 91<290.89 415.786> 339 94<40.2373 191.673>
DStem2: 207 609 143 574 0.535824 -0.844329<0 107.381>
AnchorPoint: "Yerik" 367 683 basechar 0
AnchorPoint: "Above" 257 683 basechar 0
LayerCount: 2
Fore
SplineSet
311 249 m 1xfd40
 311 241 l 1
 342 234 370 223 395 206 c 0
 420 190 433 161 433 120 c 0xfc20
 433 47 389 -13 306 -13 c 0
 271 -13 240 0 209 11 c 0
 201 12 187 17 179 17 c 0
 146 17 124 -17 124 -65 c 0
 124 -110 140 -155 180 -155 c 0
 195 -155 202 -152 237 -141 c 0
 273 -132 303 -123 328 -123 c 0
 379 -123 407 -150 407 -179 c 0
 407 -199 396 -217 369 -217 c 0
 342 -217 330 -202 330 -179 c 2
 330 -168 l 2xfe80
 330 -145 327 -140 311 -140 c 0
 302 -140 286 -144 263 -152 c 0
 218 -168 176 -181 149 -181 c 0
 119 -181 95 -169 77 -146 c 0
 60 -123 51 -97 51 -68 c 0
 51 -39 60 -14 78 9 c 0
 96 32 119 43 147 43 c 0
 164 43 179 41 192 37 c 0
 224 24 245 13 268 13 c 0
 305 13 339 41 339 118 c 0xfe20
 339 136 335 160 328 189 c 0
 321 219 296 234 251 234 c 0
 218 234 197 223 186 200 c 0
 175 177 170 150 170 118 c 1
 66 118 l 1
 89 177 111 214 134 229 c 0
 157 244 195 252 248 252 c 0
 272 254 292 261 308 273 c 0
 325 285 333 309 333 346 c 0
 333 414 296 440 253 440 c 0
 193 440 164 401 164 308 c 1
 63 308 l 1
 63 357 75 392 99 414 c 0
 123 436 145 449 166 452 c 0
 207 460 208 463 208 468 c 0
 207 470 207 472 207 473 c 0
 204 476 203 479 202 480 c 2
 193 496 l 1
 143 574 l 1
 136 584 l 2
 130 594 127 600 127 602 c 0
 127 607 134 609 149 609 c 2
 207 609 l 1
 261 516 l 1
 277 575 296 615 353 615 c 0
 374 615 394 607 394 596 c 0
 394 589 394 586 357 577 c 0
 321 568 288 532 277 460 c 1
 316 457 351 448 380 434 c 0
 409 420 424 393 424 352 c 0
 424 319 413 296 390 281 c 0
 367 266 341 256 311 249 c 1xfd40
EndSplineSet
Validated: 1
EndChar

StartChar: afii10053
Encoding: 1028 1028 159
Width: 536
Flags: W
HStem: -15 28<128.906 231.523> 223 22<335 374 476 510> 380 52<260.756 353.69> 497 22<326.455 352.25 468.989 500> 620 19<223.227 314.704>
VStem: 31 105<323.751 501.554> 121 54<61.7885 181> 374 102<245 361.469>
AnchorPoint: "Yerik" 408 680 basechar 0
AnchorPoint: "Above" 289 680 basechar 0
LayerCount: 2
Fore
SplineSet
457 100 m 1xfb
 451 79 l 1
 439 83 422 89 419 89 c 0
 414 89 413 88 380 48 c 0
 348 9 269 -15 193 -15 c 0
 140 -15 113 -7 82 5 c 1
 110 26 121 53 121 78 c 0xfb
 121 102 112 145 80 217 c 0
 65 254 53 284 44 307 c 0
 35 331 31 361 31 397 c 0
 31 452 49 506 84 559 c 0
 119 612 184 639 279 639 c 0
 392 639 449 596 470 524 c 1
 501 518 l 1
 500 496 l 1
 484 499 l 2
 449 504 423 506 406 506 c 0
 378 506 354 502 327 497 c 1
 323 519 l 1
 362 527 l 1
 354 594 325 620 268 620 c 0
 239 620 210 609 180 587 c 0
 151 566 136 525 136 465 c 0xfd
 136 439 138 416 142 395 c 0
 148 372 153 352 156 336 c 2
 160 311 l 1
 213 383 263 432 344 432 c 0
 435 432 476 376 476 245 c 1
 510 245 l 1
 510 223 l 1
 334 223 l 1
 335 245 l 1
 374 245 l 1
 377 286 l 1
 377 347 348 380 307 380 c 0
 266 380 231 350 206 325 c 2
 170 284 l 2
 167 279 166 274 166 268 c 2
 169 245 l 2
 172 226 175 189 175 173 c 0
 175 100 157 61 128 17 c 1
 140 14 150 13 166 13 c 0
 210 13 246 28 273 57 c 0
 301 86 315 107 315 120 c 0
 315 124 301 133 288 140 c 2
 281 144 l 1
 290 165 l 1
 307 156 331 146 362 133 c 0
 394 120 426 109 457 100 c 1xfb
EndSplineSet
Validated: 1
EndChar

StartChar: uni0482
Encoding: 1154 1154 160
Width: 426
Flags: W
HStem: 447 20G<318.8 371.03>
DStem2: 59 143 29 77 0.817628 -0.575747<13.4704 112.887 206.322 292.956> 36 -180 107 -212 0.41136 0.911473<0.0394455 193.868 283.789 400.19 489.7 708.968> 143 331 113 265 0.819232 -0.573462<13.2716 112.89 206.938 292.957>
LayerCount: 2
Fore
SplineSet
36 -180 m 1
 122 11 l 1
 29 77 l 1
 59 143 l 1
 152 79 l 1
 206 200 l 1
 113 265 l 1
 143 331 l 1
 236 267 l 1
 328 467 l 1
 399 434 l 1
 301 221 l 1
 383 163 l 1
 353 97 l 1
 271 153 l 1
 217 34 l 1
 299 -25 l 1
 269 -92 l 1
 186 -35 l 1
 107 -212 l 1
 36 -180 l 1
EndSplineSet
Validated: 1
EndChar

StartChar: underscore
Encoding: 95 95 161
Width: 352
Flags: W
HStem: 0 76<25 325>
VStem: 25 300<0 76>
LayerCount: 2
Fore
SplineSet
325 0 m 1
 25 0 l 1
 25 76 l 1
 325 76 l 1
 325 0 l 1
EndSplineSet
Validated: 1
EndChar

StartChar: afii10085
Encoding: 1091 1091 162
Width: 500
Flags: W
HStem: -250 21G<192.5 205.5> -1 18<195.252 218.807> 339 121<365.763 457> 431 20G<22 111> 431 20G<22 111>
DStem2: 167 186 42 278 0.159888 -0.987135<-265.315 172.443>
AnchorPoint: "Yerik" 397 623 basechar 0
AnchorPoint: "Above" 227 623 basechar 0
LayerCount: 2
Fore
SplineSet
219 -1 m 1xe0
 91 -1 l 1
 72 123 55 216 42 278 c 0
 29 340 20 380 13 399 c 0
 0 436 1 434 0 439 c 0
 0 451 10 451 34 451 c 2xd0
 111 450 l 1
 135 362 152 286 167 186 c 2
 190 44 l 2
 193 28 197 17 208 17 c 0
 217 17 222 24 222 39 c 2
 233 122 l 2
 246 223 268 305 300 367 c 0
 332 429 383 460 454 460 c 0
 470 460 476 459 476 452 c 0
 473 447 470 444 467 441 c 0
 460 437 446 416 446 392 c 0
 446 379 450 364 457 339 c 1
 396 339 353 321 329 285 c 0
 305 249 286 180 273 77 c 0
 260 -26 249 -106 239 -163 c 0
 230 -221 215 -250 196 -250 c 0
 189 -250 185 -247 185 -240 c 2
 190 -218 l 2
 196 -202 202 -176 207 -139 c 0
 212 -102 215 -70 215 -41 c 2
 219 -1 l 1xe0
EndSplineSet
Validated: 1
EndChar

StartChar: afii10037
Encoding: 1059 1059 163
Width: 528
Flags: W
HStem: 0 21<218 268.665 353.681 381> 224 24<234 292> 498 144<421.205 484.275> 608 20G<50 197.5>
VStem: 125 107<248 475.364>
AnchorPoint: "Yerik" 440 680 basechar 0
AnchorPoint: "Above" 289 680 basechar 0
LayerCount: 2
Fore
SplineSet
315 148 m 1xe8
 315 93 333 22 381 22 c 1
 381 0 l 1
 218 0 l 1
 218 21 l 1
 246 21 262 24 269 31 c 0
 276 38 285 117 288 148 c 1
 292 224 l 1
 125 224 l 1
 125 338 119 417 108 460 c 0
 97 504 78 560 50 628 c 1
 182 628 l 1xd8
 213 513 232 393 232 282 c 1
 234 248 l 1
 294 248 l 1
 302 335 311 403 320 451 c 0
 330 499 346 537 367 566 c 0
 410 625 450 642 499 642 c 0
 505 642 508 640 508 636 c 0
 508 633 506 628 503 623 c 0
 498 618 485 584 485 559 c 0
 485 543 490 518 499 501 c 2
 502 491 l 2
 502 488 499 486 493 483 c 0
 479 485 456 498 439 498 c 0
 437 498 436 498 434 498 c 0
 387 498 356 463 343 406 c 0
 337 377 331 338 324 287 c 0
 317 236 315 179 315 148 c 1xe8
EndSplineSet
Validated: 1
EndChar

StartChar: afii10056
Encoding: 1031 1031 164
Width: 296
Flags: W
HStem: 0 34<210.969 264.447> 608 20G<24 256> 714 117<36 112 187 263>
VStem: 17 95<736 831> 36 95<714 809> 55 178<266.366 363.331> 107 74<63.0393 258.771 370.351 566.43> 168 95<736 831> 187 95<714 809>
AnchorPoint: "Yerik" 133 891 basechar 0
AnchorPoint: "Above" 131 892 basechar 0
LayerCount: 2
Fore
SplineSet
131 714 m 1xe8
 36 714 l 1xe8
 17 831 l 1
 112 831 l 1xf0
 131 714 l 1xe8
181 250 m 1xe2
 181 199 l 2
 181 147 184 109 191 85 c 0
 198 61 213 44 235 34 c 0
 257 25 268 17 268 10 c 0
 268 1 266 0 242 0 c 2
 48 0 l 2
 21 0 20 1 20 10 c 0
 20 16 31 24 52 34 c 0
 96 54 107 100 107 199 c 2
 107 250 l 1xe2
 70 261 55 288 55 315 c 0xe4
 55 340 71 370 107 379 c 1
 107 431 l 2
 107 482 103 520 96 544 c 0
 89 568 75 585 53 595 c 0
 31 605 20 613 20 619 c 0
 20 624 21 626 24 627 c 2
 54 628 l 1
 246 628 l 2
 266 628 268 628 268 620 c 0
 268 613 257 605 235 595 c 0
 192 575 181 531 181 431 c 2
 181 379 l 1xe2
 217 370 233 340 233 315 c 0xe4
 233 290 217 259 181 250 c 1xe2
282 714 m 1xe080
 187 714 l 1xe080
 168 831 l 1
 263 831 l 1xe1
 282 714 l 1xe080
EndSplineSet
Validated: 1
LCarets2: 1 0
Ligature2: "'ccmp' Canonical Composition and Precomposed Glyphs-1" afii10055 uni0308
EndChar

StartChar: afii10104
Encoding: 1111 1111 165
Width: 278
Flags: W
HStem: 0 21G<85 198> 431 20G<90 203> 431 20G<90 203> 540 111<31 100 178 247>
VStem: 13 87<564 651> 31 89<540 629> 80 112<0 448.616> 158 89<562 651> 178 86<540 626>
AnchorPoint: "Yerik" 137 743 basechar 0
AnchorPoint: "Above" 137 743 basechar 0
LayerCount: 2
Fore
SplineSet
198 0 m 1xd2
 85 0 l 1
 85 15 84 43 82 85 c 0
 81 128 80 159 80 179 c 0
 80 238 81 287 83 326 c 0
 85 365 88 407 92 451 c 1
 203 451 l 1
 198 400 195 358 194 327 c 0
 193 296 192 255 192 202 c 0
 192 162 193 121 195 79 c 0
 197 37 198 11 198 0 c 1xd2
31 540 m 1x94
 13 651 l 1
 100 651 l 1x98
 120 540 l 1
 31 540 l 1x94
178 540 m 1x9080
 158 651 l 1
 247 651 l 1x91
 264 540 l 1
 178 540 l 1x9080
EndSplineSet
Validated: 1
LCarets2: 1 0
Ligature2: "'ccmp' Canonical Composition and Precomposed Glyphs-1" afii10103 uni0308
EndChar

StartChar: uni0450
Encoding: 1104 1104 166
Width: 315
Flags: W
HStem: -3 21G<62 117> 442 20G<246.5 265>
VStem: 62 89<78 172 259 362.365>
AnchorPoint: "Yerik" 177 925 basechar 0
AnchorPoint: "Above" 177 923 basechar 0
LayerCount: 2
Fore
SplineSet
62 -1 m 1
 62 265 l 2
 62 374 74 418 121 438 c 0
 144 449 165 455 182 458 c 0
 200 461 228 462 265 462 c 1
 265 399 l 2
 264 393 251 388 224 385 c 0
 171 380 150 350 150 287 c 2
 150 259 l 1
 255 299 l 1
 255 237 l 2
 255 213 251 208 216 195 c 2
 151 172 l 1
 151 78 l 1
 199 102 l 1
 207 106 l 2
 218 111 224 114 227 114 c 0
 234 114 238 109 238 100 c 0
 238 83 225 61 199 35 c 0
 174 10 139 -3 95 -3 c 2
 62 -1 l 1
112 687 m 2
 65 761 l 2
 48 789 38 806 38 809 c 0
 38 816 42 817 49 817 c 2
 74 815 l 2
 107 811 110 810 118 795 c 2
 157 720 l 1
 166 703 l 1
 180 673 l 1
 199 637 l 1
 201 630 l 2
 201 625 196 623 185 623 c 0
 169 623 158 626 151 632 c 0
 144 638 131 656 112 687 c 2
EndSplineSet
Validated: 1
LCarets2: 1 0
Ligature2: "'ccmp' Canonical Composition and Precomposed Glyphs-1" afii10070 gravecomb
EndChar

StartChar: uni0400
Encoding: 1024 1024 167
Width: 536
Flags: W
HStem: -15 28<128.906 231.523> 223 22<335 374 476 510> 380 52<260.756 353.69> 497 22<326.455 352.25 468.989 500> 620 19<223.227 314.704>
VStem: 31 105<323.751 501.554> 121 54<61.7885 181> 374 102<245 361.469>
AnchorPoint: "Yerik" 408 951 basechar 0
AnchorPoint: "Above" 270 953 basechar 0
LayerCount: 2
Fore
SplineSet
221 746 m 2xf9
 174 820 l 2
 157 848 147 865 147 868 c 0
 147 875 151 876 158 876 c 2
 183 874 l 2
 216 870 219 869 227 854 c 2
 266 779 l 1
 275 762 l 1
 289 732 l 1
 308 696 l 1
 310 689 l 2
 310 684 305 682 294 682 c 0
 278 682 267 685 260 691 c 0
 253 697 240 715 221 746 c 2xf9
457 100 m 1
 451 79 l 1
 439 83 422 89 419 89 c 0
 414 89 413 88 380 48 c 0
 348 9 269 -15 193 -15 c 0
 140 -15 113 -7 82 5 c 1
 110 26 121 53 121 78 c 0xfb
 121 102 112 145 80 217 c 0
 65 254 53 284 44 307 c 0
 35 331 31 361 31 397 c 0
 31 452 49 506 84 559 c 0
 119 612 184 639 279 639 c 0
 392 639 449 596 470 524 c 1
 501 518 l 1
 500 496 l 1
 484 499 l 2
 449 504 423 506 406 506 c 0
 378 506 354 502 327 497 c 1
 323 519 l 1
 362 527 l 1
 354 594 325 620 268 620 c 0
 239 620 210 609 180 587 c 0
 151 566 136 525 136 465 c 0xfd
 136 439 138 416 142 395 c 0
 148 372 153 352 156 336 c 2
 160 311 l 1
 213 383 263 432 344 432 c 0
 435 432 476 376 476 245 c 1
 510 245 l 1
 510 223 l 1
 334 223 l 1
 335 245 l 1
 374 245 l 1
 377 286 l 1
 377 347 348 380 307 380 c 0
 266 380 231 350 206 325 c 2
 170 284 l 2
 167 279 166 274 166 268 c 2
 169 245 l 2
 172 226 175 189 175 173 c 0xfb
 175 100 157 61 128 17 c 1
 140 14 150 13 166 13 c 0
 210 13 246 28 273 57 c 0
 301 86 315 107 315 120 c 0
 315 124 301 133 288 140 c 2
 281 144 l 1
 290 165 l 1
 307 156 331 146 362 133 c 0
 394 120 426 109 457 100 c 1
EndSplineSet
Validated: 1
LCarets2: 1 0
Ligature2: "'ccmp' Canonical Composition and Precomposed Glyphs-1" afii10022 gravecomb
EndChar

StartChar: afii10023
Encoding: 1025 1025 168
Width: 536
Flags: W
HStem: -15 28<128.906 231.523> 223 22<335 374 476 510> 380 52<260.756 353.69> 497 22<326.455 352.25 468.989 500> 620 19<223.227 314.704> 714 117<151 227 302 378>
VStem: 31 105<323.751 501.554> 121 54<61.7885 181> 132 95<736 831> 151 95<714 809> 283 95<736 831> 302 95<714 809> 374 102<245 361.469>
AnchorPoint: "Yerik" 257 894 basechar 0
AnchorPoint: "Above" 255 894 basechar 0
LayerCount: 2
Fore
SplineSet
246 714 m 1xfc40
 151 714 l 1xfc40
 132 831 l 1
 227 831 l 1xfc80
 246 714 l 1xfc40
397 714 m 1xfc10
 302 714 l 1xfc10
 283 831 l 1
 378 831 l 1xfc20
 397 714 l 1xfc10
457 100 m 1
 451 79 l 1
 439 83 422 89 419 89 c 0
 414 89 413 88 380 48 c 0
 348 9 269 -15 193 -15 c 0
 140 -15 113 -7 82 5 c 1
 110 26 121 53 121 78 c 0xfd08
 121 102 112 145 80 217 c 0
 65 254 53 284 44 307 c 0
 35 331 31 361 31 397 c 0
 31 452 49 506 84 559 c 0
 119 612 184 639 279 639 c 0
 392 639 449 596 470 524 c 1
 501 518 l 1
 500 496 l 1
 484 499 l 2
 449 504 423 506 406 506 c 0
 378 506 354 502 327 497 c 1
 323 519 l 1
 362 527 l 1
 354 594 325 620 268 620 c 0
 239 620 210 609 180 587 c 0
 151 566 136 525 136 465 c 0xfe
 136 439 138 416 142 395 c 0
 148 372 153 352 156 336 c 2
 160 311 l 1
 213 383 263 432 344 432 c 0
 435 432 476 376 476 245 c 1
 510 245 l 1
 510 223 l 1
 334 223 l 1
 335 245 l 1
 374 245 l 1
 377 286 l 1
 377 347 348 380 307 380 c 0
 266 380 231 350 206 325 c 2
 170 284 l 2
 167 279 166 274 166 268 c 2
 169 245 l 2
 172 226 175 189 175 173 c 0xfd08
 175 100 157 61 128 17 c 1
 140 14 150 13 166 13 c 0
 210 13 246 28 273 57 c 0
 301 86 315 107 315 120 c 0
 315 124 301 133 288 140 c 2
 281 144 l 1
 290 165 l 1
 307 156 331 146 362 133 c 0
 394 120 426 109 457 100 c 1
EndSplineSet
Validated: 1
LCarets2: 1 0
Ligature2: "'ccmp' Canonical Composition and Precomposed Glyphs-1" afii10022 uni0308
EndChar

StartChar: afii10052
Encoding: 1027 1027 169
Width: 407
Flags: W
HStem: 0 21<42 95 209 260> 466 21G<353 357.5> 607 21<42 95 209 274.153>
VStem: 95 114<21 607>
DStem2: 169 723 285 866 0.343431 0.939178<9.3717 163.967>
AnchorPoint: "Yerik" 243 938 basechar 0
AnchorPoint: "Above" 245 938 basechar 0
LayerCount: 2
Fore
SplineSet
214 711 m 1
 207 698 l 2
 200 683 183 680 162 680 c 0
 158 682 156 684 156 686 c 2
 158 694 l 1
 169 723 l 1
 195 795 l 1
 207 828 l 1
 218 857 l 2
 221 864 225 867 230 868 c 2
 277 873 l 2
 282 873 285 871 285 866 c 2
 280 852 l 1
 214 711 l 1
270 607 m 1
 209 607 l 1
 209 21 l 1
 260 21 l 1
 260 0 l 1
 42 0 l 1
 42 21 l 1
 95 21 l 1
 95 607 l 1
 42 607 l 1
 42 628 l 1
 397 628 l 1
 384 605 377 587 373 568 c 0
 371 559 368 543 365 520 c 0
 362 497 361 483 361 478 c 0
 361 470 359 466 356 466 c 0
 350 466 336 483 315 518 c 0
 294 553 279 583 270 607 c 1
EndSplineSet
Validated: 1
LCarets2: 1 0
Ligature2: "'ccmp' Canonical Composition and Precomposed Glyphs-1" afii10020 acutecomb
EndChar

StartChar: afii10061
Encoding: 1036 1036 170
Width: 556
Flags: W
HStem: 0 21<34 84 198 248 306 366.246 486.994 534> 328 23<198 277.63> 607 21<34 84 198 248 303 356.081 463.626 520>
VStem: 84 114<21 328 351 607> 357 106<416.992 606.93> 371 115<34.629 255.799>
DStem2: 247 723 363 866 0.343431 0.939178<9.3717 163.967>
AnchorPoint: "Yerik" 324 938 basechar 0
AnchorPoint: "Above" 325 938 basechar 0
LayerCount: 2
Fore
SplineSet
292 711 m 1xf0
 285 698 l 2
 278 683 261 680 240 680 c 0
 236 682 234 684 234 686 c 2
 236 694 l 1
 247 723 l 1
 273 795 l 1
 285 828 l 1
 296 857 l 2
 299 864 303 867 308 868 c 2
 355 873 l 2
 360 873 363 871 363 866 c 2
 358 852 l 1
 292 711 l 1xf0
198 21 m 1
 248 21 l 1
 248 0 l 1
 34 0 l 1
 34 21 l 1
 84 21 l 1
 84 607 l 1
 34 607 l 1
 34 628 l 1
 248 628 l 1
 248 607 l 1
 198 607 l 1
 198 351 l 1
 234 351 260 354 276 361 c 0
 293 368 308 380 323 397 c 0
 352 432 357 488 357 580 c 0
 357 605 356 607 329 607 c 2
 303 607 l 1
 303 628 l 1
 520 628 l 1
 520 607 l 1
 480 607 l 2
 469 606 463 601 463 592 c 0xf8
 463 498 454 436 436 406 c 0
 419 376 377 356 311 345 c 1
 311 336 l 1
 388 321 436 300 456 272 c 0
 476 244 486 174 486 62 c 0
 486 59 486 56 486 53 c 0
 486 22 487 21 508 21 c 2
 534 21 l 1
 534 0 l 1
 306 0 l 1
 306 21 l 1
 354 22 l 2
 361 24 366 28 367 34 c 0
 370 47 371 87 371 114 c 0xf4
 371 197 359 254 336 283 c 0
 313 313 267 328 198 328 c 1
 198 21 l 1
EndSplineSet
Validated: 1
LCarets2: 1 0
Ligature2: "'ccmp' Canonical Composition and Precomposed Glyphs-1" afii10028 acutecomb
EndChar

StartChar: uni040D
Encoding: 1037 1037 171
Width: 556
Flags: W
HStem: 0 21<31 86 200 255 300 355 469 525> 607 21<31 86 200 255 300 355 469 525>
VStem: 86 114<21 305 329 607> 355 114<21 391 415 607>
DStem2: 200 329 200 305 0.874423 0.485164<0 165.616>
AnchorPoint: "Yerik" 288 920 basechar 0
AnchorPoint: "Above" 289 919 basechar 0
LayerCount: 2
Fore
SplineSet
221 746 m 2
 174 820 l 2
 157 848 147 865 147 868 c 0
 147 875 151 876 158 876 c 2
 183 874 l 2
 216 870 219 869 227 854 c 2
 266 779 l 1
 275 762 l 1
 289 732 l 1
 308 696 l 1
 310 689 l 2
 310 684 305 682 294 682 c 0
 278 682 267 685 260 691 c 0
 253 697 240 715 221 746 c 2
31 0 m 1
 31 21 l 1
 86 21 l 1
 86 607 l 1
 31 607 l 1
 31 628 l 1
 255 628 l 1
 255 607 l 1
 200 607 l 1
 200 329 l 1
 355 415 l 1
 355 607 l 1
 300 607 l 1
 300 628 l 1
 525 628 l 1
 525 607 l 1
 469 607 l 1
 469 21 l 1
 525 21 l 1
 525 0 l 1
 300 0 l 1
 300 21 l 1
 355 21 l 1
 355 391 l 1
 200 305 l 1
 200 21 l 1
 255 21 l 1
 255 0 l 1
 31 0 l 1
EndSplineSet
Validated: 1
LCarets2: 1 0
Ligature2: "'ccmp' Canonical Composition and Precomposed Glyphs-1" afii10026 gravecomb
EndChar

StartChar: afii10062
Encoding: 1038 1038 172
Width: 528
Flags: W
HStem: 0 21<218 268.665 353.681 381> 224 24<234 292> 498 144<421.205 484.275> 608 20G<50 197.5> 693 72<239.672 330.804>
VStem: 125 107<248 475.364> 188 40<779.077 853.604> 329 33<820.515 872.484> 341 35<778.528 853.851>
AnchorPoint: "Yerik" 288 920 basechar 0
AnchorPoint: "Above" 289 920 basechar 0
LayerCount: 2
Fore
SplineSet
341 820 m 0xca80
 341 831 338 841 333 851 c 2
 329 867 l 2
 329 873 332 876 338 876 c 0
 345 876 353 866 362 847 c 0xc9
 371 828 376 809 376 788 c 0
 376 758 366 735 345 718 c 0
 325 701 303 693 280 693 c 0
 233 693 188 729 188 782 c 0
 188 805 193 827 203 846 c 0
 214 865 223 875 231 875 c 0
 239 875 243 871 243 863 c 0
 243 863 243 863 243 862 c 0
 243 860 232 853 228 820 c 0
 228 783 260 765 287 765 c 0
 324 765 341 793 341 820 c 0xca80
315 148 m 1
 315 93 333 22 381 22 c 1
 381 0 l 1
 218 0 l 1
 218 21 l 1
 246 21 262 24 269 31 c 0
 276 38 285 117 288 148 c 1
 292 224 l 1
 125 224 l 1
 125 338 119 417 108 460 c 0
 97 504 78 560 50 628 c 1
 182 628 l 1xdc
 213 513 232 393 232 282 c 1
 234 248 l 1
 294 248 l 1
 302 335 311 403 320 451 c 0
 330 499 346 537 367 566 c 0
 410 625 450 642 499 642 c 0
 505 642 508 640 508 636 c 0
 508 633 506 628 503 623 c 0
 498 618 485 584 485 559 c 0
 485 543 490 518 499 501 c 2
 502 491 l 2
 502 488 499 486 493 483 c 0
 479 485 456 498 439 498 c 0
 437 498 436 498 434 498 c 0xec
 387 498 356 463 343 406 c 0
 337 377 331 338 324 287 c 0
 317 236 315 179 315 148 c 1
EndSplineSet
Validated: 1
LCarets2: 1 0
Ligature2: "'ccmp' Canonical Composition and Precomposed Glyphs-1" afii10037 uni0306
EndChar

StartChar: afii10047
Encoding: 1069 1069 173
Width: 536
Flags: W
HStem: -15 28<309.477 412.094> 223 22<31 65 167 206> 380 52<187.31 280.244> 496 22<41 71.2317> 620 19<226.296 317.773>
VStem: 65 99<245 357.341> 366 54<61.7885 181> 405 105<323.751 501.554>
AnchorPoint: "Yerik" 408 680 basechar 0
AnchorPoint: "Above" 272 680 basechar 0
LayerCount: 2
Fore
SplineSet
84 100 m 1xfe
 115 109 147 120 179 133 c 0
 210 146 234 156 251 165 c 1
 260 144 l 1
 253 140 l 2
 240 133 226 124 226 120 c 0
 226 107 240 86 268 57 c 0
 295 28 331 13 375 13 c 0
 391 13 401 14 413 17 c 1
 384 61 366 100 366 173 c 0xfe
 366 189 369 226 372 245 c 2
 375 268 l 2
 375 274 374 279 371 284 c 2
 335 325 l 2
 310 350 275 380 234 380 c 0
 193 380 164 347 164 286 c 1
 167 245 l 1
 206 245 l 1
 207 223 l 1
 31 223 l 1
 31 245 l 1
 65 245 l 1
 65 376 106 432 197 432 c 0
 278 432 328 383 381 311 c 1
 385 336 l 2
 388 352 393 372 399 395 c 0
 403 416 405 439 405 465 c 0
 405 525 390 566 361 587 c 0
 331 609 302 620 273 620 c 0
 216 620 187 594 179 527 c 1
 218 519 l 1
 214 497 l 1
 187 502 163 506 135 506 c 0
 118 506 92 504 57 499 c 2
 41 496 l 1
 40 518 l 1
 71 524 l 1
 92 596 149 639 262 639 c 0
 357 639 422 612 457 559 c 0
 492 506 510 452 510 397 c 0xfd
 510 361 506 331 497 307 c 0
 488 284 476 254 461 217 c 0
 429 145 420 102 420 78 c 0
 420 53 431 26 459 5 c 1
 428 -7 401 -15 348 -15 c 0
 272 -15 193 9 161 48 c 0
 128 88 127 89 122 89 c 0
 119 89 102 83 90 79 c 1
 84 100 l 1xfe
EndSplineSet
Validated: 1
EndChar

StartChar: afii10049
Encoding: 1071 1071 174
Width: 751
Flags: W
HStem: 0 46<92 659> 705 46<92 659>
VStem: 46 46<46 705> 659 46<46 705>
LayerCount: 2
Fore
SplineSet
46 0 m 1
 46 751 l 1
 705 751 l 1
 705 0 l 1
 46 0 l 1
659 46 m 1
 659 705 l 1
 92 705 l 1
 92 46 l 1
 659 46 l 1
EndSplineSet
Validated: 1
EndChar

StartChar: afii10097
Encoding: 1103 1103 175
Width: 751
Flags: W
HStem: 0 46<92 659> 705 46<92 659>
VStem: 46 46<46 705> 659 46<46 705>
LayerCount: 2
Fore
SplineSet
46 0 m 1
 46 751 l 1
 705 751 l 1
 705 0 l 1
 46 0 l 1
659 46 m 1
 659 705 l 1
 92 705 l 1
 92 46 l 1
 659 46 l 1
EndSplineSet
Validated: 1
EndChar

StartChar: afii10095
Encoding: 1101 1101 176
Width: 556
Flags: W
HStem: -244 53<242.09 356> 392 60<230.212 331.212>
VStem: 442 98<66.3704 239.393>
AnchorPoint: "Yerik" 457 623 basechar 0
AnchorPoint: "Above" 307 623 basechar 0
LayerCount: 2
Fore
SplineSet
155 -127 m 1
 162 -133 l 2
 206 -169 242 -191 269 -191 c 0
 292 -191 319 -174 349 -140 c 0
 379 -106 404 -48 425 35 c 1
 424 35 402 49 358 78 c 0
 313 107 283 122 268 122 c 0
 252 122 239 110 212 73 c 0
 185 37 179 29 163 29 c 2
 144 31 l 2
 130 33 116 33 99 33 c 0
 88 33 75 33 59 33 c 0
 46 33 33 36 33 45 c 0
 33 50 47 66 55 73 c 0
 58 76 70 89 89 112 c 0
 143 182 165 216 187 216 c 0
 189 216 190 216 192 216 c 0
 208 216 220 211 253 191 c 0
 285 171 337 132 389 95 c 2
 431 65 l 1
 438 102 442 132 442 163 c 0
 442 229 426 284 393 327 c 0
 360 370 324 392 287 392 c 0
 248 392 210 366 210 329 c 0
 210 317 204 313 192 316 c 2
 66 344 l 2
 55 346 50 350 50 355 c 0
 50 359 55 365 65 372 c 2
 80 386 l 2
 111 418 158 452 234 452 c 0
 258 452 285 447 314 437 c 0
 343 428 378 405 421 370 c 0
 506 299 540 215 540 120 c 0
 540 75 532 27 517 -22 c 0
 501 -72 483 -113 463 -144 c 0
 423 -208 388 -244 324 -244 c 0
 280 -244 218 -221 138 -150 c 1
 155 -127 l 1
EndSplineSet
Validated: 1
EndChar

StartChar: afii10071
Encoding: 1105 1105 177
Width: 315
Flags: W
HStem: -3 21G<62 117> 442 20G<246.5 265> 540 111<54 123 201 270>
VStem: 36 87<564 651> 54 89<540 629> 62 89<78 172 259 362.365> 181 89<562 651> 201 86<540 626>
AnchorPoint: "Yerik" 157 743 basechar 0
AnchorPoint: "Above" 157 743 basechar 0
LayerCount: 2
Fore
SplineSet
54 540 m 1xe8
 36 651 l 1
 123 651 l 1xf0
 143 540 l 1
 54 540 l 1xe8
201 540 m 1xe1
 181 651 l 1
 270 651 l 1xe2
 287 540 l 1
 201 540 l 1xe1
62 -1 m 1xe4
 62 265 l 2
 62 374 74 418 121 438 c 0
 144 449 165 455 182 458 c 0
 200 461 228 462 265 462 c 1
 265 399 l 2
 264 393 251 388 224 385 c 0
 171 380 150 350 150 287 c 2
 150 259 l 1
 255 299 l 1
 255 237 l 2
 255 213 251 208 216 195 c 2
 151 172 l 1
 151 78 l 1
 199 102 l 1
 207 106 l 2
 218 111 224 114 227 114 c 0
 234 114 238 109 238 100 c 0
 238 83 225 61 199 35 c 0
 174 10 139 -3 95 -3 c 2
 62 -1 l 1xe4
EndSplineSet
Validated: 1
LCarets2: 1 0
Ligature2: "'ccmp' Canonical Composition and Precomposed Glyphs-1" afii10070 uni0308
EndChar

StartChar: afii10100
Encoding: 1107 1107 178
Width: 389
Flags: W
HStem: 0 21G<60.5 176> 427 24<167.547 250.859>
VStem: 52 105<3.70093 425.641> 65 111<0 111>
DStem2: 169 667 285 810 0.343431 0.939178<9.3717 163.967>
AnchorPoint: "Yerik" 187 893 basechar 0
AnchorPoint: "Above" 187 893 basechar 0
LayerCount: 2
Fore
SplineSet
214 655 m 1xc0
 207 642 l 2
 200 627 183 624 162 624 c 0
 158 626 156 628 156 630 c 2
 158 638 l 1
 169 667 l 1
 195 739 l 1
 207 772 l 1
 218 801 l 2
 221 808 225 811 230 812 c 2
 277 817 l 2
 282 817 285 815 285 810 c 2
 280 796 l 1
 214 655 l 1xc0
176 0 m 1xd0
 65 0 l 1xd0
 56 71 52 159 52 239 c 0
 52 289 53 326 54 349 c 0
 55 372 58 406 62 451 c 1
 297 451 l 1
 353 451 l 2
 364 451 369 449 369 444 c 2
 357 417 l 2
 342 388 332 348 332 324 c 0
 332 313 330 308 325 308 c 0
 309 308 293 336 272 383 c 0
 261 406 254 419 251 422 c 0
 248 425 244 427 238 427 c 2
 169 427 l 1
 165 398 162 370 160 345 c 0
 158 320 157 281 157 229 c 0xe0
 157 155 163 79 176 0 c 1xd0
EndSplineSet
Validated: 1
LCarets2: 1 0
Ligature2: "'ccmp' Canonical Composition and Precomposed Glyphs-1" afii10068 acutecomb
EndChar

StartChar: afii10109
Encoding: 1116 1116 179
Width: 537
Flags: W
HStem: 0 21G<66 172 391 504> 377 110<358.5 471.5> 431 20G<73.5628 181> 431 20G<73.5628 181>
VStem: 66 106<0 347.857> 74 105<274.143 451> 383 121<0 80.0466>
DStem2: 250 667 366 810 0.343431 0.939178<9.3717 163.967>
AnchorPoint: "Yerik" 307 883 basechar 0
AnchorPoint: "Above" 307 886 basechar 0
LayerCount: 2
Fore
SplineSet
295 655 m 1x82
 288 642 l 2
 281 627 264 624 243 624 c 0
 239 626 237 628 237 630 c 2
 239 638 l 1
 250 667 l 1
 276 739 l 1
 288 772 l 1
 299 801 l 2
 302 808 306 811 311 812 c 2
 358 817 l 2
 363 817 366 815 366 810 c 2
 361 796 l 1
 295 655 l 1x82
172 0 m 1xaa
 66 0 l 1xaa
 66 18 66 52 67 103 c 0
 68 154 69 209 70 268 c 2
 74 451 l 1
 181 451 l 1
 179 397 l 1xa6
 172 225 l 2
 172 210 172 190 171 165 c 0
 170 140 170 123 170 113 c 2
 172 0 l 1xaa
504 0 m 1
 395 0 l 2
 387 1 383 4 383 9 c 2
 385 39 l 2
 385 93 373 131 349 154 c 0
 326 177 303 192 281 199 c 0
 237 215 229 216 229 227 c 0
 229 243 237 267 252 298 c 0
 268 330 286 360 306 389 c 0
 347 446 387 487 463 487 c 0
 480 487 489 483 489 476 c 0
 488 465 450 435 450 408 c 0
 450 406 451 404 451 402 c 0
 451 391 453 380 457 371 c 2
 459 361 l 2
 459 356 457 354 452 354 c 2
 435 361 l 2
 414 372 393 377 372 377 c 0xc2
 345 377 321 363 302 334 c 0
 283 305 266 276 252 247 c 1
 261 244 l 1
 318 244 368 228 409 197 c 0
 451 166 483 100 504 0 c 1
EndSplineSet
Validated: 1
LCarets2: 1 0
Ligature2: "'ccmp' Canonical Composition and Precomposed Glyphs-1" afii10076 acutecomb
EndChar

StartChar: uni045D
Encoding: 1117 1117 180
Width: 500
Flags: W
HStem: 0 21G<68 173 325 433> 431 20G<81 188 329 432> 431 20G<81 188 329 432>
VStem: 68 105<0 239 264 447.585> 317 106<1.77393 307>
DStem2: 173 264 173 239 0.909738 0.415183<0 152.494>
AnchorPoint: "Yerik" 227 883 basechar 0
AnchorPoint: "Above" 227 883 basechar 0
LayerCount: 2
Fore
SplineSet
194 687 m 2x90
 147 761 l 2
 130 789 120 806 120 809 c 0
 120 816 124 817 131 817 c 2
 156 815 l 2
 189 811 192 810 200 795 c 2
 239 720 l 1
 248 703 l 1
 262 673 l 1
 281 637 l 1
 283 630 l 2
 283 625 278 623 267 623 c 0
 251 623 240 626 233 632 c 0
 226 638 213 656 194 687 c 2x90
173 0 m 1
 68 0 l 1
 69 235 l 2
 69 315 73 378 89 451 c 1
 188 451 l 1
 182 402 178 368 176 349 c 0
 174 330 173 301 173 264 c 1
 322 332 l 1
 322 338 323 354 325 381 c 0xd4
 328 408 329 432 329 451 c 1
 432 451 l 1
 429 421 426 383 425 337 c 0
 424 292 423 249 423 208 c 0xd8
 423 143 423 102 424 84 c 0
 425 66 428 38 433 0 c 1
 325 0 l 1xd4
 325 21 324 50 321 88 c 0
 318 126 317 153 317 169 c 2xd8
 321 307 l 1
 173 239 l 1
 173 225 173 196 172 153 c 0
 171 110 171 81 171 67 c 2
 173 0 l 1
EndSplineSet
Validated: 1
EndChar

StartChar: afii10110
Encoding: 1118 1118 181
Width: 500
Flags: W
HStem: -250 21G<192.5 205.5> -1 18<195.252 218.807> 339 121<365.763 457> 431 20G<22 111> 431 20G<22 111> 541 68<204.315 282.112>
VStem: 150 51<591.957 681.934> 301 29<637.269 714.419>
DStem2: 167 186 42 278 0.159888 -0.987135<-265.315 172.443>
AnchorPoint: "Yerik" 257 803 basechar 0
AnchorPoint: "Above" 257 803 basechar 0
LayerCount: 2
Fore
SplineSet
235 541 m 0xc7
 174 541 150 572 150 613 c 0
 150 636 157 659 172 682 c 0
 187 705 200 717 210 717 c 0
 215 716 220 714 220 707 c 2
 217 697 l 1
 207 675 l 2
 203 666 201 657 201 648 c 0
 201 621 219 609 239 609 c 0
 268 609 301 636 301 688 c 0
 301 706 305 715 313 715 c 0
 326 715 330 682 330 665 c 0
 330 623 319 592 297 571 c 0
 276 551 255 541 235 541 c 0xc7
219 -1 m 1
 91 -1 l 1
 72 123 55 216 42 278 c 0
 29 340 20 380 13 399 c 0
 0 436 1 434 0 439 c 0
 0 451 10 451 34 451 c 2xd7
 111 450 l 1
 135 362 152 286 167 186 c 2
 190 44 l 2
 193 28 197 17 208 17 c 0
 217 17 222 24 222 39 c 2
 233 122 l 2
 246 223 268 305 300 367 c 0
 332 429 383 460 454 460 c 0
 470 460 476 459 476 452 c 0
 473 447 470 444 467 441 c 0
 460 437 446 416 446 392 c 0
 446 379 450 364 457 339 c 1xe7
 396 339 353 321 329 285 c 0
 305 249 286 180 273 77 c 0
 260 -26 249 -106 239 -163 c 0
 230 -221 215 -250 196 -250 c 0
 189 -250 185 -247 185 -240 c 2
 190 -218 l 2
 196 -202 202 -176 207 -139 c 0
 212 -102 215 -70 215 -41 c 2
 219 -1 l 1
EndSplineSet
Validated: 1
LCarets2: 1 0
Ligature2: "'ccmp' Canonical Composition and Precomposed Glyphs-1" afii10085 uni0306
EndChar

StartChar: uni0485
Encoding: 1157 1157 182
Width: 1
Flags: W
HStem: 715 67<-245.89 -165.149>
VStem: -312 56<625.3 705.395>
AnchorPoint: "Stack" -223 843 basemark 0
AnchorPoint: "Stack" -201 564 mark 0
AnchorPoint: "Above" -199 566 mark 0
LayerCount: 2
Fore
SplineSet
-226 782 m 0
 -199 782 -173 770 -148 746 c 0
 -123 722 -110 700 -110 681 c 0
 -110 673 -114 669 -122 669 c 0
 -135 669 -157 715 -199 715 c 0
 -201 715 -202 715 -204 715 c 0
 -228 715 -256 697 -256 665 c 0
 -256 641 -243 613 -235 601 c 0
 -227 589 -225 584 -225 580 c 0
 -225 573 -228 570 -235 570 c 0
 -248 570 -264 584 -283 613 c 0
 -302 642 -312 672 -312 703 c 0
 -312 748 -275 782 -226 782 c 0
EndSplineSet
Validated: 1
EndChar

StartChar: uni0487
Encoding: 1159 1159 183
Width: 0
Flags: W
HStem: 606 61<-31.9155 59.9892> 737 35<-362.854 -215.062>
AnchorPoint: "Stack" -309 871 basemark 0
AnchorPoint: "Stack" -287 592 mark 0
AnchorPoint: "Above" -287 590 mark 0
LayerCount: 2
Fore
SplineSet
-113 645 m 2
 -178 697 l 2
 -213 724 -252 737 -283 737 c 0
 -309 737 -339 730 -372 716 c 0
 -405 702 -428 681 -441 654 c 0
 -454 627 -462 608 -467 599 c 0
 -475 582 -480 575 -504 575 c 2
 -568 576 l 2
 -575 576 -589 575 -589 587 c 0
 -589 590 -586 594 -579 597 c 0
 -572 601 -567 606 -562 613 c 0
 -557 620 -549 638 -537 666 c 0
 -524 694 -515 711 -508 717 c 0
 -501 723 -478 731 -439 741 c 0
 -360 761 -284 772 -231 772 c 0
 -190 772 -138 751 -70 710 c 0
 -36 690 -13 678 -1 673 c 0
 12 669 23 667 34 667 c 2
 95 671 l 2
 108 673 114 671 114 664 c 0
 114 655 96 643 60 628 c 0
 24 613 -4 606 -25 606 c 0
 -54 606 -90 624 -113 645 c 2
EndSplineSet
Validated: 1
EndChar

StartChar: uniA64C
Encoding: 42572 42572 184
Width: 1041
Flags: W
HStem: -10 56<729.206 824.032> -7 69<208.167 316.623> 99 72<479 558> 464 21G<369.5 376.5> 523 103<205.903 311.072> 533 112<757.158 837.373>
VStem: 20 80<198.057 406.665> 951 70<205.349 403.272>
DStem2: 666 106 510 90 0.849187 -0.528092<-129.097 95.8025>
AnchorPoint: "Yerik" 948 680 basechar 0
AnchorPoint: "Above" 528 680 basechar 0
LayerCount: 2
Fore
SplineSet
486 99 m 0xb7
 472 99 444 77 370 39 c 0
 345 27 327 19 315 14 c 0
 292 5 255 -7 227 -7 c 0
 170 -7 122 22 81 80 c 0
 40 139 20 207 20 285 c 0
 20 376 52 456 115 524 c 0
 178 592 228 626 264 626 c 0
 284 626 320 609 373 574 c 0
 426 540 453 518 453 507 c 0
 453 502 441 493 417 481 c 0
 394 470 379 464 374 464 c 0
 365 464 356 470 335 486 c 0
 315 502 273 523 242 523 c 0
 211 523 179 500 147 454 c 0
 116 408 100 359 100 306 c 0
 100 251 117 196 151 142 c 0
 186 89 229 62 282 62 c 0x7b
 341 62 409 94 454 121 c 2
 538 166 l 2
 542 169 550 171 554 171 c 0
 562 171 590 154 666 106 c 0
 705 82 731 66 746 58 c 0
 761 50 776 46 790 46 c 0
 825 46 861 68 897 111 c 0
 933 154 951 209 951 276 c 0
 951 349 934 410 900 459 c 0
 866 508 835 533 806 533 c 0
 778 533 750 509 721 476 c 0
 696 448 692 446 685 446 c 0
 685 446 684 446 683 446 c 0
 675 446 664 453 644 462 c 0
 624 473 606 482 606 490 c 0
 606 493 610 498 617 507 c 0
 624 516 643 535 673 565 c 0
 733 626 752 645 776 645 c 0
 807 645 852 619 907 574 c 0
 934 551 960 520 984 481 c 0
 1009 442 1021 392 1021 331 c 0
 1021 238 990 158 927 91 c 0
 865 24 801 -10 734 -10 c 0
 689 -10 636 7 573 50 c 0
 542 71 521 85 510 90 c 0
 500 96 492 99 486 99 c 0xb7
EndSplineSet
Validated: 1
EndChar

StartChar: uniA64D
Encoding: 42573 42573 185
Width: 1000
Flags: W
HStem: -12 61<185.579 299.813 715.881 841.011> 101 75<471.5 547> 375 103<168.003 272.465> 388 111<763.224 839.882>
VStem: 20 85<146.243 323.298> 919 65<140.326 299.833>
DStem2: 411 102 399 64 0.874157 0.485643<-127.353 54.38>
AnchorPoint: "Yerik" 887 623 basechar 0
AnchorPoint: "Above" 507 623 basechar 0
LayerCount: 2
Fore
SplineSet
494 150 m 1xec
 501 155 l 1
 519 165 l 2
 531 172 540 176 545 176 c 0
 549 176 558 172 572 163 c 0
 586 154 620 132 673 96 c 0
 727 61 770 43 802 43 c 0
 831 43 858 56 882 82 c 0
 907 108 919 146 919 195 c 0
 919 244 907 289 882 328 c 0
 857 368 832 388 806 388 c 0
 765 388 711 304 692 304 c 0
 683 304 666 309 641 320 c 0
 617 331 605 339 605 344 c 0
 633 379 663 413 696 447 c 0
 729 482 756 499 779 499 c 0xdc
 795 499 815 492 839 478 c 0
 863 464 893 442 929 412 c 0
 966 382 984 329 984 254 c 0
 984 179 961 116 914 65 c 0
 867 14 813 -11 751 -11 c 0
 718 -11 686 -5 655 7 c 0
 624 20 587 38 546 63 c 0
 505 88 481 101 474 101 c 0
 469 101 463 99 456 96 c 0
 449 93 430 83 399 64 c 0
 336 27 277 -12 209 -12 c 0
 146 -12 98 13 67 63 c 0
 36 113 20 165 20 218 c 0
 20 293 47 355 101 404 c 0
 156 453 195 478 220 478 c 0
 241 478 278 461 331 428 c 0
 384 395 411 372 411 361 c 0
 411 354 400 346 379 335 c 0
 358 324 343 319 335 319 c 2
 327 319 l 1
 307 326 257 375 211 375 c 0
 209 375 207 375 205 375 c 1
 146 375 105 326 105 250 c 0
 105 197 119 151 146 110 c 0
 174 69 212 49 260 49 c 0
 304 49 360 73 411 102 c 2
 494 150 l 1xec
EndSplineSet
Validated: 1
EndChar

StartChar: uniA673
Encoding: 42611 42611 186
Width: 387
Flags: W
DStem2: 21 539 68 539 0.940376 0.340136<44.1977 99.96 226.911 285.247> 68 539 21 539 0.942627 -0.333847<0 57.5395> 105 631 71 665 0.431455 -0.902134<0 56.6383> 73 412 105 445 0.427668 0.903936<43.5153 102.883> 71 665 105 631 0.900159 -0.435561<45.4145 103.315> 105 445 73 412 0.896389 0.443269<0 58.2062> 164 620 173 599 0.333847 0.942627<0 57.5395> 173 478 164 457 0.333847 -0.942627<16.7905 74.3301> 198 716 198 669 0.342529 -0.939507<44.1568 102.181> 198 408 198 361 0.342529 0.939507<0 58.0244 185.003 243.141> 223 478 233 457 0.900159 -0.435561<18.1484 76.4845> 280 573 258 564 0.942627 -0.333847<0 57.5395> 280 505 258 513 0.443354 -0.896347<0 59.101> 258 513 280 505 0.942627 0.333847<18.067 75.6066>
LayerCount: 2
Fore
SplineSet
280 505 m 1
 326 412 l 1
 233 457 l 1
 198 361 l 1
 164 457 l 1
 73 412 l 1
 117 505 l 1
 21 539 l 1
 115 573 l 1
 71 665 l 1
 164 620 l 1
 198 716 l 1
 233 620 l 1
 326 665 l 1
 280 573 l 1
 376 539 l 1
 280 505 l 1
258 564 m 1
 292 632 l 1
 223 600 l 1
 198 669 l 1
 173 599 l 1
 105 631 l 1
 137 564 l 1
 68 539 l 1
 138 513 l 1
 105 445 l 1
 173 478 l 1
 198 408 l 1
 223 478 l 1
 292 445 l 1
 258 513 l 1
 329 539 l 1
 258 564 l 1
EndSplineSet
Validated: 1
EndChar

StartChar: uniA67D
Encoding: 42621 42621 187
Width: 0
Flags: W
HStem: 600 226
VStem: -221 69<772.564 823.938>
AnchorPoint: "Stack" -166 876 basemark 0
AnchorPoint: "Stack" -144 597 mark 0
AnchorPoint: "Yerik" -142 596 mark 0
LayerCount: 2
Fore
SplineSet
-144 600 m 0
 -159 600 -172 597 -179 597 c 0
 -184 597 -183 603 -181 608 c 0
 -172 641 -160 694 -140 734 c 1
 -172 739 -191 751 -205 767 c 0
 -216 779 -221 796 -221 802 c 0
 -221 815 -220 828 -212 826 c 0
 -202 825 -189 824 -176 824 c 0
 -169 824 -163 824 -157 825 c 0
 -151 825 -152 818 -152 812 c 0
 -152 798 -149 784 -136 772 c 0
 -133 770 -130 769 -128 769 c 0
 -125 769 -123 778 -121 782 c 0
 -111 802 -105 811 -98 818 c 0
 -93 822 -89 823 -83 823 c 0
 -80 823 -77 823 -73 823 c 0
 -59 823 -34 829 -28 829 c 0
 -27 829 l 0
 -23 829 -21 827 -21 824 c 0
 -21 822 -22 820 -23 817 c 2
 -23 817 -36 805 -42 796 c 0
 -49 784 -63 757 -84 694 c 0
 -95 662 -102 626 -105 607 c 0
 -106 603 -106 597 -111 597 c 0
 -116 597 -134 600 -144 600 c 0
EndSplineSet
Validated: 1
EndChar

StartChar: uniA67F
Encoding: 42623 42623 188
Width: 250
Flags: W
HStem: 600 226
VStem: 25 69<772.564 823.938>
LayerCount: 2
Fore
SplineSet
102 600 m 0
 87 600 74 597 67 597 c 0
 62 597 63 603 65 608 c 0
 74 641 86 694 106 734 c 1
 74 739 55 751 41 767 c 0
 30 779 25 796 25 802 c 0
 25 815 26 828 34 826 c 0
 44 825 57 824 70 824 c 0
 77 824 83 824 89 825 c 0
 95 825 94 818 94 812 c 0
 94 798 97 784 110 772 c 0
 113 770 116 769 118 769 c 0
 121 769 123 778 125 782 c 0
 135 802 141 811 148 818 c 0
 153 822 157 823 163 823 c 0
 166 823 169 823 173 823 c 0
 187 823 212 829 218 829 c 0
 219 829 l 0
 223 829 225 827 225 824 c 0
 225 822 224 820 223 817 c 2
 223 817 210 805 204 796 c 0
 197 784 183 757 162 694 c 0
 151 662 144 626 141 607 c 0
 140 603 140 597 135 597 c 0
 130 597 112 600 102 600 c 0
EndSplineSet
Validated: 1
EndChar

StartChar: uniA67E
Encoding: 42622 42622 189
Width: 370
Flags: W
HStem: 590 64<124.765 247.482>
VStem: 31 60<688.561 765> 279 60<686.214 765>
LayerCount: 2
Fore
SplineSet
279 765 m 1
 339 765 l 1
 339 717 333 694 310 653 c 0
 289 613 238 590 185 590 c 0
 82 590 31 657 31 765 c 1
 91 765 l 1
 91 685 136 654 185 654 c 0
 237 654 279 684 279 765 c 1
EndSplineSet
Validated: 1
EndChar

StartChar: uni0001
Encoding: 1 1 190
Width: 751
Flags: W
HStem: 0 46<92 659> 705 46<92 659>
VStem: 46 46<46 705> 659 46<46 705>
LayerCount: 2
Fore
SplineSet
46 0 m 1
 46 751 l 1
 705 751 l 1
 705 0 l 1
 46 0 l 1
659 46 m 1
 659 705 l 1
 92 705 l 1
 92 46 l 1
 659 46 l 1
EndSplineSet
Validated: 1
EndChar

StartChar: uni0002
Encoding: 2 2 191
Width: 751
Flags: W
HStem: 0 46<92 659> 705 46<92 659>
VStem: 46 46<46 705> 659 46<46 705>
LayerCount: 2
Fore
SplineSet
46 0 m 1
 46 751 l 1
 705 751 l 1
 705 0 l 1
 46 0 l 1
659 46 m 1
 659 705 l 1
 92 705 l 1
 92 46 l 1
 659 46 l 1
EndSplineSet
Validated: 1
EndChar

StartChar: uni0003
Encoding: 3 3 192
Width: 751
Flags: W
HStem: 0 46<92 659> 705 46<92 659>
VStem: 46 46<46 705> 659 46<46 705>
LayerCount: 2
Fore
SplineSet
46 0 m 1
 46 751 l 1
 705 751 l 1
 705 0 l 1
 46 0 l 1
659 46 m 1
 659 705 l 1
 92 705 l 1
 92 46 l 1
 659 46 l 1
EndSplineSet
Validated: 1
EndChar

